<?xml version="1.0" encoding="UTF-8" standalone="no"?>
<!-- Creator: CorelDRAW -->

<svg
   xmlns:dc="http://purl.org/dc/elements/1.1/"
   xmlns:cc="http://creativecommons.org/ns#"
   xmlns:rdf="http://www.w3.org/1999/02/22-rdf-syntax-ns#"
   xmlns:svg="http://www.w3.org/2000/svg"
   xmlns="http://www.w3.org/2000/svg"
   xmlns:xlink="http://www.w3.org/1999/xlink"
   xmlns:sodipodi="http://sodipodi.sourceforge.net/DTD/sodipodi-0.dtd"
   xmlns:inkscape="http://www.inkscape.org/namespaces/inkscape"
   xml:space="preserve"
   width="550.1225"
   height="56.311321"
   style="fill-rule:evenodd"
   viewBox="0 0 17.451928 1.7864087"
   id="svg3825"
   version="1.1"
   inkscape:version="0.48.3.1 r9886"
   sodipodi:docname="travelistics_logo.svg"><title
   id="title4046">Travelistics logo</title><metadata
   id="metadata3979"><rdf:RDF><cc:Work
       rdf:about=""><dc:format>image/svg+xml</dc:format><dc:type
         rdf:resource="http://purl.org/dc/dcmitype/StillImage" /><dc:title>Travelistics logo</dc:title><dc:date>2013-02-08</dc:date><dc:creator><cc:Agent><dc:title>Konstantin Yastrebov</dc:title></cc:Agent></dc:creator><dc:rights><cc:Agent><dc:title>Copyrighted</dc:title></cc:Agent></dc:rights><dc:publisher><cc:Agent><dc:title>Western Norway Research Institute</dc:title></cc:Agent></dc:publisher><dc:contributor><cc:Agent><dc:title>Using the Ubuntu font with the Ubuntu font license. See http://font.ubuntu.com</dc:title></cc:Agent></dc:contributor></cc:Work></rdf:RDF></metadata><sodipodi:namedview
   pagecolor="#ffffff"
   bordercolor="#666666"
   borderopacity="1"
   objecttolerance="10"
   gridtolerance="10"
   guidetolerance="10"
   inkscape:pageopacity="0"
   inkscape:pageshadow="2"
   inkscape:window-width="1280"
   inkscape:window-height="974"
   id="namedview3977"
   showgrid="false"
   fit-margin-top="0"
   fit-margin-left="0"
   fit-margin-right="0"
   fit-margin-bottom="0"
   inkscape:zoom="0.63432805"
   inkscape:cx="139.09068"
   inkscape:cy="94.163306"
   inkscape:window-x="0"
   inkscape:window-y="0"
   inkscape:window-maximized="1"
   inkscape:current-layer="_483348544"><sodipodi:guide
     position="-189.99772,-383.48181"
     orientation="0,930.1181"
     id="guide4038" /><sodipodi:guide
     position="740.12038,-383.48181"
     orientation="-744.09448,0"
     id="guide4040" /><sodipodi:guide
     position="740.12038,360.61267"
     orientation="0,-930.1181"
     id="guide4042" /><sodipodi:guide
     position="-189.99772,360.61267"
     orientation="744.09448,0"
     id="guide4044" /></sodipodi:namedview>
 <defs
   id="defs3827">
  <style
   type="text/css"
   id="style3829">
   
    .fil2 {fill:#C11F25}
    .fil4 {fill:#CB2026}
    .fil5 {fill:#F26722}
    .fil6 {fill:#F8981D}
    .fil1 {fill:#F9F9F9}
    .fil8 {fill:#FFCD05}
    .fil0 {fill:#2B2A29;fill-rule:nonzero}
    .fil3 {fill:#630D0D;fill-rule:nonzero}
    .fil7 {fill:white;fill-rule:nonzero}
   
  </style>
  <clipPath
   id="id0">
   <path
   d="m 147.803,-10.0971 0.92549,0.496097 -0.12039,-6.99818 -0.92549,-0.496108 0.12039,6.99819 z"
   id="path3832"
   inkscape:connector-curvature="0" />
  </clipPath>
  <clipPath
   id="id1">
   <path
   d="m 163.769,12.6545 16.0156,0 0,-31.412 -16.0156,0 -1e-5,31.412 z"
   id="path3835"
   inkscape:connector-curvature="0" />
  </clipPath>
  <clipPath
   id="id2">
   <rect
   x="167.688"
   y="-8.0540304"
   width="5.5851598"
   height="8.9601402"
   id="rect3838" />
  </clipPath>
  <clipPath
   id="id3">
   <path
   d="m 160.518,11.3554 3.80685,0 0,-3.80685 -3.80685,0 0,3.80685 z"
   id="path3841"
   inkscape:connector-curvature="0" />
  </clipPath>
  <clipPath
   id="id4">
   <rect
   x="138.578"
   y="-16.6147"
   width="6.4668598"
   height="6.4668498"
   id="rect3844" />
  </clipPath>
  <clipPath
   id="id5">
   <path
   d="m 132.661,11.6004 6.72442,0 0,-6.8365 -6.72442,0 0,6.8365 z"
   id="path3847"
   inkscape:connector-curvature="0" />
  </clipPath>
  <clipPath
   id="id6">
   <path
   d="m 140.286,11.6004 8.08097,0 0,-6.8365 -8.08097,0 0,6.8365 z"
   id="path3850"
   inkscape:connector-curvature="0" />
  </clipPath>
  <clipPath
   id="id7">
   <path
   d="m 148.989,11.6004 7.17115,0 0,-6.8365 -7.17115,0 0,6.8365 z"
   id="path3853"
   inkscape:connector-curvature="0" />
  </clipPath>
  <clipPath
   id="id8">
   <rect
   x="155.35899"
   y="-8.3125496"
   width="8.4517002"
   height="10.8956"
   id="rect3856" />
  </clipPath>
  <clipPath
   id="id9">
   <rect
   x="133.255"
   y="-16.6147"
   width="5.80581"
   height="5.9092302"
   id="rect3859" />
  </clipPath>
  <clipPath
   id="id10">
   <rect
   x="143.937"
   y="-8.3125496"
   width="10.8956"
   height="10.8956"
   id="rect3862" />
  </clipPath>
  <clipPath
   id="id11">
   <path
   d="m 164.592,1.01769 c 0,0 -0.33464,0.657603 -0.9385,0.699059 l 0,0 -0.40508,0.587877 -0.0856,0.097985 c 0,0 0.36484,0.463533 0.32206,1.13621 l 0,0 c 0,0 -0.19374,1.24549 0.72966,1.75047 l 0,0 c 0,0 1.02152,0.644418 1.20519,0.923289 l 0,0 c 0,0 0.11071,-0.209156 1.09197,-0.881833 l 0,0 c 0,0 0.98127,-0.378733 0.91083,-1.66757 l 0,0 c 0,0 -0.0981,-0.727318 0.26419,-1.21722 l 0,0 -0.46045,-0.729207 c 0,0 -0.65921,-0.111182 -0.89572,-0.699059 l 0,0 c 0,0 -0.36735,-0.0942196 -0.88314,-0.0942196 l 0,0 c -0.25663,0 -0.55102,0.0226163 -0.85546,0.0942196 l 0,0 z"
   id="path3865"
   inkscape:connector-curvature="0" />
  </clipPath>
  <clipPath
   id="id12">
   <path
   d="m 144.639,-9.8271 2.56598,0 0,-6.78763 -2.56598,0 0,6.78763 z"
   id="path3868"
   inkscape:connector-curvature="0" />
  </clipPath>
  <clipPath
   id="id13">
   <path
   d="m 148.966,-10.4688 8.91336,0 0,-6.19994 -8.91336,0 0,6.19994 z"
   id="path3871"
   inkscape:connector-curvature="0" />
  </clipPath>
  <clipPath
   id="id14">
   <path
   d="m 131.251,2.58303 12.2357,0 0,-10.9268 -12.2357,0 0,10.9268 z"
   id="path3874"
   inkscape:connector-curvature="0" />
  </clipPath>
  <clipPath
   id="id15">
   <rect
   x="157.89799"
   y="-18.7537"
   width="11.4999"
   height="18.558399"
   id="rect3877" />
  </clipPath>
  <clipPath
   id="id16">
   <rect
   x="156.78"
   y="0.71306503"
   width="4.81567"
   height="5.7102799"
   id="rect3880" />
  </clipPath>
 <clipPath
   clipPathUnits="userSpaceOnUse"
   id="clipPath3991"><g
     id="g3993">
    <path
   id="path3995"
   class="fil4"
   d="m 27.2798,2.19604 0.371202,0 c 0.04569,0 0.08305,0.037353 0.08305,0.083046 l 0,1.01423 c 0,0.045693 -0.03735,0.083046 -0.08305,0.083046 l -0.371202,0 c -0.04571,0 -0.08304,-0.037353 -0.08304,-0.083046 l 0,-1.01423 c 0,-0.045693 0.03733,-0.083046 0.08304,-0.083046 z"
   inkscape:connector-curvature="0"
   style="fill:#cb2026" />
    <path
   id="path3997"
   class="fil5"
   d="m 26.6047,2.42937 0.37119,0 c 0.04569,0 0.08305,0.037353 0.08305,0.083046 l 0,0.780914 c 0,0.045693 -0.03735,0.083035 -0.08305,0.083035 l -0.37119,0 c -0.04572,0 -0.08305,-0.037342 -0.08305,-0.083035 l 0,-0.780914 c 0,-0.045693 0.03733,-0.083046 0.08305,-0.083046 z"
   inkscape:connector-curvature="0"
   style="fill:#f26722" />
    <path
   id="path3999"
   class="fil6"
   d="m 25.9367,2.634 0.371224,0 c 0.04569,0 0.08305,0.037353 0.08305,0.083046 l 0,0.576288 c 0,0.045693 -0.03735,0.083035 -0.08305,0.083035 l -0.371224,0 c -0.04568,0 -0.08303,-0.037342 -0.08303,-0.083035 l 0,-0.576288 C 25.85367,2.671353 25.89102,2.634 25.9367,2.634 z"
   inkscape:connector-curvature="0"
   style="fill:#f8981d" />
   </g></clipPath><clipPath
   clipPathUnits="userSpaceOnUse"
   id="clipPath4001"><g
     id="g4003">
    <path
   id="path4005"
   class="fil4"
   d="m 27.2798,2.19604 0.371202,0 c 0.04569,0 0.08305,0.037353 0.08305,0.083046 l 0,1.01423 c 0,0.045693 -0.03735,0.083046 -0.08305,0.083046 l -0.371202,0 c -0.04571,0 -0.08304,-0.037353 -0.08304,-0.083046 l 0,-1.01423 c 0,-0.045693 0.03733,-0.083046 0.08304,-0.083046 z"
   inkscape:connector-curvature="0"
   style="fill:#cb2026" />
    <path
   id="path4007"
   class="fil5"
   d="m 26.6047,2.42937 0.37119,0 c 0.04569,0 0.08305,0.037353 0.08305,0.083046 l 0,0.780914 c 0,0.045693 -0.03735,0.083035 -0.08305,0.083035 l -0.37119,0 c -0.04572,0 -0.08305,-0.037342 -0.08305,-0.083035 l 0,-0.780914 c 0,-0.045693 0.03733,-0.083046 0.08305,-0.083046 z"
   inkscape:connector-curvature="0"
   style="fill:#f26722" />
    <path
   id="path4009"
   class="fil6"
   d="m 25.9367,2.634 0.371224,0 c 0.04569,0 0.08305,0.037353 0.08305,0.083046 l 0,0.576288 c 0,0.045693 -0.03735,0.083035 -0.08305,0.083035 l -0.371224,0 c -0.04568,0 -0.08303,-0.037342 -0.08303,-0.083035 l 0,-0.576288 C 25.85367,2.671353 25.89102,2.634 25.9367,2.634 z"
   inkscape:connector-curvature="0"
   style="fill:#f8981d" />
   </g></clipPath><clipPath
   clipPathUnits="userSpaceOnUse"
   id="clipPath4011"><g
     id="g4013">
    <path
   id="path4015"
   class="fil4"
   d="m 27.2798,2.19604 0.371202,0 c 0.04569,0 0.08305,0.037353 0.08305,0.083046 l 0,1.01423 c 0,0.045693 -0.03735,0.083046 -0.08305,0.083046 l -0.371202,0 c -0.04571,0 -0.08304,-0.037353 -0.08304,-0.083046 l 0,-1.01423 c 0,-0.045693 0.03733,-0.083046 0.08304,-0.083046 z"
   inkscape:connector-curvature="0"
   style="fill:#cb2026" />
    <path
   id="path4017"
   class="fil5"
   d="m 26.6047,2.42937 0.37119,0 c 0.04569,0 0.08305,0.037353 0.08305,0.083046 l 0,0.780914 c 0,0.045693 -0.03735,0.083035 -0.08305,0.083035 l -0.37119,0 c -0.04572,0 -0.08305,-0.037342 -0.08305,-0.083035 l 0,-0.780914 c 0,-0.045693 0.03733,-0.083046 0.08305,-0.083046 z"
   inkscape:connector-curvature="0"
   style="fill:#f26722" />
    <path
   id="path4019"
   class="fil6"
   d="m 25.9367,2.634 0.371224,0 c 0.04569,0 0.08305,0.037353 0.08305,0.083046 l 0,0.576288 c 0,0.045693 -0.03735,0.083035 -0.08305,0.083035 l -0.371224,0 c -0.04568,0 -0.08303,-0.037342 -0.08303,-0.083035 l 0,-0.576288 C 25.85367,2.671353 25.89102,2.634 25.9367,2.634 z"
   inkscape:connector-curvature="0"
   style="fill:#f8981d" />
   </g></clipPath></defs>
<symbol
   id="Fm1-7-0"
   viewBox="131.25 -18.7575 48.5373 31.412"
   transform="translate(-6.0274485,-9.6535933)">
 <g
   id="g3883"
   clip-path="url(#id0)">
  <image
   sodipodi:absref="/home/dittaeva/repositories/travelistics/logo/Travelistics_logo_1_Images\Travelistics_logo_1_ImgID1.png"
   xlink:href="Travelistics_logo_1_Images\Travelistics_logo_1_ImgID1.png"
   id="image3885"
   height="0.039657202"
   width="0.039657202"
   y="12.6132"
   x="131.25"
   transform="matrix(72.8023,-135.815,120.196,64.43,-10927,17001)" />
 </g>
 <polygon
   class="fil0"
   points="131.25,-8.63062 131.25,2.90104 179.787,2.90104 179.787,-8.63062 "
   id="polygon3887"
   style="fill:#2b2a29;fill-rule:nonzero" />
 <g
   id="g3889"
   clip-path="url(#id1)">
  <image
   sodipodi:absref="/home/dittaeva/repositories/travelistics/logo/Travelistics_logo_1_Images\Travelistics_logo_1_ImgID2.png"
   xlink:href="Travelistics_logo_1_Images\Travelistics_logo_1_ImgID2.png"
   id="image3891"
   height="0.039657202"
   width="0.039657202"
   y="12.6132"
   x="131.25"
   transform="matrix(-3.04981e-5,817.82,-545.895,-3.04981e-5,7070.89,-107358)" />
 </g>
 <g
   id="g3893"
   clip-path="url(#id2)">
  <image
   sodipodi:absref="/home/dittaeva/repositories/travelistics/logo/Travelistics_logo_1_Images\Travelistics_logo_1_ImgID3.png"
   xlink:href="Travelistics_logo_1_Images\Travelistics_logo_1_ImgID3.png"
   id="image3895"
   height="0.039657202"
   width="0.039657202"
   y="12.6132"
   x="131.25"
   transform="matrix(140.836,0,0,225.94,-18317,-2857.88)" />
 </g>
 <g
   id="g3897"
   clip-path="url(#id3)">
  <image
   sodipodi:absref="/home/dittaeva/repositories/travelistics/logo/Travelistics_logo_1_Images\Travelistics_logo_1_ImgID4.png"
   xlink:href="Travelistics_logo_1_Images\Travelistics_logo_1_ImgID4.png"
   id="image3899"
   height="0.039657202"
   width="0.039657202"
   y="12.6132"
   x="131.25"
   transform="matrix(95.994,0,0,95.994,-12438.7,-1203.24)" />
 </g>
 <g
   id="g3901"
   clip-path="url(#id4)">
  <image
   sodipodi:absref="/home/dittaeva/repositories/travelistics/logo/Travelistics_logo_1_Images\Travelistics_logo_1_ImgID5.png"
   xlink:href="Travelistics_logo_1_Images\Travelistics_logo_1_ImgID5.png"
   id="image3903"
   height="0.039657202"
   width="0.039657202"
   y="12.6132"
   x="131.25"
   transform="matrix(163.069,0,0,163.069,-21264.2,-2073.44)" />
 </g>
 <g
   id="g3905"
   clip-path="url(#id5)">
  <image
   sodipodi:absref="/home/dittaeva/repositories/travelistics/logo/Travelistics_logo_1_Images\Travelistics_logo_1_ImgID6.png"
   xlink:href="Travelistics_logo_1_Images\Travelistics_logo_1_ImgID6.png"
   id="image3907"
   height="6.8384299"
   width="6.7263198"
   y="5.8144202"
   x="131.25"
   transform="translate(1.41154,-1.05242)" />
 </g>
 <g
   id="g3909"
   clip-path="url(#id6)">
  <image
   sodipodi:absref="/home/dittaeva/repositories/travelistics/logo/Travelistics_logo_1_Images\Travelistics_logo_1_ImgID7.png"
   xlink:href="Travelistics_logo_1_Images\Travelistics_logo_1_ImgID7.png"
   id="image3911"
   height="0.039657202"
   width="0.039657202"
   y="12.6132"
   x="131.25"
   transform="matrix(203.771,0,0,172.39,-26604.6,-2169.62)" />
 </g>
 <g
   id="g3913"
   clip-path="url(#id7)">
  <image
   sodipodi:absref="/home/dittaeva/repositories/travelistics/logo/Travelistics_logo_1_Images\Travelistics_logo_1_ImgID8.png"
   xlink:href="Travelistics_logo_1_Images\Travelistics_logo_1_ImgID8.png"
   id="image3915"
   height="6.8384299"
   width="7.1731701"
   y="5.8144202"
   x="131.25"
   transform="translate(17.7393,-1.05242)" />
 </g>
 <g
   id="g3917"
   clip-path="url(#id8)">
  <image
   sodipodi:absref="/home/dittaeva/repositories/travelistics/logo/Travelistics_logo_1_Images\Travelistics_logo_1_ImgID9.png"
   xlink:href="Travelistics_logo_1_Images\Travelistics_logo_1_ImgID9.png"
   id="image3919"
   height="0.039657202"
   width="0.039657202"
   y="12.6132"
   x="131.25"
   transform="matrix(213.119,0,0,274.744,-27816.5,-3473.72)" />
 </g>
 <g
   id="g3921"
   clip-path="url(#id9)">
  <image
   sodipodi:absref="/home/dittaeva/repositories/travelistics/logo/Travelistics_logo_1_Images\Travelistics_logo_1_ImgID10.png"
   xlink:href="Travelistics_logo_1_Images\Travelistics_logo_1_ImgID10.png"
   id="image3923"
   height="0.039657202"
   width="0.039657202"
   y="12.6132"
   x="131.25"
   transform="matrix(146.4,0,0,149.008,-19081.7,-1896.08)" />
 </g>
 <g
   id="g3925"
   clip-path="url(#id10)">
  <image
   sodipodi:absref="/home/dittaeva/repositories/travelistics/logo/Travelistics_logo_1_Images\Travelistics_logo_1_ImgID11.png"
   xlink:href="Travelistics_logo_1_Images\Travelistics_logo_1_ImgID11.png"
   id="image3927"
   height="0.039657202"
   width="0.039657202"
   y="12.6132"
   x="131.25"
   transform="matrix(274.744,0,0,274.744,-35916.3,-3473.72)" />
 </g>
 <g
   id="g3929"
   clip-path="url(#id11)">
  <image
   sodipodi:absref="/home/dittaeva/repositories/travelistics/logo/Travelistics_logo_1_Images\Travelistics_logo_1_ImgID12.png"
   xlink:href="Travelistics_logo_1_Images\Travelistics_logo_1_ImgID12.png"
   id="image3931"
   height="0.039657202"
   width="0.039657202"
   y="12.6132"
   x="131.25"
   transform="matrix(223.836,0,0,167.628,-29217.6,-2114.38)" />
 </g>
 <g
   id="g3933"
   clip-path="url(#id12)">
  <image
   sodipodi:absref="/home/dittaeva/repositories/travelistics/logo/Travelistics_logo_1_Images\Travelistics_logo_1_ImgID13.png"
   xlink:href="Travelistics_logo_1_Images\Travelistics_logo_1_ImgID13.png"
   id="image3935"
   height="0.039657202"
   width="0.039657202"
   y="12.6132"
   x="131.25"
   transform="matrix(176.821,0,0,176.821,-23065.4,-2246.89)" />
 </g>
 <g
   id="g3937"
   clip-path="url(#id13)">
  <image
   sodipodi:absref="/home/dittaeva/repositories/travelistics/logo/Travelistics_logo_1_Images\Travelistics_logo_1_ImgID14.png"
   xlink:href="Travelistics_logo_1_Images\Travelistics_logo_1_ImgID14.png"
   id="image3939"
   height="0.039657202"
   width="0.039657202"
   y="12.6132"
   x="131.25"
   transform="matrix(224.76,0,0,224.76,-29350.8,-2852.82)" />
 </g>
 <g
   id="g3941"
   clip-path="url(#id14)">
  <image
   sodipodi:absref="/home/dittaeva/repositories/travelistics/logo/Travelistics_logo_1_Images\Travelistics_logo_1_ImgID15.png"
   xlink:href="Travelistics_logo_1_Images\Travelistics_logo_1_ImgID15.png"
   id="image3943"
   height="0.039657202"
   width="0.039657202"
   y="12.6132"
   x="131.25"
   transform="matrix(452.042,0,0,275.531,-59205,-3483.66)" />
 </g>
 <g
   id="g3945"
   clip-path="url(#id15)">
  <image
   sodipodi:absref="/home/dittaeva/repositories/travelistics/logo/Travelistics_logo_1_Images\Travelistics_logo_1_ImgID16.png"
   xlink:href="Travelistics_logo_1_Images\Travelistics_logo_1_ImgID16.png"
   id="image3947"
   height="18.563601"
   width="11.5031"
   y="-5.9108"
   x="131.25"
   transform="translate(26.648,-12.8481)" />
 </g>
 <g
   id="g3949"
   clip-path="url(#id16)">
  <image
   sodipodi:absref="/home/dittaeva/repositories/travelistics/logo/Travelistics_logo_1_Images\Travelistics_logo_1_ImgID17.png"
   xlink:href="Travelistics_logo_1_Images\Travelistics_logo_1_ImgID17.png"
   id="image3951"
   height="0.039657202"
   width="0.039657202"
   y="12.6132"
   x="131.25"
   transform="matrix(121.432,0,0,143.991,-15781.2,-1815.47)" />
 </g>
</symbol>
 <g
   id="Layer_x0020_1"
   transform="translate(-6.0274485,-9.6535933)">
  <metadata
   id="CorelCorpID_0Corel-Layer" />
  <g
   id="_483348544">
   <rect
   id="_483336496"
   class="fil1"
   width="29.5068"
   height="23.605499"
   clip-path="url(#clipPath4011)"
   x="0"
   y="0"
   style="fill:#f9f9f9" />
   <rect
   id="_483348712"
   class="fil2"
   y="16.3134"
   width="29.5068"
   height="7.2920699"
   clip-path="url(#clipPath4001)"
   x="0"
   style="fill:#c11f25" />
   <path
   id="_483346816"
   class="fil3"
   d="m 9.66602,10.2332 0.446031,0 0,0.176603 -0.446031,0 0,0.543398 c 0,0.05887 0.00453,0.107529 0.01359,0.146017 0.00905,0.0385 0.022639,0.06868 0.040748,0.09057 0.01812,0.0219 0.040759,0.03735 0.067928,0.04642 0.027169,0.0091 0.058867,0.01357 0.095096,0.01357 0.063398,0 0.114329,-0.0071 0.152829,-0.02149 0.03849,-0.01434 0.06529,-0.02453 0.08037,-0.03058 l 0.04075,0.174332 c -0.02112,0.01058 -0.0581,0.02379 -0.110934,0.03962 -0.05282,0.01586 -0.1132055,0.02378 -0.1811335,0.02378 -0.079989,0 -0.146028,-0.01018 -0.198095,-0.03055 -0.052089,-0.02039 -0.093984,-0.05094 -0.125682,-0.09171 -0.031699,-0.04074 -0.053955,-0.09094 -0.066781,-0.150559 -0.012826,-0.05961 -0.019244,-0.128683 -0.019244,-0.207176 l 0,-1.0505305 0.210561,-0.03624 0,0.3645355 z m 1.14791,-0.0249 c 0.0181,0 0.03887,0.0011 0.06225,0.0034 0.0234,0.0023 0.04641,0.0053 0.06907,0.0091 0.02264,0.0038 0.04338,0.0076 0.06225,0.01133 0.01887,0.0038 0.03282,0.0071 0.04188,0.01018 l -0.03623,0.183381 c -0.01658,-0.006 -0.04415,-0.0132 -0.08262,-0.02149 -0.0385,-0.0083 -0.08794,-0.01246 -0.148321,-0.01246 -0.03924,0 -0.07811,0.0041 -0.116589,0.01246 -0.03849,0.0083 -0.06377,0.01395 -0.07584,0.01698 l 0,0.989406 -0.210572,0 0,-1.12753 c 0.04981,-0.01811 0.111688,-0.03509 0.185663,-0.05093 0.07396,-0.01586 0.156976,-0.02377 0.249049,-0.02377 z m 0.837702,1.05053 c 0.04983,0 0.09398,-0.0011 0.132449,-0.0034 0.0385,-0.0023 0.07057,-0.0064 0.09624,-0.01245 l 0,-0.350935 c -0.01511,-0.0075 -0.03964,-0.01396 -0.07358,-0.01924 -0.03397,-0.0053 -0.0751,-0.0079 -0.123412,-0.0079 -0.0317,0 -0.06526,0.0022 -0.10075,0.0068 -0.03546,0.0045 -0.06793,0.01397 -0.09737,0.02832 -0.02943,0.01434 -0.05396,0.03396 -0.07358,0.05887 -0.01962,0.0249 -0.02943,0.05772 -0.02943,0.09848 0,0.07548 0.02416,0.127919 0.07246,0.157359 0.04831,0.02943 0.113947,0.04414 0.196971,0.04414 z m -0.0181,-1.05506 c 0.08451,0 0.15583,0.01095 0.213943,0.03281 0.05813,0.0219 0.104909,0.05284 0.140374,0.09284 0.03549,0.04002 0.06076,0.08755 0.07585,0.142633 0.01508,0.0551 0.02266,0.115869 0.02266,0.182279 l 0,0.735839 c -0.01813,0.003 -0.04341,0.0072 -0.07585,0.01244 -0.03247,0.0053 -0.06907,0.01018 -0.109822,0.01472 -0.04076,0.0045 -0.08491,0.0087 -0.132449,0.01244 -0.04756,0.0038 -0.09473,0.0057 -0.141509,0.0057 -0.06641,0 -0.127548,-0.0068 -0.183403,-0.02037 -0.05583,-0.01359 -0.104134,-0.03508 -0.144893,-0.06452 -0.04075,-0.02943 -0.07245,-0.0683 -0.09509,-0.116611 -0.02265,-0.04831 -0.03396,-0.106404 -0.03396,-0.174332 0,-0.06491 0.0132,-0.120748 0.03961,-0.167543 0.02643,-0.04678 0.06226,-0.08454 0.107551,-0.113216 0.04528,-0.02866 0.09811,-0.04981 0.158471,-0.06339 0.06039,-0.01359 0.123783,-0.02039 0.190204,-0.02039 0.02111,0 0.04301,0.0011 0.06566,0.0034 0.02264,0.0023 0.04415,0.0053 0.06452,0.009 0.02037,0.0038 0.03811,0.0072 0.05321,0.01021 0.0151,0.003 0.02565,0.0053 0.0317,0.0068 l 0,-0.05887 c 0,-0.03471 -0.0038,-0.06905 -0.01133,-0.103021 -0.0075,-0.03396 -0.02113,-0.06414 -0.04076,-0.09057 -0.01963,-0.02639 -0.04641,-0.04754 -0.08036,-0.06338 -0.03396,-0.01586 -0.07811,-0.02379 -0.132449,-0.02379 -0.06944,0 -0.130212,0.0049 -0.182279,0.01473 -0.05207,0.0098 -0.09094,0.02 -0.116589,0.03055 l -0.0249,-0.174332 c 0.02717,-0.01208 0.07244,-0.02376 0.135833,-0.03509 0.0634,-0.01133 0.132078,-0.01697 0.206042,-0.01697 z m 1.720729,0.02943 c -0.05886,0.220374 -0.127929,0.431688 -0.207176,0.633942 -0.07924,0.202276 -0.15583,0.383409 -0.229806,0.543398 l -0.190181,0 C 12.653149,11.250551 12.576554,11.069418 12.497285,10.867142 12.41805,10.664888 12.348998,10.453574 12.29013,10.2332 l 0.22641,0 c 0.0181,0.07395 0.03961,0.152817 0.06452,0.236594 0.02492,0.08379 0.05131,0.16679 0.07926,0.24906 0.02791,0.08227 0.05623,0.161877 0.08489,0.238854 0.02869,0.07699 0.05585,0.145668 0.08153,0.206031 0.02564,-0.06036 0.05281,-0.129043 0.0815,-0.206031 0.02866,-0.07698 0.05698,-0.156583 0.08489,-0.238854 0.02794,-0.08227 0.05436,-0.165272 0.07926,-0.24906 0.02491,-0.08378 0.04642,-0.162642 0.06452,-0.236594 l 0.217361,0 z m 0.151682,0.590935 c 0,-0.104156 0.0151,-0.195105 0.0453,-0.272823 0.03018,-0.07774 0.07016,-0.142262 0.119972,-0.193576 0.04983,-0.05132 0.10718,-0.08982 0.172095,-0.115476 0.06489,-0.02567 0.131304,-0.03849 0.19923,-0.03849 0.158483,0 0.279995,0.04942 0.364514,0.148287 0.08454,0.09887 0.126794,0.249431 0.126794,0.451708 0,0.009 0,0.02074 0,0.03508 0,0.01434 -7.53e-4,0.02754 -0.0023,0.03962 l -0.806003,0 c 0.009,0.122265 0.04452,0.215091 0.106404,0.2785 0.06188,0.06338 0.158494,0.09507 0.289797,0.09507 0.07396,0 0.136237,-0.0064 0.186787,-0.01923 0.05057,-0.01285 0.08868,-0.02529 0.114352,-0.03738 l 0.02943,0.176603 c -0.02567,0.0136 -0.07057,0.02795 -0.134709,0.04303 -0.06415,0.0151 -0.13699,0.02264 -0.218485,0.02264 -0.10265,0 -0.191317,-0.01547 -0.266045,-0.04641 -0.07471,-0.03093 -0.136215,-0.07359 -0.184527,-0.127919 -0.04828,-0.05434 -0.08414,-0.118859 -0.107551,-0.193587 -0.02338,-0.0747 -0.03508,-0.156605 -0.03508,-0.245654 z m 0.808296,-0.115464 c 0.0015,-0.0951 -0.02226,-0.173219 -0.07131,-0.234346 -0.04905,-0.06114 -0.116611,-0.09169 -0.202647,-0.09169 -0.04831,0 -0.09095,0.0094 -0.127919,0.02829 -0.03698,0.01887 -0.06831,0.0434 -0.09398,0.07358 -0.02564,0.0302 -0.04564,0.06492 -0.05998,0.104156 -0.01434,0.03925 -0.02379,0.07924 -0.02832,0.120006 l 0.584157,0 z m 0.876213,0.724508 c -0.129819,-0.003 -0.221903,-0.03093 -0.276229,-0.08378 -0.05434,-0.05281 -0.08151,-0.135091 -0.08151,-0.24679 l 0,-1.4127899 0.210561,-0.036229 0,1.4150699 c 0,0.03471 0.003,0.06337 0.0091,0.08604 0.006,0.02264 0.01584,0.04074 0.02943,0.05434 0.01358,0.01357 0.03168,0.02377 0.05434,0.03055 0.02264,0.0068 0.05055,0.01245 0.08377,0.01699 l -0.02943,0.176603 z m 0.47546,-0.02264 -0.210562,0 0,-1.17734 0.210562,0 0,1.17734 z m -0.106428,-1.39017 c -0.03772,0 -0.06979,-0.01245 -0.09621,-0.037353 -0.02643,-0.024898 -0.03962,-0.058497 -0.03962,-0.10075 0,-0.042265 0.0132,-0.075852 0.03962,-0.10075 0.02642,-0.024909 0.05849,-0.037353 0.09621,-0.037353 0.03776,0 0.06983,0.012443 0.09624,0.037353 0.02641,0.024898 0.03962,0.058485 0.03962,0.10075 0,0.042254 -0.01322,0.075852 -0.03962,0.10075 -0.02642,0.024899 -0.05849,0.037353 -0.09624,0.037353 z m 0.742662,1.23847 c 0.08604,0 0.149805,-0.0113 0.191317,-0.03396 0.04149,-0.02264 0.06225,-0.05887 0.06225,-0.108675 0,-0.05132 -0.02037,-0.09208 -0.06113,-0.122265 -0.04076,-0.03018 -0.107922,-0.06414 -0.201501,-0.101874 -0.0453,-0.01812 -0.08868,-0.0366 -0.13019,-0.05547 -0.04151,-0.01887 -0.07737,-0.04114 -0.107551,-0.06679 -0.03018,-0.02567 -0.05433,-0.0566 -0.07246,-0.09283 -0.01811,-0.03624 -0.02717,-0.08076 -0.02717,-0.133596 0,-0.104145 0.0385,-0.186787 0.115464,-0.247925 0.077,-0.0611 0.181908,-0.09168 0.314728,-0.09168 0.03319,0 0.06641,0.0019 0.09962,0.0056 0.03322,0.0038 0.06414,0.0083 0.09283,0.0136 0.02869,0.0053 0.05397,0.01094 0.07585,0.01699 0.02189,0.006 0.03887,0.01131 0.05094,0.01584 l -0.03849,0.181133 c -0.02264,-0.01208 -0.05813,-0.02453 -0.106416,-0.03735 -0.0483,-0.01283 -0.106416,-0.01925 -0.174332,-0.01925 -0.05887,0 -0.110181,0.0117 -0.153964,0.03509 -0.04377,0.0234 -0.06567,0.06 -0.06567,0.10981 0,0.02567 0.0049,0.04831 0.01473,0.06793 0.0098,0.01963 0.0249,0.03735 0.04529,0.05319 0.02037,0.01586 0.04565,0.03059 0.07585,0.04415 0.03018,0.0136 0.06641,0.02795 0.108675,0.04303 0.05584,0.02114 0.105651,0.04188 0.149423,0.06225 0.04378,0.0204 0.08113,0.04415 0.112059,0.07132 0.03096,0.02719 0.05474,0.06001 0.07134,0.0985 0.01659,0.03848 0.0249,0.08567 0.0249,0.141498 0,0.108686 -0.04039,0.190946 -0.121141,0.246801 -0.08075,0.05584 -0.195847,0.08377 -0.345258,0.08377 -0.104156,0 -0.185663,-0.0087 -0.24453,-0.02604 -0.05887,-0.01736 -0.09886,-0.03056 -0.120006,-0.03962 l 0.0385,-0.181133 c 0.02413,0.0091 0.06263,0.02266 0.115464,0.04077 0.05282,0.0181 0.123018,0.02716 0.210572,0.02716 z m 0.93281,-1.02564 0.446031,0 0,0.176603 -0.446031,0 0,0.543398 c 0,0.05887 0.0045,0.107529 0.01359,0.146017 0.009,0.0385 0.02264,0.06868 0.04075,0.09057 0.01812,0.0219 0.04076,0.03735 0.06793,0.04642 0.02717,0.0091 0.05887,0.01357 0.0951,0.01357 0.0634,0 0.114329,-0.0071 0.152817,-0.02149 0.0385,-0.01434 0.0653,-0.02453 0.08038,-0.03058 l 0.04075,0.174332 c -0.02112,0.01058 -0.0581,0.02379 -0.110946,0.03962 -0.05281,0.01586 -0.113194,0.02377 -0.181133,0.02377 -0.07998,0 -0.146017,-0.01018 -0.198084,-0.03055 -0.0521,-0.02039 -0.09398,-0.05094 -0.125682,-0.09171 -0.0317,-0.04074 -0.05396,-0.09094 -0.06678,-0.150558 -0.01283,-0.05961 -0.01926,-0.128684 -0.01926,-0.207177 l 0,-1.0505303 0.210572,-0.03624 0,0.3645363 z m 0.923761,1.17734 -0.210561,0 0,-1.17734 0.210561,0 0,1.17734 z m -0.106427,-1.39017 c -0.03772,0 -0.06979,-0.01245 -0.09622,-0.037353 -0.02642,-0.024898 -0.03961,-0.058497 -0.03961,-0.10075 0,-0.042265 0.0132,-0.075852 0.03961,-0.10075 0.02643,-0.024909 0.0585,-0.037353 0.09622,-0.037353 0.03776,0 0.06983,0.012443 0.09624,0.037353 0.02641,0.024898 0.03962,0.058485 0.03962,0.10075 0,0.042254 -0.01322,0.075852 -0.03962,0.10075 -0.02642,0.024899 -0.05849,0.037353 -0.09624,0.037353 z m 0.980369,1.41734 c -0.09507,0 -0.178469,-0.0151 -0.250184,-0.04528 -0.07169,-0.0302 -0.132056,-0.07246 -0.18111,-0.126795 -0.04905,-0.05434 -0.08565,-0.118882 -0.10981,-0.193587 -0.02416,-0.07471 -0.03623,-0.157347 -0.03623,-0.247914 0,-0.09057 0.0132,-0.17359 0.03961,-0.24906 0.02643,-0.07546 0.06378,-0.140745 0.112081,-0.195824 0.04831,-0.05511 0.107551,-0.09812 0.177727,-0.129066 0.0702,-0.03096 0.14831,-0.04641 0.234346,-0.04641 0.05282,0 0.105651,0.0045 0.158494,0.01359 0.05282,0.009 0.103392,0.02338 0.151682,0.04301 l -0.04755,0.178862 c -0.0317,-0.01508 -0.0683,-0.02717 -0.10981,-0.03623 -0.04151,-0.009 -0.08565,-0.01357 -0.132449,-0.01357 -0.117735,0 -0.20793,0.03697 -0.270552,0.110934 -0.06266,0.07395 -0.09396,0.181875 -0.09396,0.323766 0,0.0634 0.0072,0.121501 0.02149,0.174332 0.01434,0.05284 0.03698,0.09812 0.06794,0.135844 0.03095,0.03775 0.07057,0.0668 0.11887,0.08717 0.04829,0.02038 0.107158,0.03056 0.176603,0.03056 0.05583,0 0.106404,-0.0053 0.151682,-0.01584 0.04529,-0.01057 0.08075,-0.0219 0.106427,-0.03397 l 0.02943,0.176603 c -0.01207,0.0075 -0.02943,0.01471 -0.05207,0.02152 -0.02266,0.0068 -0.04831,0.01282 -0.077,0.0181 -0.02869,0.0053 -0.05924,0.0098 -0.09168,0.0136 -0.03245,0.0038 -0.06378,0.0057 -0.09398,0.0057 z m 0.815097,-0.178873 c 0.08604,0 0.149805,-0.0113 0.191317,-0.03396 0.04149,-0.02264 0.06226,-0.05887 0.06226,-0.108675 0,-0.05133 -0.02038,-0.09208 -0.06114,-0.122265 -0.04076,-0.03018 -0.107921,-0.06414 -0.201501,-0.101874 -0.0453,-0.01812 -0.08868,-0.0366 -0.130189,-0.05547 -0.04151,-0.01887 -0.07736,-0.04114 -0.10754,-0.06679 -0.03018,-0.02567 -0.05434,-0.0566 -0.07247,-0.09283 -0.0181,-0.03624 -0.02717,-0.08076 -0.02717,-0.133596 0,-0.104145 0.0385,-0.186787 0.115476,-0.247925 0.07699,-0.0611 0.181897,-0.09168 0.314717,-0.09168 0.0332,0 0.06642,0.0019 0.09962,0.0056 0.03322,0.0038 0.06414,0.0083 0.09283,0.0136 0.02869,0.0053 0.05397,0.01094 0.07585,0.01699 0.02189,0.006 0.03887,0.01131 0.05094,0.01584 l -0.03849,0.181133 c -0.02264,-0.01208 -0.05813,-0.02453 -0.106404,-0.03735 -0.04831,-0.01283 -0.106427,-0.01925 -0.174343,-0.01925 -0.05887,0 -0.110181,0.0117 -0.153964,0.03509 -0.04377,0.0234 -0.06566,0.06 -0.06566,0.10981 0,0.02567 0.0049,0.04831 0.01471,0.06793 0.0098,0.01963 0.0249,0.03735 0.04529,0.05319 0.02038,0.01586 0.04565,0.03059 0.07585,0.04415 0.03018,0.0136 0.06641,0.02795 0.108675,0.04303 0.05586,0.02114 0.105651,0.04188 0.149434,0.06225 0.04377,0.0204 0.08112,0.04415 0.112059,0.07132 0.03094,0.02719 0.05473,0.06001 0.07133,0.0985 0.01659,0.03848 0.02491,0.08567 0.02491,0.141498 0,0.108686 -0.04039,0.190946 -0.121152,0.246801 -0.08075,0.05584 -0.195847,0.08377 -0.345258,0.08377 -0.104156,0 -0.185663,-0.0087 -0.24453,-0.02604 -0.05887,-0.01736 -0.09886,-0.03056 -0.119994,-0.03962 l 0.03849,-0.181133 c 0.02413,0.0091 0.06263,0.02266 0.115476,0.04077 0.05281,0.0181 0.123007,0.02716 0.210561,0.02716 z m 0.984876,0.02944 c 0,0.04076 -0.01357,0.07622 -0.04074,0.106427 -0.02717,0.03018 -0.06415,0.04527 -0.110934,0.04527 -0.04682,0 -0.0838,-0.01509 -0.110957,-0.04527 -0.02717,-0.0302 -0.04075,-0.06567 -0.04075,-0.106427 0,-0.04074 0.01358,-0.07622 0.04075,-0.106404 0.02716,-0.0302 0.06414,-0.0453 0.110957,-0.0453 0.04678,0 0.08377,0.0151 0.110934,0.0453 0.02717,0.03018 0.04074,0.06567 0.04074,0.106404 z m 0.307928,-1.02111 c 0.04831,-0.01208 0.112463,-0.02491 0.192441,-0.0385 0.08001,-0.01358 0.172073,-0.02037 0.276229,-0.02037 0.09359,0 0.171331,0.0132 0.233211,0.03961 0.06188,0.02643 0.111305,0.0634 0.148287,0.110934 0.03699,0.04756 0.06303,0.104539 0.07811,0.170949 0.0151,0.06641 0.02266,0.139621 0.02266,0.21961 l 0,0.661133 -0.210572,0 0,-0.615833 c 0,-0.07247 -0.0049,-0.134349 -0.01471,-0.185674 -0.0098,-0.05131 -0.02604,-0.09283 -0.04868,-0.124524 -0.02263,-0.03168 -0.05283,-0.05471 -0.09057,-0.06905 -0.03772,-0.01434 -0.08453,-0.02149 -0.140364,-0.02149 -0.02266,0 -0.04604,7.42e-4 -0.0702,0.0022 -0.02416,0.0015 -0.04717,0.0034 -0.06905,0.0057 -0.02189,0.0023 -0.04151,0.0049 -0.05887,0.0079 -0.01735,0.003 -0.02981,0.0053 -0.03735,0.0068 l 0,0.993936 -0.210572,0 0,-1.14337 z m 2.33882,0.554695 c 0,0.09359 -0.01357,0.17812 -0.04074,0.253579 -0.02717,0.07547 -0.0653,0.140385 -0.114352,0.194723 -0.04905,0.05434 -0.10754,0.09622 -0.175456,0.12566 -0.06793,0.02943 -0.14188,0.04414 -0.221891,0.04414 -0.07999,0 -0.153941,-0.01471 -0.221869,-0.04414 -0.06794,-0.02944 -0.126424,-0.07132 -0.175479,-0.12566 -0.04907,-0.05434 -0.08716,-0.119253 -0.114329,-0.194723 -0.02717,-0.07546 -0.04076,-0.159989 -0.04076,-0.253579 0,-0.09208 0.01359,-0.17622 0.04076,-0.252444 0.02717,-0.07622 0.06526,-0.14152 0.114329,-0.195847 0.04906,-0.05434 0.10754,-0.09622 0.175479,-0.12566 0.06793,-0.02943 0.14188,-0.04414 0.221869,-0.04414 0.08001,0 0.153964,0.01472 0.221891,0.04414 0.06792,0.02944 0.126402,0.07132 0.175456,0.12566 0.04905,0.05433 0.08718,0.119624 0.114352,0.195847 0.02717,0.07622 0.04074,0.16036 0.04074,0.252444 z m -0.21961,0 c 0,-0.13282 -0.0298,-0.238101 -0.08942,-0.315841 -0.05963,-0.07772 -0.140767,-0.116589 -0.243406,-0.116589 -0.102639,0 -0.183774,0.03887 -0.243384,0.116589 -0.05962,0.07774 -0.08943,0.183021 -0.08943,0.315841 0,0.132831 0.02981,0.238112 0.08943,0.315852 0.05961,0.07772 0.140745,0.116589 0.243384,0.116589 0.102639,0 0.183774,-0.03887 0.243406,-0.116589 0.05962,-0.07774 0.08942,-0.183021 0.08942,-0.315852 z"
   inkscape:connector-curvature="0"
   style="fill:#630d0d;fill-rule:nonzero"
   inkscape:export-filename="/home/dittaeva/repositories/travelistics/logo/travelistics.png"
   inkscape:export-xdpi="79.912743"
   inkscape:export-ydpi="79.912743" />
   <g
   id="g3959"
   inkscape:export-filename="/home/dittaeva/repositories/travelistics/logo/travelistics.png"
   inkscape:export-xdpi="79.912743"
   inkscape:export-ydpi="79.912743">
    <path
   id="_483339040"
   class="fil4"
   d="m 7.92285,9.87119 0.493422,0 c 0.060711,0 0.110361,0.04965 0.110361,0.110361 l 0,1.34809 c 0,0.06071 -0.04965,0.110361 -0.110361,0.110361 l -0.493422,0 c -0.060711,0 -0.110339,-0.04965 -0.110339,-0.110361 l 0,-1.34809 c 0,-0.060711 0.049628,-0.110361 0.110339,-0.110361 z"
   inkscape:connector-curvature="0"
   style="fill:#cb2026" />
    <path
   id="_483338896"
   class="fil5"
   d="m 7.02551,10.1813 0.493399,0 c 0.060711,0 0.110361,0.04965 0.110361,0.110372 l 0,1.03796 c 0,0.06071 -0.04965,0.110361 -0.110361,0.110361 l -0.493399,0 c -0.060711,0 -0.110361,-0.04965 -0.110361,-0.110361 l 0,-1.03796 c 0,-0.06072 0.04965,-0.110372 0.110361,-0.110372 z"
   inkscape:connector-curvature="0"
   style="fill:#f26722" />
    <path
   id="_483343936"
   class="fil6"
   d="m 6.13775,10.4533 0.493422,0 c 0.060711,0 0.110361,0.04965 0.110361,0.110361 l 0,0.765975 c 0,0.06071 -0.04965,0.110361 -0.110361,0.110361 l -0.493422,0 c -0.060711,0 -0.110339,-0.04965 -0.110339,-0.110361 l 0,-0.765975 c 0,-0.06071 0.049628,-0.110361 0.110339,-0.110361 z"
   inkscape:connector-curvature="0"
   style="fill:#f8981d" />
   </g>
   <g
   id="g3964"
   clip-path="url(#clipPath3991)">
    <path
   id="_483337336"
   class="fil7"
   d="m 10.6713,19.7078 0.357893,0 0,0.141689 -0.357893,0 0,0.436027 c 0,0.04723 0.0036,0.08629 0.01089,0.117184 0.0073,0.03089 0.01816,0.0551 0.03271,0.07266 0.01452,0.01756 0.03269,0.02998 0.05448,0.03724 0.02181,0.0073 0.04723,0.01089 0.07631,0.01089 0.05086,0 0.09174,-0.0057 0.122625,-0.01724 0.03088,-0.01151 0.05239,-0.01969 0.0645,-0.02453 l 0.03271,0.139879 c -0.01696,0.0085 -0.04664,0.01908 -0.08903,0.03179 -0.04239,0.01271 -0.09084,0.01907 -0.145342,0.01907 -0.0642,0 -0.117184,-0.0082 -0.158966,-0.0245 -0.04177,-0.01637 -0.07538,-0.04089 -0.100818,-0.07358 -0.02545,-0.03272 -0.04331,-0.07297 -0.05361,-0.120815 -0.0103,-0.04785 -0.01544,-0.103268 -0.01544,-0.166239 l 0,-0.842951 0.16897,-0.02906 0,0.292483 z m 0.921063,-0.02 c 0.01455,0 0.03119,9.22e-4 0.04995,0.0027 0.01879,0.0018 0.03725,0.0042 0.05542,0.0073 0.01818,0.003 0.03482,0.006 0.04995,0.0091 0.01514,0.003 0.02636,0.0057 0.03362,0.0082 l -0.02906,0.147163 c -0.01333,-0.0049 -0.03544,-0.0106 -0.06633,-0.01727 -0.03088,-0.0067 -0.07055,-0.01 -0.118983,-0.01 -0.03151,0 -0.06268,0.0033 -0.09356,0.01 -0.03089,0.0067 -0.05117,0.0112 -0.06087,0.01362 l 0,0.793908 -0.168948,0 0,-0.904719 c 0.03997,-0.01453 0.08962,-0.02816 0.148973,-0.04087 0.05935,-0.01273 0.125952,-0.0191 0.199826,-0.0191 z m 0.672194,0.842974 c 0.03997,0 0.07539,-9.11e-4 0.106281,-0.0027 0.03088,-0.0018 0.05662,-0.0051 0.07721,-0.01 l 0,-0.281602 c -0.01213,-0.006 -0.03179,-0.0112 -0.05905,-0.01544 -0.02726,-0.0042 -0.06025,-0.0064 -0.09901,-0.0064 -0.02544,0 -0.05238,0.0018 -0.08084,0.0055 -0.02847,0.0036 -0.05452,0.0112 -0.07812,0.02271 -0.02363,0.0115 -0.04331,0.02725 -0.05904,0.04722 -0.01576,0.02 -0.02363,0.04633 -0.02363,0.07905 0,0.06055 0.01938,0.102639 0.05814,0.126244 0.03876,0.02363 0.09144,0.03544 0.158055,0.03544 z m -0.01453,-0.846605 c 0.06781,0 0.125053,0.0088 0.171668,0.02636 0.04664,0.01756 0.08419,0.04239 0.112654,0.07448 0.02844,0.0321 0.04875,0.07024 0.06085,0.114464 0.01212,0.04419 0.01818,0.09294 0.01818,0.146242 l 0,0.590429 c -0.01455,0.0024 -0.03482,0.0057 -0.06088,0.01 -0.02602,0.0042 -0.05538,0.0082 -0.08809,0.01181 -0.03269,0.0036 -0.06813,0.007 -0.106281,0.01 -0.03814,0.003 -0.076,0.0045 -0.113554,0.0045 -0.05328,0 -0.102335,-0.0054 -0.147141,-0.01634 -0.04482,-0.01089 -0.08357,-0.02816 -0.116285,-0.05179 -0.03269,-0.02361 -0.05811,-0.0548 -0.07629,-0.09356 -0.01816,-0.03874 -0.02725,-0.08537 -0.02725,-0.139891 0,-0.05207 0.0106,-0.09687 0.03178,-0.134428 0.02121,-0.03756 0.04997,-0.06782 0.08631,-0.09084 0.03634,-0.02301 0.07873,-0.03996 0.127166,-0.05088 0.04845,-0.01089 0.09932,-0.01634 0.152604,-0.01634 0.01696,0 0.03451,8.99e-4 0.05269,0.0027 0.01816,0.0018 0.03544,0.0042 0.05179,0.0073 0.01634,0.003 0.03057,0.0058 0.04269,0.0082 0.01211,0.0024 0.02059,0.0042 0.02544,0.0055 l 0,-0.04723 c 0,-0.02788 -0.003,-0.05542 -0.0091,-0.08266 -0.006,-0.02726 -0.01695,-0.05148 -0.03271,-0.07266 -0.01572,-0.02121 -0.03724,-0.03817 -0.06448,-0.05089 -0.02725,-0.01271 -0.06269,-0.01908 -0.106292,-0.01908 -0.0557,0 -0.104449,0.0039 -0.146242,0.01181 -0.04177,0.0079 -0.07296,0.01604 -0.09356,0.02453 l -0.01998,-0.139879 c 0.0218,-0.0097 0.05812,-0.01908 0.109001,-0.02816 0.05085,-0.0091 0.105966,-0.01365 0.165317,-0.01365 z m 1.38068,0.02363 c -0.04723,0.176827 -0.102639,0.346382 -0.166216,0.508687 -0.0636,0.162282 -0.125064,0.307624 -0.184415,0.436004 l -0.152593,0 c -0.05935,-0.12838 -0.120815,-0.273722 -0.184392,-0.436004 -0.0636,-0.162304 -0.118983,-0.331859 -0.166239,-0.508687 l 0.181683,0 c 0.01453,0.05935 0.03179,0.122625 0.05179,0.189844 0.01997,0.06723 0.04115,0.133843 0.06357,0.199837 0.02243,0.06602 0.04512,0.129898 0.06813,0.191665 0.02301,0.06177 0.04482,0.116881 0.0654,0.165317 0.02059,-0.04844 0.0424,-0.103549 0.06541,-0.165317 0.02301,-0.06177 0.0457,-0.125649 0.06812,-0.191665 0.02243,-0.06599 0.0436,-0.132607 0.06358,-0.199837 0.02,-0.06722 0.03724,-0.130493 0.05179,-0.189844 l 0.174399,0 z m 0.121737,0.474155 c 0,-0.08355 0.01211,-0.156549 0.03634,-0.218913 0.02422,-0.06236 0.05632,-0.114149 0.09629,-0.155324 0.03995,-0.04119 0.08599,-0.07206 0.138058,-0.09266 0.05207,-0.02059 0.10537,-0.03089 0.159865,-0.03089 0.127166,0 0.224668,0.03967 0.292506,0.119017 0.06781,0.07933 0.101717,0.200141 0.101717,0.362411 0,0.0073 0,0.01666 0,0.02816 0,0.01151 -5.96e-4,0.02211 -0.0018,0.03181 l -0.646745,0 c 0.0073,0.0981 0.03572,0.172578 0.08537,0.223442 0.04965,0.05088 0.127166,0.0763 0.232536,0.0763 0.05935,0 0.109316,-0.0051 0.149872,-0.01543 0.04059,-0.0103 0.07117,-0.02029 0.09176,-0.02999 l 0.02361,0.141712 c -0.02059,0.01091 -0.05662,0.02241 -0.108079,0.03452 -0.05147,0.01212 -0.109923,0.01816 -0.175321,0.01816 -0.08236,0 -0.153503,-0.01241 -0.213472,-0.03724 -0.05995,-0.02483 -0.109282,-0.05905 -0.148051,-0.102639 -0.03876,-0.0436 -0.06753,-0.09539 -0.08629,-0.155335 -0.01876,-0.05995 -0.02816,-0.125649 -0.02816,-0.197117 z m 0.648577,-0.09263 c 0.0012,-0.07631 -0.01787,-0.138991 -0.05725,-0.188046 -0.03935,-0.04905 -0.09356,-0.07358 -0.162585,-0.07358 -0.03876,0 -0.07296,0.0076 -0.102639,0.02272 -0.02968,0.01514 -0.0548,0.03482 -0.07539,0.05905 -0.02059,0.02422 -0.03664,0.05207 -0.04815,0.08357 -0.0115,0.03147 -0.01906,0.06357 -0.0227,0.09629 l 0.468715,0 z m 0.70305,0.581335 c -0.104156,-0.0024 -0.17803,-0.02483 -0.221622,-0.06722 -0.0436,-0.04239 -0.06541,-0.108383 -0.06541,-0.198027 l 0,-1.13364 0.168948,-0.02906 0,1.13546 c 0,0.02785 0.0024,0.05086 0.0073,0.06903 0.0049,0.01818 0.01271,0.03269 0.02363,0.0436 0.01089,0.01089 0.02543,0.01908 0.0436,0.02453 0.01816,0.0055 0.04056,0.01 0.06722,0.01361 l -0.02363,0.141712 z m 0.381521,-0.01816 -0.168948,0 0,-0.944691 0.168948,0 0,0.944691 z m -0.08537,-1.11546 c -0.03029,0 -0.05603,-0.01 -0.07721,-0.02998 -0.02121,-0.01997 -0.03179,-0.04693 -0.03179,-0.08084 0,-0.0339 0.01058,-0.06085 0.03179,-0.08084 0.02118,-0.01998 0.04692,-0.02999 0.07721,-0.02999 0.03027,0 0.056,0.01001 0.07721,0.02999 0.02118,0.02 0.03179,0.04694 0.03179,0.08084 0,0.03391 -0.01061,0.06087 -0.03179,0.08084 -0.02121,0.01999 -0.04694,0.02998 -0.07721,0.02998 z m 0.595881,0.993745 c 0.06903,0 0.120197,-0.0091 0.153503,-0.02726 0.03331,-0.01816 0.04995,-0.04723 0.04995,-0.08721 0,-0.04117 -0.01634,-0.07389 -0.04905,-0.09811 -0.03269,-0.02421 -0.08659,-0.05147 -0.161686,-0.08174 -0.03632,-0.01455 -0.07114,-0.02937 -0.104449,-0.0445 -0.0333,-0.01515 -0.06207,-0.03302 -0.08629,-0.05361 -0.02422,-0.02059 -0.0436,-0.04541 -0.05814,-0.07449 -0.01455,-0.02906 -0.02181,-0.06478 -0.02181,-0.107169 0,-0.08357 0.03089,-0.149872 0.09266,-0.198927 0.06178,-0.04907 0.145938,-0.07359 0.252522,-0.07359 0.02664,0 0.0533,0.0015 0.07993,0.0046 0.02664,0.003 0.05148,0.0066 0.07449,0.01089 0.02301,0.0042 0.04329,0.0088 0.06087,0.01365 0.01756,0.0048 0.03117,0.0091 0.04087,0.01271 l -0.03089,0.14532 c -0.01816,-0.0097 -0.04663,-0.01967 -0.0854,-0.02997 -0.03876,-0.0103 -0.08537,-0.01544 -0.139879,-0.01544 -0.04723,0 -0.08842,0.0094 -0.123547,0.02816 -0.0351,0.01877 -0.05269,0.04813 -0.05269,0.0881 0,0.02059 0.0039,0.03876 0.01181,0.05452 0.0079,0.01575 0.02,0.02996 0.03634,0.04269 0.01634,0.01271 0.03662,0.02451 0.06087,0.03542 0.02422,0.01089 0.05328,0.02241 0.08721,0.03452 0.04481,0.01695 0.08478,0.03361 0.119882,0.04995 0.03514,0.01634 0.06512,0.03544 0.08994,0.05724 0.02483,0.0218 0.04391,0.04813 0.05724,0.07902 0.01331,0.03088 0.01997,0.06874 0.01997,0.113554 0,0.08719 -0.03241,0.153188 -0.09719,0.198005 -0.06481,0.04481 -0.157156,0.06722 -0.27705,0.06722 -0.08357,0 -0.148973,-0.007 -0.196218,-0.0209 -0.04723,-0.01393 -0.07932,-0.02453 -0.09629,-0.03179 l 0.03088,-0.145342 c 0.01939,0.0073 0.05027,0.01818 0.09266,0.03271 0.04239,0.01452 0.09871,0.02181 0.16897,0.02181 z m 0.748485,-0.822977 0.357893,0 0,0.141689 -0.357893,0 0,0.436027 c 0,0.04723 0.0036,0.08629 0.01089,0.117184 0.0073,0.03089 0.01816,0.0551 0.03271,0.07266 0.01452,0.01756 0.03269,0.02998 0.05448,0.03724 0.02181,0.0073 0.04723,0.01089 0.07631,0.01089 0.05086,0 0.09173,-0.0057 0.122625,-0.01724 0.03088,-0.01151 0.05239,-0.01969 0.0645,-0.02453 l 0.03271,0.139879 c -0.01696,0.0085 -0.04664,0.01908 -0.08903,0.03179 -0.0424,0.01271 -0.09084,0.01908 -0.145342,0.01908 -0.0642,0 -0.117184,-0.0082 -0.158966,-0.02451 -0.04177,-0.01637 -0.07538,-0.04089 -0.100818,-0.07358 -0.02545,-0.03272 -0.04331,-0.07297 -0.05361,-0.120815 -0.0103,-0.04785 -0.01544,-0.103268 -0.01544,-0.166239 l 0,-0.842951 0.16897,-0.02906 0,0.292483 z m 0.741201,0.944691 -0.168936,0 0,-0.944691 0.168936,0 0,0.944691 z m -0.08537,-1.11546 c -0.03028,0 -0.05602,-0.01 -0.07721,-0.02998 -0.0212,-0.01997 -0.03179,-0.04693 -0.03179,-0.08084 0,-0.0339 0.01059,-0.06085 0.03179,-0.08084 0.02119,-0.01997 0.04693,-0.02999 0.07721,-0.02999 0.03027,0 0.05601,0.01002 0.07721,0.02999 0.02119,0.02 0.03179,0.04694 0.03179,0.08084 0,0.03391 -0.0106,0.06087 -0.03179,0.08084 -0.0212,0.01999 -0.04694,0.02998 -0.07721,0.02998 z m 0.786635,1.13726 c -0.07631,0 -0.143207,-0.01212 -0.200759,-0.03634 -0.05752,-0.02421 -0.105966,-0.05811 -0.14532,-0.101717 -0.03938,-0.0436 -0.06874,-0.09539 -0.08812,-0.155324 -0.01939,-0.05997 -0.02907,-0.126278 -0.02907,-0.198949 0,-0.07266 0.01061,-0.139272 0.03179,-0.199837 0.02121,-0.06057 0.05117,-0.112935 0.08992,-0.157134 0.03877,-0.04421 0.08631,-0.07873 0.142622,-0.103561 0.05632,-0.02482 0.118983,-0.03725 0.188012,-0.03725 0.04239,0 0.08479,0.0036 0.127177,0.01092 0.04239,0.0073 0.08298,0.01876 0.121737,0.03452 l -0.03817,0.14351 c -0.02543,-0.01212 -0.0548,-0.02179 -0.08809,-0.02906 -0.03331,-0.0073 -0.06873,-0.01092 -0.106281,-0.01092 -0.09448,0 -0.166834,0.02968 -0.217092,0.08903 -0.05027,0.05935 -0.07539,0.145938 -0.07539,0.259784 0,0.05087 0.0057,0.09751 0.01724,0.139902 0.01151,0.04239 0.02968,0.07871 0.05452,0.109001 0.02481,0.03027 0.05662,0.05358 0.09535,0.06993 0.03877,0.01634 0.08599,0.02453 0.141712,0.02453 0.04482,0 0.08539,-0.0042 0.121714,-0.01271 0.03634,-0.0085 0.06481,-0.01755 0.08541,-0.02725 l 0.02359,0.141712 c -0.0097,0.006 -0.02359,0.0118 -0.04177,0.01724 -0.01816,0.0055 -0.03876,0.0103 -0.06177,0.01453 -0.02301,0.0042 -0.04754,0.0079 -0.07358,0.01092 -0.02603,0.003 -0.05117,0.0045 -0.07539,0.0045 z m 0.654029,-0.14351 c 0.06903,0 0.120197,-0.0091 0.153503,-0.02726 0.03331,-0.01817 0.04995,-0.04723 0.04995,-0.08721 0,-0.04118 -0.01634,-0.07389 -0.04905,-0.09811 -0.03269,-0.02421 -0.08659,-0.05147 -0.161686,-0.08174 -0.03632,-0.01455 -0.07114,-0.02937 -0.104449,-0.0445 -0.03331,-0.01515 -0.06208,-0.03302 -0.08629,-0.05361 -0.02422,-0.02059 -0.0436,-0.04541 -0.05815,-0.07449 -0.01453,-0.02906 -0.0218,-0.06478 -0.0218,-0.107169 0,-0.08357 0.03089,-0.149872 0.09266,-0.198927 0.06177,-0.04907 0.145938,-0.07359 0.252511,-0.07359 0.02664,0 0.0533,0.0015 0.07994,0.0046 0.02664,0.003 0.05147,0.0066 0.07448,0.01089 0.02301,0.0042 0.0433,0.0088 0.06088,0.01365 0.01755,0.0048 0.03117,0.0091 0.04087,0.01271 l -0.03089,0.14532 c -0.01818,-0.0097 -0.04664,-0.01967 -0.0854,-0.02997 -0.03876,-0.0103 -0.08537,-0.01544 -0.139891,-0.01544 -0.04722,0 -0.08841,0.0094 -0.123535,0.02816 -0.03512,0.01877 -0.05269,0.04813 -0.05269,0.0881 0,0.02059 0.0039,0.03876 0.01181,0.05452 0.0079,0.01575 0.02,0.02996 0.03634,0.04269 0.01634,0.01271 0.03662,0.02451 0.06087,0.03542 0.02421,0.01089 0.05328,0.02241 0.08719,0.03452 0.04482,0.01695 0.08479,0.03361 0.119893,0.04995 0.03513,0.01634 0.06512,0.03544 0.08993,0.05724 0.02484,0.0218 0.04391,0.04813 0.05724,0.07902 0.01331,0.03088 0.01997,0.06874 0.01997,0.113554 0,0.08719 -0.0324,0.153188 -0.09719,0.198005 -0.0648,0.04481 -0.157156,0.06722 -0.277038,0.06722 -0.08357,0 -0.148973,-0.007 -0.196229,-0.0209 -0.04723,-0.01393 -0.07933,-0.02453 -0.09629,-0.03179 l 0.03089,-0.145342 c 0.01938,0.0073 0.05027,0.01818 0.09266,0.03271 0.04239,0.01452 0.09871,0.02181 0.16897,0.02181 z m 0.790255,0.02361 c 0,0.03271 -0.01089,0.06117 -0.03269,0.08539 -0.0218,0.02421 -0.05147,0.03634 -0.08903,0.03634 -0.03756,0 -0.06723,-0.01213 -0.08903,-0.03634 -0.0218,-0.02422 -0.03269,-0.05268 -0.03269,-0.08539 0,-0.0327 0.01089,-0.06116 0.03269,-0.08538 0.0218,-0.02421 0.05147,-0.03634 0.08903,-0.03634 0.03755,0 0.06723,0.01213 0.08903,0.03634 0.0218,0.02422 0.03269,0.05269 0.03269,0.08538 z m 0.247082,-0.819323 c 0.03876,-0.0097 0.09024,-0.02 0.154425,-0.03089 0.0642,-0.0109 0.13807,-0.01637 0.221633,-0.01637 0.07508,0 0.137474,0.01061 0.187113,0.03181 0.04965,0.02119 0.08934,0.05086 0.118994,0.089 0.02968,0.03817 0.05057,0.08388 0.06269,0.137159 0.01211,0.0533 0.01815,0.112036 0.01815,0.176232 l 0,0.530482 -0.168948,0 0,-0.494141 c 0,-0.05815 -0.0039,-0.107798 -0.01181,-0.148973 -0.0079,-0.04119 -0.02087,-0.07449 -0.03904,-0.09992 -0.01818,-0.02543 -0.0424,-0.04391 -0.07268,-0.05542 -0.03027,-0.0115 -0.06783,-0.01727 -0.112632,-0.01727 -0.01818,0 -0.03694,6.18e-4 -0.05632,0.0018 -0.01938,0.0012 -0.03786,0.0027 -0.05542,0.0045 -0.01756,0.0018 -0.03331,0.0039 -0.04723,0.0064 -0.01392,0.0025 -0.02393,0.0042 -0.02998,0.0055 l 0,0.797539 -0.168948,0 0,-0.917432 z m 1.87666,0.445087 c 0,0.07508 -0.01088,0.142926 -0.03269,0.203457 -0.0218,0.06057 -0.05237,0.112654 -0.09175,0.156257 -0.03937,0.0436 -0.08631,0.07721 -0.14079,0.100818 -0.05452,0.02363 -0.113846,0.03544 -0.17803,0.03544 -0.0642,0 -0.123547,-0.01181 -0.178053,-0.03544 -0.05449,-0.02361 -0.101436,-0.05722 -0.14079,-0.100818 -0.03935,-0.0436 -0.06995,-0.09569 -0.09176,-0.156257 -0.0218,-0.06053 -0.03269,-0.12838 -0.03269,-0.203457 0,-0.0739 0.01089,-0.141408 0.03269,-0.202557 0.02181,-0.06118 0.0524,-0.113554 0.09176,-0.157156 0.03935,-0.0436 0.08629,-0.07721 0.14079,-0.100818 0.05451,-0.02363 0.113857,-0.03544 0.178053,-0.03544 0.06418,0 0.123513,0.01181 0.17803,0.03544 0.05448,0.0236 0.101425,0.05721 0.14079,0.100818 0.03938,0.0436 0.06995,0.09597 0.09175,0.157156 0.02181,0.06115 0.03269,0.128661 0.03269,0.202557 z m -0.176198,0 c 0,-0.106584 -0.02394,-0.191058 -0.07178,-0.253444 -0.04783,-0.06236 -0.112935,-0.09356 -0.195273,-0.09356 -0.08236,0 -0.147478,0.03119 -0.195307,0.09356 -0.04784,0.06239 -0.07175,0.14686 -0.07175,0.253444 0,0.106584 0.02391,0.191058 0.07175,0.253444 0.04783,0.06236 0.112947,0.09356 0.195307,0.09356 0.08234,0 0.147444,-0.03119 0.195273,-0.09356 0.04784,-0.06239 0.07178,-0.14686 0.07178,-0.253444 z"
   inkscape:connector-curvature="0"
   style="fill:#ffffff;fill-rule:nonzero" />
    <g
   id="g3967">
     <path
   id="_483339904"
   class="fil8"
   d="m 9.27263,19.4173 0.395897,0 c 0.048706,0 0.088566,0.03984 0.088566,0.08857 l 0,1.081689 c 0,0.04873 -0.03986,0.08854 -0.088566,0.08854 l -0.395897,0 c -0.048751,0 -0.088565,-0.03982 -0.088565,-0.08854 l 0,-1.08169 c 0,-0.04873 0.039815,-0.08856 0.088565,-0.08856 z"
   inkscape:connector-curvature="0"
   style="fill:#ffcd05" />
     <path
   id="_483340984"
   class="fil8"
   d="m 8.55259,19.6662 0.395897,0 c 0.048706,0 0.088565,0.03984 0.088565,0.08857 l 0,0.832846 c 0,0.04873 -0.03986,0.08856 -0.088565,0.08856 l -0.395897,0 c -0.048751,0 -0.088565,-0.03984 -0.088565,-0.08856 l 0,-0.832846 c 0,-0.04873 0.039815,-0.08857 0.088565,-0.08857 z"
   inkscape:connector-curvature="0"
   style="fill:#ffcd05" />
     <path
   id="_483339304"
   class="fil8"
   d="m 7.84024,19.8844 0.395909,0 c 0.048717,0 0.088566,0.03984 0.088566,0.08856 l 0,0.614609 c 0,0.04873 -0.039848,0.08856 -0.088566,0.08856 l -0.395909,0 c -0.048717,0 -0.088554,-0.03984 -0.088554,-0.08856 l 0,-0.614609 c 0,-0.04873 0.039837,-0.08856 0.088554,-0.08856 z"
   inkscape:connector-curvature="0"
   style="fill:#ffcd05" />
    </g>
   </g>
   
  </g>
 </g>
</svg>