<?xml version="1.0" encoding="UTF-8"?>
<!DOCTYPE svg PUBLIC "-//W3C//DTD SVG 1.1//EN" "http://www.w3.org/Graphics/SVG/1.1/DTD/svg11.dtd">
<!-- Creator: CorelDRAW -->
<svg xmlns="http://www.w3.org/2000/svg" xml:space="preserve" width="262.5mm" height="210mm" style="shape-rendering:geometricPrecision; text-rendering:geometricPrecision; image-rendering:optimizeQuality; fill-rule:evenodd; clip-rule:evenodd"
viewBox="0 0 22.9944 18.3955"
 xmlns:xlink="http://www.w3.org/1999/xlink">
 <defs>
  <style type="text/css">
   <![CDATA[
    .fil4 {fill:#630D0D}
    .fil2 {fill:#C11F25}
    .fil5 {fill:#CB2026}
    .fil6 {fill:#F26722}
    .fil7 {fill:#F8981D}
    .fil1 {fill:#F9F9F9}
    .fil10 {fill:#FFCD05}
    .fil9 {fill:white}
    .fil0 {fill:#2B2A29;fill-rule:nonzero}
    .fil3 {fill:#630D0D;fill-rule:nonzero}
    .fil8 {fill:white;fill-rule:nonzero}
   ]]>
  </style>
  <clipPath id="id0" style="clip-rule:nonzero">
   <path d="M144.15 -7.86857l0.721227 0.386604 -0.0938171 -5.45361 -0.721227 -0.386612 0.0938171 5.45362z"/>
  </clipPath>
  <clipPath id="id1" style="clip-rule:nonzero">
   <path d="M156.592 9.86153l12.4808 0 0 -24.4791 -12.4808 0 -8.75977e-006 24.4791z"/>
  </clipPath>
  <clipPath id="id2" style="clip-rule:nonzero">
   <rect x="159.646" y="-6.27643" width="4.35246" height="6.98255"/>
  </clipPath>
  <clipPath id="id3" style="clip-rule:nonzero">
   <path d="M154.058 8.84915l2.96664 0 0 -2.96664 -2.96664 0 0 2.96664z"/>
  </clipPath>
  <clipPath id="id4" style="clip-rule:nonzero">
   <rect x="136.961" y="-12.9477" width="5.03956" height="5.03956"/>
  </clipPath>
  <clipPath id="id5" style="clip-rule:nonzero">
   <path d="M132.35 9.0401l5.24028 0 0 -5.32762 -5.24028 0 0 5.32762z"/>
  </clipPath>
  <clipPath id="id6" style="clip-rule:nonzero">
   <path d="M138.292 9.0401l6.29742 0 0 -5.32762 -6.29742 0 0 5.32762z"/>
  </clipPath>
  <clipPath id="id7" style="clip-rule:nonzero">
   <path d="M145.074 9.0401l5.58841 0 0 -5.32762 -5.58841 0 0 5.32762z"/>
  </clipPath>
  <clipPath id="id8" style="clip-rule:nonzero">
   <rect x="150.038" y="-6.47789" width="6.58633" height="8.49083"/>
  </clipPath>
  <clipPath id="id9" style="clip-rule:nonzero">
   <rect x="132.813" y="-12.9477" width="4.52441" height="4.605"/>
  </clipPath>
  <clipPath id="id10" style="clip-rule:nonzero">
   <rect x="141.137" y="-6.47789" width="8.49083" height="8.49083"/>
  </clipPath>
  <clipPath id="id11" style="clip-rule:nonzero">
   <path d="M157.233 0.793074c0,0 -0.260778,0.512464 -0.731362,0.54477l0 0 -0.315676 0.458127 -0.0666706 0.0763589c0,0 0.284316,0.361227 0.250976,0.885437l0 0c0,0 -0.150975,0.9706 0.568623,1.36412l0 0c0,0 0.796061,0.502189 0.939196,0.71951l0 0c0,0 0.086275,-0.162993 0.850959,-0.687204l0 0c0,0 0.764693,-0.295143 0.709795,-1.29952l0 0c0,0 -0.0764728,-0.566792 0.205881,-0.948569l0 0 -0.358818 -0.568264c0,0 -0.513717,-0.0866429 -0.698031,-0.54477l0 0c0,0 -0.286269,-0.0734244 -0.68822,-0.0734244l0 0c-0.199994,0 -0.429404,0.0176247 -0.666653,0.0734244l0 0z"/>
  </clipPath>
  <clipPath id="id12" style="clip-rule:nonzero">
   <path d="M141.684 -7.65817l1.99964 0 0 -5.28953 -1.99964 0 0 5.28953z"/>
  </clipPath>
  <clipPath id="id13" style="clip-rule:nonzero">
   <path d="M145.056 -8.15821l6.94609 0 0 -4.83156 -6.94609 0 0 4.83156z"/>
  </clipPath>
  <clipPath id="id14" style="clip-rule:nonzero">
   <path d="M131.251 2.01293l9.53516 0 0 -8.51512 -9.53516 0 0 8.51512z"/>
  </clipPath>
  <clipPath id="id15" style="clip-rule:nonzero">
   <rect x="152.016" y="-14.6146" width="8.96172" height="14.4624"/>
  </clipPath>
  <clipPath id="id16" style="clip-rule:nonzero">
   <rect x="151.145" y="0.555685" width="3.75281" height="4.44996"/>
  </clipPath>
 </defs>
<symbol id="Fm1-7-0" viewBox="131.25 -14.6176 37.8247 24.4791">
 <g style="clip-path:url(#id0)">
  <image transform="matrix(72.8023 -135.815 120.196 64.43 -10595.3 17183.1)" x="131.25" y="9.82934" width="0.0309045" height="0.0309045" xlink:href="Travelistics_logo_2_Images\Travelistics_logo_2_ImgID1.png"/>
 </g>
 <polygon class="fil0" points="131.25,2.26076 169.075,2.26076 169.075,-6.72576 131.25,-6.72576 "/>
 <g style="clip-path:url(#id1)">
  <image transform="matrix(-3.04981E-005 817.82 -545.895 -3.04981E-005 5539.25 -107354)" x="131.25" y="9.82934" width="0.0309045" height="0.0309045" xlink:href="Travelistics_logo_2_Images\Travelistics_logo_2_ImgID2.png"/>
 </g>
 <g style="clip-path:url(#id2)">
  <image transform="matrix(140.836 0 0 225.94 -18325.1 -2227.12)" x="131.25" y="9.82934" width="0.0309045" height="0.0309045" xlink:href="Travelistics_logo_2_Images\Travelistics_logo_2_ImgID3.png"/>
 </g>
 <g style="clip-path:url(#id3)">
  <image transform="matrix(95.994 0 0 95.994 -12445.1 -937.674)" x="131.25" y="9.82934" width="0.0309045" height="0.0309045" xlink:href="Travelistics_logo_2_Images\Travelistics_logo_2_ImgID4.png"/>
 </g>
 <g style="clip-path:url(#id4)">
  <image transform="matrix(163.069 0 0 163.069 -21265.8 -1615.81)" x="131.25" y="9.82934" width="0.0309045" height="0.0309045" xlink:href="Travelistics_logo_2_Images\Travelistics_logo_2_ImgID5.png"/>
 </g>
 <g style="clip-path:url(#id5)">
  <image transform="matrix(1 0 0 1 1.1 -0.820142)" x="131.25" y="4.53112" width="5.24176" height="5.32912" xlink:href="Travelistics_logo_2_Images\Travelistics_logo_2_ImgID6.png"/>
 </g>
 <g style="clip-path:url(#id6)">
  <image transform="matrix(203.771 0 0 172.39 -26606.6 -1690.77)" x="131.25" y="9.82934" width="0.0309045" height="0.0309045" xlink:href="Travelistics_logo_2_Images\Travelistics_logo_2_ImgID7.png"/>
 </g>
 <g style="clip-path:url(#id7)">
  <image transform="matrix(1 0 0 1 13.824 -0.820142)" x="131.25" y="4.53112" width="5.58998" height="5.32912" xlink:href="Travelistics_logo_2_Images\Travelistics_logo_2_ImgID8.png"/>
 </g>
 <g style="clip-path:url(#id8)">
  <image transform="matrix(213.119 0 0 274.744 -27821.8 -2707.03)" x="131.25" y="9.82934" width="0.0309045" height="0.0309045" xlink:href="Travelistics_logo_2_Images\Travelistics_logo_2_ImgID9.png"/>
 </g>
 <g style="clip-path:url(#id9)">
  <image transform="matrix(146.4 0 0 149.008 -19082.2 -1477.59)" x="131.25" y="9.82934" width="0.0309045" height="0.0309045" xlink:href="Travelistics_logo_2_Images\Travelistics_logo_2_ImgID10.png"/>
 </g>
 <g style="clip-path:url(#id10)">
  <image transform="matrix(274.744 0 0 274.744 -35919.1 -2707.03)" x="131.25" y="9.82934" width="0.0309045" height="0.0309045" xlink:href="Travelistics_logo_2_Images\Travelistics_logo_2_ImgID11.png"/>
 </g>
 <g style="clip-path:url(#id11)">
  <image transform="matrix(223.836 0 0 167.628 -29224.1 -1647.72)" x="131.25" y="9.82934" width="0.0309045" height="0.0309045" xlink:href="Travelistics_logo_2_Images\Travelistics_logo_2_ImgID12.png"/>
 </g>
 <g style="clip-path:url(#id12)">
  <image transform="matrix(176.821 0 0 176.821 -23067.9 -1750.98)" x="131.25" y="9.82934" width="0.0309045" height="0.0309045" xlink:href="Travelistics_logo_2_Images\Travelistics_logo_2_ImgID13.png"/>
 </g>
 <g style="clip-path:url(#id13)">
  <image transform="matrix(224.76 0 0 224.76 -29354.7 -2223.18)" x="131.25" y="9.82934" width="0.0309045" height="0.0309045" xlink:href="Travelistics_logo_2_Images\Travelistics_logo_2_ImgID14.png"/>
 </g>
 <g style="clip-path:url(#id14)">
  <image transform="matrix(452.042 0 0 275.531 -59203.7 -2714.78)" x="131.25" y="9.82934" width="0.0309045" height="0.0309045" xlink:href="Travelistics_logo_2_Images\Travelistics_logo_2_ImgID15.png"/>
 </g>
 <g style="clip-path:url(#id15)">
  <image transform="matrix(1 0 0 1 20.7665 -10.0124)" x="131.25" y="-4.60623" width="8.96426" height="14.4665" xlink:href="Travelistics_logo_2_Images\Travelistics_logo_2_ImgID16.png"/>
 </g>
 <g style="clip-path:url(#id16)">
  <image transform="matrix(121.432 0 0 143.991 -15786.9 -1414.78)" x="131.25" y="9.82934" width="0.0309045" height="0.0309045" xlink:href="Travelistics_logo_2_Images\Travelistics_logo_2_ImgID17.png"/>
 </g>
</symbol>
 <g id="Layer_x0020_1">
  <metadata id="CorelCorpID_0Corel-Layer"/>
  <g id="_483348616">
   <rect id="_483343864" class="fil1" width="22.9944" height="18.3955"/>
   <rect id="_483341368" class="fil2" y="12.7129" width="22.9944" height="5.68264"/>
   <path id="_483348472" class="fil3" d="M7.58718 7.97466l0.347588 0 0 0.137625 -0.347588 0 0 0.423465c0,0.0458749 0.00353019,0.0837959 0.0105906,0.113789 0.00705161,0.0300022 0.0176422,0.0535222 0.0317542,0.0705774 0.0141207,0.017064 0.0317629,0.0291087 0.0529353,0.0361778 0.0211724,0.00706037 0.0458749,0.010573 0.0741076,0.010573 0.0494051,0 0.0890956,-0.00557121 0.119089,-0.0167487 0.0300022,-0.0111775 0.0508855,-0.0191138 0.0626411,-0.0238266l0.0317542 0.135855c-0.0164596,0.00824294 -0.0452792,0.0185357 -0.0864589,0.0308782 -0.0411534,0.01236 -0.0882109,0.0185269 -0.141155,0.0185269 -0.0623257,0 -0.113789,-0.00793635 -0.154365,-0.023809 -0.0406015,-0.0158902 -0.0732404,-0.0396993 -0.097943,-0.0714709 -0.0247025,-0.0317454 -0.0420469,-0.0708665 -0.0520418,-0.117328 -0.00999489,-0.046453 -0.0150055,-0.100282 -0.0150055,-0.161451l0 -0.81867 0.164097 -0.0282415 0 0.284079zm0.894547 -0.0194029c0.014112,0 0.0302913,0.000867217 0.0485204,0.00263669 0.0182378,0.00176947 0.0361691,0.00411709 0.0538288,0.00706037 0.0176334,0.00295204 0.0338039,0.00588656 0.0485116,0.00882985 0.0147077,0.00293452 0.0255785,0.00557121 0.0326389,0.00793635l-0.0282327 0.142907c-0.0129294,-0.00469524 -0.0344084,-0.010284 -0.0643931,-0.0167487 -0.0299934,-0.00648223 -0.0685189,-0.00970582 -0.115576,-0.00970582 -0.0305803,0 -0.0608716,0.00322359 -0.0908563,0.00970582 -0.0300022,0.00646471 -0.0496942,0.0108709 -0.0591109,0.013236l0 0.771035 -0.164088 0 0 -0.878675c0.0388145,-0.014112 0.0870371,-0.027348 0.144685,-0.0396905 0.0576393,-0.01236 0.12233,-0.0185269 0.194073,-0.0185269zm0.652822 0.81867c0.0388321,0 0.0732317,-0.000867217 0.103216,-0.00263669 0.0300022,-0.00176947 0.0549938,-0.00500183 0.0750011,-0.00970582l0 -0.27348c-0.0117731,-0.0058778 -0.0308869,-0.0108796 -0.0573414,-0.0149967 -0.026472,-0.00411709 -0.058524,-0.00617564 -0.0961735,-0.00617564 -0.0247025,0 -0.0508592,0.00175195 -0.0785138,0.00528214 -0.0276371,0.00353019 -0.0529353,0.0108884 -0.0758771,0.0220659 -0.0229331,0.0111775 -0.0420469,0.0264633 -0.0573414,0.0458749 -0.0152946,0.0194029 -0.0229331,0.0449814 -0.0229331,0.0767443 0,0.0588218 0.018816,0.0996862 0.0564655,0.122628 0.0376495,0.0229331 0.0887978,0.0343996 0.153497,0.0343996zm-0.014112 -0.822201c0.0658647,0 0.121445,0.00853201 0.166733,0.0255698 0.0452968,0.017064 0.0817549,0.0411797 0.109392,0.0723469 0.0276546,0.0311848 0.0473465,0.0682298 0.0591109,0.111153 0.0117556,0.0429404 0.0176509,0.0902957 0.0176509,0.142048l0 0.573432c-0.0141207,0.00234762 -0.0338215,0.00558873 -0.0591022,0.00969706 -0.025307,0.00411709 -0.0538288,0.00793635 -0.0855829,0.0114753 -0.0317629,0.00353019 -0.0661713,0.00675378 -0.103216,0.00969706 -0.0370626,0.00293452 -0.0738186,0.00440616 -0.110277,0.00440616 -0.0517527,0 -0.0993971,-0.0052909 -0.142924,-0.0158727 -0.0435098,-0.0105906 -0.0811505,-0.0273392 -0.112922,-0.0502811 -0.0317454,-0.0229331 -0.0564479,-0.0532243 -0.0740901,-0.0908738 -0.0176597,-0.0376495 -0.0264633,-0.08292 -0.0264633,-0.135855 0,-0.0505877 0.010284,-0.0940974 0.0308694,-0.130564 0.0205855,-0.0364582 0.0485116,-0.0658822 0.0838135,-0.0882284 0.0352756,-0.0223374 0.0764553,-0.0388145 0.123495,-0.0493963 0.0470575,-0.0105906 0.0964626,-0.0158902 0.148215,-0.0158902 0.0164596,0 0.0335149,0.000893496 0.0511746,0.00266297 0.0176422,0.00176071 0.0344084,0.00410833 0.0502811,0.00704285 0.0158727,0.00295204 0.0296956,0.00558873 0.0414687,0.00795387 0.0117644,0.00234762 0.0199898,0.00411709 0.0247025,0.00528214l0 -0.0458749c0,-0.0270502 -0.00295204,-0.0538113 -0.00882985,-0.0802833 -0.0058778,-0.0264633 -0.0164684,-0.0499832 -0.0317629,-0.0705774 -0.0152946,-0.0205679 -0.0361691,-0.0370451 -0.0626236,-0.0493876 -0.026472,-0.01236 -0.0608716,-0.0185357 -0.103216,-0.0185357 -0.0541178,0 -0.101473,0.00382802 -0.142048,0.0114753 -0.0405752,0.00764728 -0.0708665,0.0155836 -0.0908563,0.023809l-0.0194029 -0.135855c0.0211724,-0.00941675 0.0564479,-0.0185181 0.105853,-0.027348 0.0494051,-0.00882985 0.102927,-0.0132272 0.160558,-0.0132272zm1.34095 0.0229331c-0.0458749,0.171735 -0.0997037,0.33641 -0.161451,0.494025 -0.0617476,0.157632 -0.121437,0.298787 -0.179093,0.423465l-0.148198 0c-0.0576305,-0.124678 -0.117328,-0.265833 -0.179093,-0.423465 -0.0617476,-0.157615 -0.115559,-0.322289 -0.161434,-0.494025l0.176439 0c0.0141032,0.0576305 0.0308694,0.119089 0.0502811,0.184376 0.0194204,0.0652953 0.0399883,0.129977 0.0617651,0.19409 0.0217505,0.0641127 0.0438164,0.126149 0.0661538,0.186136 0.0223549,0.0599956 0.0435273,0.113518 0.0635258,0.160558 0.0199898,-0.04704 0.0411621,-0.100562 0.0635171,-0.160558 0.0223374,-0.0599869 0.0444033,-0.122024 0.0661538,-0.186136 0.0217768,-0.0641127 0.0423622,-0.128795 0.0617651,-0.19409 0.0194116,-0.0652865 0.0361778,-0.126745 0.0502811,-0.184376l0.169388 0zm0.118204 0.46051c0,-0.081168 0.0117556,-0.152043 0.0352931,-0.212608 0.02352,-0.0605826 0.0546872,-0.110864 0.0935018,-0.150852 0.0388233,-0.0399971 0.0835156,-0.0699993 0.134103,-0.0899891 0.0505789,-0.0200073 0.102332,-0.0299934 0.155267,-0.0299934 0.123495,0 0.218197,0.0385167 0.284062,0.115559 0.0658735,0.0770509 0.0988102,0.194379 0.0988102,0.352011 0,0.00704285 0,0.0161618 0,0.0273392 0,0.0111775 -0.000586904,0.0214614 -0.00176947,0.0308782l-0.62811 0c0.00704285,0.09528 0.0346974,0.167618 0.08292,0.217032 0.0482225,0.0493876 0.123513,0.0740901 0.225836,0.0740901 0.0576393,0 0.106168,-0.00499307 0.145561,-0.014988 0.0394102,-0.0100124 0.0691058,-0.0197095 0.0891131,-0.0291262l0.0229331 0.137625c-0.0200073,0.0105993 -0.0549938,0.0217768 -0.104986,0.0335324 -0.0499832,0.0117644 -0.106747,0.0176422 -0.170264,0.0176422 -0.0799854,0 -0.149091,-0.0120534 -0.207326,-0.0361691 -0.0582174,-0.0241069 -0.106142,-0.0573502 -0.143792,-0.0996862 -0.037632,-0.0423447 -0.0655669,-0.0926258 -0.0838135,-0.150861 -0.0182203,-0.0582174 -0.0273392,-0.122041 -0.0273392,-0.191436zm0.629897 -0.0899803c0.00116505,-0.0741076 -0.0173443,-0.134988 -0.0555807,-0.182624 -0.0382276,-0.0476444 -0.0908738,-0.0714534 -0.157912,-0.0714534 -0.0376495,0 -0.0708753,0.00734945 -0.0996862,0.0220483 -0.0288196,0.0147077 -0.0532331,0.0338215 -0.0732404,0.0573414 -0.0199898,0.0235375 -0.0355734,0.0505877 -0.0467509,0.081168 -0.0111775,0.0305891 -0.0185269,0.0617476 -0.0220571,0.0935193l0.455228 0zm0.682824 0.564602c-0.101167,-0.00234762 -0.172927,-0.0241069 -0.215271,-0.0652865 -0.042336,-0.0411534 -0.0635083,-0.105275 -0.0635083,-0.192321l0 -1.10097 0.164088 -0.0282327 0 1.10275c0,0.0270502 0.00234762,0.0493876 0.00706037,0.0670473 0.004704,0.0176422 0.0123425,0.0317454 0.0229418,0.0423447 0.010573,0.010573 0.024685,0.0185269 0.0423447,0.023809 0.0176334,0.00529966 0.0393927,0.00970582 0.0652778,0.013236l-0.0229331 0.137625zm0.370521 -0.0176422l-0.164088 0 0 -0.917489 0.164088 0 0 0.917489zm-0.0829375 -1.08335c-0.0293978,0 -0.0543894,-0.00970582 -0.0749836,-0.0291087 -0.0205855,-0.0194029 -0.0308694,-0.0455858 -0.0308694,-0.0785138 0,-0.0329367 0.010284,-0.0591109 0.0308694,-0.0785138 0.0205942,-0.0194116 0.0455858,-0.0291087 0.0749836,-0.0291087 0.0294153,0 0.0544157,0.00969706 0.0750011,0.0291087 0.0205767,0.0194029 0.0308782,0.0455771 0.0308782,0.0785138 0,0.032928 -0.0103015,0.0591109 -0.0308782,0.0785138 -0.0205855,0.0194029 -0.0455858,0.0291087 -0.0750011,0.0291087zm0.578749 0.965125c0.0670473,0 0.116741,-0.00880357 0.149091,-0.0264633 0.0323323,-0.0176422 0.0485116,-0.0458749 0.0485116,-0.0846894 0,-0.0399971 -0.0158727,-0.07176 -0.0476356,-0.09528 -0.0317717,-0.02352 -0.0841025,-0.0499832 -0.157036,-0.0793898 -0.0352931,-0.0141207 -0.069097,-0.0285218 -0.101447,-0.0432295 -0.0323498,-0.0147077 -0.0602935,-0.0320607 -0.0838135,-0.0520505 -0.02352,-0.0200073 -0.0423447,-0.0441054 -0.0564655,-0.0723382 -0.014112,-0.0282415 -0.0211724,-0.0629389 -0.0211724,-0.10411 0,-0.0811592 0.0300022,-0.145561 0.0899803,-0.193205 0.0600044,-0.0476181 0.141759,-0.0714447 0.245265,-0.0714447 0.0258676,0 0.0517527,0.00147164 0.0776203,0.0043974 0.0258851,0.00295204 0.049992,0.00648223 0.0723469,0.0105993 0.0223549,0.00411709 0.0420469,0.00852325 0.0591109,0.013236 0.0170553,0.00469524 0.0302913,0.00881233 0.0396993,0.0123425l-0.0300022 0.141155c-0.0176334,-0.00941675 -0.045288,-0.0191138 -0.08292,-0.0291087 -0.0376407,-0.00999489 -0.0829375,-0.0150055 -0.135855,-0.0150055 -0.0458749,0 -0.085872,0.00911892 -0.119983,0.027348 -0.0341105,0.0182378 -0.0511746,0.0467596 -0.0511746,0.0855742 0,0.0200073 0.00382802,0.0376495 0.0114753,0.0529353 0.00763852,0.0152946 0.0194029,0.0291087 0.0352931,0.0414512 0.0158727,0.01236 0.0355734,0.0238353 0.0591109,0.0344084 0.02352,0.0105993 0.0517527,0.0217768 0.0846807,0.0335324 0.0435273,0.0164771 0.0823418,0.0326389 0.116452,0.0485116 0.0341193,0.015899 0.063228,0.0344084 0.0873261,0.0555807 0.0241244,0.0211899 0.0426513,0.0467684 0.0555982,0.0767618 0.0129207,0.0299847 0.0194029,0.0667582 0.0194029,0.110268 0,0.0846982 -0.0314738,0.148802 -0.094404,0.192329 -0.0629302,0.0435185 -0.152621,0.0652778 -0.269056,0.0652778 -0.0811768,0 -0.144685,-0.00675378 -0.19056,-0.0202964 -0.0458749,-0.0135251 -0.0770422,-0.0238178 -0.0935193,-0.0308782l0.0300022 -0.141155c0.0188072,0.00706037 0.0488094,0.0176597 0.0899803,0.0317717 0.0411621,0.0141032 0.0958669,0.0211636 0.164097,0.0211636zm0.726929 -0.799267l0.347588 0 0 0.137625 -0.347588 0 0 0.423465c0,0.0458749 0.00353019,0.0837959 0.0105906,0.113789 0.00704285,0.0300022 0.0176422,0.0535222 0.0317454,0.0705774 0.0141295,0.017064 0.0317717,0.0291087 0.052944,0.0361778 0.0211724,0.00706037 0.0458749,0.010573 0.0741076,0.010573 0.0494051,0 0.0890868,-0.00557121 0.119089,-0.0167487 0.0300022,-0.0111775 0.0508767,-0.0191138 0.0626411,-0.0238266l0.0317454 0.135855c-0.0164508,0.00824294 -0.0452705,0.0185357 -0.0864501,0.0308782 -0.0411621,0.01236 -0.0882196,0.0185269 -0.141155,0.0185269 -0.0623257,0 -0.113789,-0.00793635 -0.154373,-0.023809 -0.0405928,-0.0158902 -0.0732317,-0.0396993 -0.0979342,-0.0714709 -0.0247025,-0.0317454 -0.0420556,-0.0708665 -0.0520418,-0.117328 -0.00999489,-0.046453 -0.0150055,-0.100282 -0.0150055,-0.161451l0 -0.81867 0.164097 -0.0282415 0 0.284079zm0.719878 0.917489l-0.164088 0 0 -0.917489 0.164088 0 0 0.917489zm-0.0829375 -1.08335c-0.0293978,0 -0.0543894,-0.00970582 -0.0749836,-0.0291087 -0.0205855,-0.0194029 -0.0308694,-0.0455858 -0.0308694,-0.0785138 0,-0.0329367 0.010284,-0.0591109 0.0308694,-0.0785138 0.0205942,-0.0194116 0.0455858,-0.0291087 0.0749836,-0.0291087 0.0294153,0 0.0544157,0.00969706 0.0750011,0.0291087 0.0205679,0.0194029 0.0308782,0.0455771 0.0308782,0.0785138 0,0.032928 -0.0103102,0.0591109 -0.0308782,0.0785138 -0.0205855,0.0194029 -0.0455858,0.0291087 -0.0750011,0.0291087zm0.763992 1.10452c-0.0740901,0 -0.139079,-0.0117644 -0.194966,-0.0352843 -0.0558698,-0.0235375 -0.10291,-0.0564655 -0.141137,-0.0988102 -0.0382276,-0.0423447 -0.0667582,-0.0926433 -0.0855742,-0.150861 -0.0188247,-0.0582174 -0.0282415,-0.122619 -0.0282415,-0.193197 0,-0.0705774 0.0102927,-0.135277 0.0308782,-0.19409 0.0205855,-0.0588043 0.0496942,-0.109681 0.0873436,-0.152604 0.0376495,-0.0429491 0.0838135,-0.076464 0.138501,-0.10058 0.054696,-0.0241244 0.115576,-0.0361691 0.182624,-0.0361691 0.0411534,0 0.0823331,0.00353019 0.123513,0.0105906 0.0411621,0.00704285 0.0805723,0.0182203 0.118196,0.0335149l-0.0370451 0.139385c-0.0247025,-0.0117556 -0.0532243,-0.0211724 -0.0855742,-0.0282327 -0.0323498,-0.00704285 -0.0667582,-0.010573 -0.103216,-0.010573 -0.0917498,0 -0.162038,0.0288109 -0.210839,0.0864501 -0.0488269,0.0576305 -0.0732229,0.141733 -0.0732229,0.252308 0,0.0494051 0.00558873,0.0946843 0.0167487,0.135855 0.0111775,0.0411797 0.0288196,0.076464 0.0529353,0.105862 0.0241244,0.0294153 0.0549938,0.0520593 0.0926433,0.067932 0.037632,0.0158815 0.0835069,0.0238178 0.137625,0.0238178 0.0435098,0 0.08292,-0.00411709 0.118196,-0.0123425 0.0353019,-0.00823418 0.0629389,-0.017064 0.0829375,-0.026472l0.0229418 0.137625c-0.00940799,0.0058778 -0.0229418,0.0114665 -0.0405752,0.0167662 -0.0176597,0.00529966 -0.0376495,0.00999489 -0.0600044,0.0141032 -0.0223549,0.00411709 -0.046164,0.00764728 -0.0714534,0.0105993 -0.0252807,0.00293452 -0.0496942,0.00440616 -0.0732317,0.00440616zm0.635197 -0.139394c0.0670473,0 0.116741,-0.00880357 0.149091,-0.0264633 0.0323323,-0.0176422 0.0485116,-0.0458749 0.0485116,-0.0846894 0,-0.0399971 -0.0158727,-0.07176 -0.0476356,-0.09528 -0.0317629,-0.02352 -0.0841025,-0.0499832 -0.157028,-0.0793898 -0.0353019,-0.0141207 -0.0691058,-0.0285218 -0.101456,-0.0432295 -0.0323498,-0.0147077 -0.0602935,-0.0320607 -0.0838135,-0.0520505 -0.02352,-0.0200073 -0.042336,-0.0441054 -0.0564655,-0.0723382 -0.014112,-0.0282415 -0.0211724,-0.0629389 -0.0211724,-0.10411 0,-0.0811592 0.0300022,-0.145561 0.0899803,-0.193205 0.0600044,-0.0476181 0.141759,-0.0714447 0.245265,-0.0714447 0.0258676,0 0.0517527,0.00147164 0.0776291,0.0043974 0.0258851,0.00295204 0.0499832,0.00648223 0.0723382,0.0105993 0.0223549,0.00411709 0.0420556,0.00852325 0.0591109,0.013236 0.0170553,0.00469524 0.0302913,0.00881233 0.0396993,0.0123425l-0.0299934 0.141155c-0.0176422,-0.00941675 -0.0452968,-0.0191138 -0.08292,-0.0291087 -0.0376495,-0.00999489 -0.0829375,-0.0150055 -0.135864,-0.0150055 -0.0458749,0 -0.0858632,0.00911892 -0.119983,0.027348 -0.0341105,0.0182378 -0.0511658,0.0467596 -0.0511658,0.0855742 0,0.0200073 0.00381926,0.0376495 0.0114665,0.0529353 0.00764728,0.0152946 0.0194029,0.0291087 0.0352931,0.0414512 0.0158727,0.01236 0.0355734,0.0238353 0.0591109,0.0344084 0.02352,0.0105993 0.0517527,0.0217768 0.0846894,0.0335324 0.0435185,0.0164771 0.0823331,0.0326389 0.116452,0.0485116 0.0341105,0.015899 0.0632192,0.0344084 0.0873174,0.0555807 0.0241244,0.0211899 0.0426601,0.0467684 0.0555982,0.0767618 0.0129294,0.0299847 0.0194029,0.0667582 0.0194029,0.110268 0,0.0846982 -0.0314738,0.148802 -0.094404,0.192329 -0.0629302,0.0435185 -0.152621,0.0652778 -0.269056,0.0652778 -0.081168,0 -0.144685,-0.00675378 -0.19056,-0.0202964 -0.0458749,-0.0135251 -0.0770422,-0.0238178 -0.0935193,-0.0308782l0.0300022 -0.141155c0.0188072,0.00706037 0.0488094,0.0176597 0.0899891,0.0317717 0.0411534,0.0141032 0.0958581,0.0211636 0.164088,0.0211636zm0.767505 0.0229418c0,0.0317629 -0.010573,0.0594 -0.0317454,0.0829375 -0.0211724,0.02352 -0.049992,0.0352756 -0.0864501,0.0352756 -0.0364844,0 -0.0653041,-0.0117556 -0.0864764,-0.0352756 -0.0211724,-0.0235375 -0.0317454,-0.0511746 -0.0317454,-0.0829375 0,-0.0317454 0.010573,-0.0594 0.0317454,-0.08292 0.0211724,-0.0235375 0.049992,-0.0353019 0.0864764,-0.0353019 0.0364582,0 0.0652778,0.0117644 0.0864501,0.0353019 0.0211724,0.02352 0.0317454,0.0511746 0.0317454,0.08292zm0.239965 -0.795737c0.0376495,-0.00941675 0.0876327,-0.0194116 0.149967,-0.0300022 0.062352,-0.0105818 0.134095,-0.0158727 0.215263,-0.0158727 0.0729251,0 0.133508,0.010284 0.18173,0.0308694 0.0482225,0.0205942 0.086748,0.0494051 0.115568,0.0864501 0.0288284,0.0370626 0.0491073,0.0814658 0.0608716,0.133219 0.0117556,0.0517527 0.0176597,0.108805 0.0176597,0.17114l0 0.515214 -0.164097 0 0 -0.479913c0,-0.0564742 -0.00381926,-0.104697 -0.0114665,-0.144694 -0.00764728,-0.0399883 -0.0202964,-0.0723382 -0.0379386,-0.0970407 -0.0176422,-0.024685 -0.0411797,-0.0426338 -0.0705774,-0.0538113 -0.0293978,-0.0111775 -0.0658822,-0.0167487 -0.109392,-0.0167487 -0.0176509,0 -0.03588,0.000578145 -0.054696,0.00174319 -0.0188247,0.00118257 -0.036756,0.00266297 -0.0538113,0.00442368 -0.017064,0.00176947 -0.0323498,0.00382802 -0.0458749,0.00617564 -0.0135251,0.00234762 -0.0232309,0.00411709 -0.0291087,0.00529966l0 0.774565 -0.164097 0 0 -0.891017zm1.82262 0.432268c0,0.0729338 -0.010573,0.138807 -0.0317454,0.197612 -0.0211724,0.0588131 -0.0508855,0.109401 -0.0891131,0.151745 -0.0382276,0.0423447 -0.0838135,0.0749836 -0.136731,0.0979254 -0.0529353,0.0229331 -0.110575,0.0343996 -0.172918,0.0343996 -0.0623345,0 -0.119965,-0.0114665 -0.172909,-0.0343996 -0.0529353,-0.0229418 -0.0985123,-0.0555807 -0.136749,-0.0979254 -0.0382276,-0.0423447 -0.0679145,-0.0929324 -0.0890868,-0.151745 -0.0211724,-0.0588043 -0.0317629,-0.124678 -0.0317629,-0.197612 0,-0.07176 0.0105906,-0.137327 0.0317629,-0.196727 0.0211724,-0.0594 0.0508592,-0.110285 0.0890868,-0.152621 0.0382364,-0.0423447 0.0838135,-0.0749836 0.136749,-0.0979254 0.052944,-0.0229331 0.110575,-0.0343996 0.172909,-0.0343996 0.0623433,0 0.119983,0.0114665 0.172918,0.0343996 0.0529178,0.0229418 0.0985036,0.0555807 0.136731,0.0979254 0.0382276,0.042336 0.0679408,0.0932214 0.0891131,0.152621 0.0211724,0.0594 0.0317454,0.124967 0.0317454,0.196727zm-0.17114 0c0,-0.103505 -0.0232221,-0.185549 -0.069684,-0.246132 -0.0464706,-0.060565 -0.109699,-0.0908563 -0.189684,-0.0908563 -0.0799942,0 -0.143213,0.0302913 -0.189675,0.0908563 -0.046453,0.0605826 -0.069684,0.142627 -0.069684,0.246132 0,0.103514 0.0232309,0.185558 0.069684,0.246141 0.0464618,0.060565 0.109681,0.0908563 0.189675,0.0908563 0.0799854,0 0.143213,-0.0302913 0.189684,-0.0908563 0.0464618,-0.0605826 0.069684,-0.142627 0.069684,-0.246141z"/>
   <g>
    <path id="_483344896" class="fil4" d="M5.45635 7.19377c0.054074,-0.00211986 0.0638324,-0.027129 0.0929849,-0.0717775l0.189973 -0.279472 -0.108192 0.638499c-0.00558873,0.0310797 -0.130599,0.270528 -0.149065,0.306504 -0.0653128,0.127227 0.0438164,0.179181 0.108052,0.154408 0.0385079,-0.0148478 0.0534784,-0.0518929 0.0706475,-0.0865991l0.152008 -0.30413c0.026472,-0.0548799 0.0490459,-0.211636 0.0664604,-0.241708 0.0386131,0.016407 0.218223,0.0922491 0.224846,0.116049 0.0108008,0.0388671 0.0212162,0.0807388 0.0318067,0.120534 0.0160567,0.0603198 0.0422484,0.197883 0.0765253,0.231074 0.0608804,0.0589532 0.164789,0.0117731 0.158473,-0.0767794 -0.00445872,-0.0281276 -0.0612045,-0.239658 -0.0729338,-0.284517 -0.0193065,-0.0738273 -0.0136127,-0.0833667 -0.0523571,-0.122987 -0.0439215,-0.0449026 -0.270563,-0.155197 -0.272096,-0.160899 -0.00425725,-0.0158026 0.036502,-0.239124 0.0399445,-0.279524l0.0236251 0.0361516c0.00779619,0.0132097 0.0142784,0.0240631 0.0215315,0.0363706 0.0213563,0.0362216 0.0213563,0.0363443 0.054512,0.055169 0.0458661,0.026034 0.0903395,0.0539952 0.135514,0.0797752 0.0379999,0.0216892 0.110023,0.0815272 0.148355,0.0121848 0.0157501,-0.0284868 0.00675378,-0.0606877 -0.0150668,-0.0786364 -0.0247201,-0.0203314 -0.188046,-0.107579 -0.204593,-0.122435 -0.0194467,-0.0174407 -0.131484,-0.231135 -0.171113,-0.279191 -0.0332521,-0.04033 -0.08412,-0.0583313 -0.160864,-0.0528564 -0.037483,0.00267173 -0.0634996,0.026034 -0.105739,0.0807738l-0.215473 0.313538c-0.0240894,0.0355209 -0.0467334,0.0682736 -0.0712695,0.104986 -0.0443419,0.0663728 -0.0573152,0.0686153 -0.0415388,0.122041 0.00507191,0.0171691 -0.0169764,0.0400146 -0.026472,0.0540302 -0.0304227,0.0459537 -0.149363,0.237372 -0.183578,0.27758l-0.121016 -0.0781371c-0.0892796,-0.059181 -0.0965852,0.0225476 -0.117705,0.0330944l-0.0726973 0.00707789c-0.00956567,0.00826922 -0.0294416,0.042336 -0.0394715,0.0567896 -0.0261567,0.0376758 -0.0507015,0.0739324 -0.0756756,0.112528 -0.0253595,0.0391824 -0.0516388,0.07515 -0.0774801,0.114753 -0.0206993,0.0317279 -0.066329,0.0863976 -0.0117468,0.122759l0.0423535 0.0996336c0.00324111,0.00396817 0.0864239,0.0558961 0.097102,0.0661187 0.0149704,-0.0641565 0.104828,-0.0967692 0.157869,-0.0244485l0.23612 -0.35011c0.0426951,-0.0643843 0.064761,-0.0743003 0.0243522,-0.12968l0.21309 -0.328535zm-0.603592 0.872079c0.00688518,0.0275144 0.0390861,0.0499745 0.0733455,0.040987 0.0279437,-0.00733193 0.0505088,-0.037194 0.0418454,-0.0731791 -0.0174057,-0.0722593 -0.135776,-0.0501059 -0.115191,0.0321921zm0.927493 -1.66635c0.0383415,0.179426 0.317261,0.119702 0.272779,-0.0633419 -0.0163808,-0.0673889 -0.0839098,-0.122637 -0.166164,-0.103952 -0.0691496,0.015715 -0.124205,0.084996 -0.106615,0.167294z"/>
    <path id="_483342952" class="fil5" d="M6.11969 7.84665l0.384519 0c0.0473115,0 0.0860034,0.0386919 0.0860034,0.0860034l0 0.896422c0,0.0473115 -0.0386919,0.0860034 -0.0860034,0.0860034l-0.384519 0c-0.0473115,0 -0.0859859,-0.0386919 -0.0859859,-0.0860034l0 -0.896422c0,-0.0473115 0.0386744,-0.0860034 0.0859859,-0.0860034z"/>
    <path id="_483351016" class="fil6" d="M5.4204 7.9865l0.384501 0c0.0473115,0 0.0860034,0.0386919 0.0860034,0.0860122l0 0.756546c0,0.0473115 -0.0386919,0.0860034 -0.0860034,0.0860034l-0.384501 0c-0.0473115,0 -0.0860034,-0.0386919 -0.0860034,-0.0860034l0 -0.756546c0,-0.0473203 0.0386919,-0.0860122 0.0860034,-0.0860122z"/>
    <path id="_483349432" class="fil7" d="M4.72858 8.14614l0.384519 0c0.0473115,0 0.0860034,0.0386919 0.0860034,0.0860034l0 0.596917c0,0.0473115 -0.0386919,0.0860034 -0.0860034,0.0860034l-0.384519 0c-0.0473115,0 -0.0859859,-0.0386919 -0.0859859,-0.0860034l0 -0.596917c0,-0.0473115 0.0386744,-0.0860034 0.0859859,-0.0860034z"/>
   </g>
   <g>
    <path id="_483339016" class="fil8" d="M8.35995 15.8774l0.278893 0 0 0.110434 -0.278893 0 0 0.339756c0,0.0368173 0.0028294,0.0672487 0.00849697,0.0913206 0.00565881,0.0240631 0.0141645,0.0429404 0.0254822,0.0566231 0.0113264,0.0136915 0.0254909,0.0233623 0.0424761,0.0290211 0.0169852,0.00567633 0.0368085,0.00849697 0.0594525,0.00849697 0.0396292,0 0.0714885,-0.004485 0.0955515,-0.013455 0.0240718,-0.00896124 0.0408205,-0.0153208 0.0502635,-0.0191138l0.0254734 0.109015c-0.013201,0.00659611 -0.0363268,0.0148566 -0.0693598,0.0247726 -0.0330331,0.0099073 -0.0707789,0.0148566 -0.113264,0.0148566 -0.0500008,0 -0.0913031,-0.00635959 -0.123872,-0.0190963 -0.0325513,-0.0127542 -0.0587518,-0.031868 -0.0785664,-0.0573414 -0.0198146,-0.0254909 -0.0337339,-0.0568597 -0.0417578,-0.09415 -0.00802395,-0.0372641 -0.0120359,-0.0804497 -0.0120359,-0.129531l0 -0.656877 0.131659 -0.0226528 0 0.22792zm0.717758 -0.0155661c0.0113264,0 0.0243084,0.000700781 0.0389284,0.00211986 0.0146376,0.00141032 0.0290211,0.00331119 0.0431857,0.00565881 0.0141558,0.00236514 0.0271378,0.00471276 0.0389284,0.00707789 0.0117906,0.0023739 0.0205417,0.00449376 0.0261917,0.00637711l-0.022644 0.114674c-0.0103891,-0.00377546 -0.0276195,-0.00826046 -0.0516826,-0.013455 -0.0240718,-0.00517702 -0.0549763,-0.00778743 -0.0927309,-0.00778743 -0.0245273,0 -0.0488357,0.00261041 -0.0729075,0.00778743 -0.0240631,0.00519454 -0.0398745,0.00874225 -0.0474166,0.0106256l0 0.61865 -0.131659 0 0 -0.705012c0.0311322,-0.0113176 0.0698416,-0.0219432 0.116076,-0.0318593 0.0462516,-0.0099073 0.098162,-0.0148566 0.155731,-0.0148566zm0.523817 0.656877c0.0311497,0 0.0587518,-0.000700781 0.0828148,-0.00211986 0.0240718,-0.00141032 0.044123,-0.00401197 0.0601708,-0.00778743l0 -0.219432c-0.00944303,-0.00473027 -0.0247726,-0.00874225 -0.0460063,-0.0120272 -0.0212424,-0.00331119 -0.0469611,-0.00495803 -0.0771648,-0.00495803 -0.0198146,0 -0.0408118,0.00141032 -0.0630002,0.00423097 -0.0221797,0.00284692 -0.0424586,0.00875101 -0.0608716,0.0177123 -0.0183955,0.00897 -0.0337426,0.0212249 -0.0460151,0.0368085 -0.0122549,0.0155661 -0.0183955,0.036099 -0.0183955,0.0615724 0,0.0471976 0.0151018,0.0799942 0.0452968,0.0984072 0.0302037,0.0183868 0.0712607,0.0275933 0.123171,0.0275933zm-0.0113351 -0.659707c0.0528564,0 0.0974612,0.00684138 0.133788,0.0205154 0.0363443,0.0137003 0.0656019,0.0330418 0.0877729,0.058051 0.0221797,0.0250091 0.0379824,0.0547398 0.0474341,0.089192 0.00942551,0.0344434 0.0141558,0.0724258 0.0141558,0.113965l0 0.460098c-0.0113264,0.00189211 -0.0271378,0.00447624 -0.0474341,0.00778743 -0.0202789,0.00331119 -0.0431857,0.00637711 -0.0686591,0.00920652 -0.0254734,0.0028294 -0.053093,0.00541354 -0.0828148,0.00777867 -0.0297219,0.00236514 -0.0592248,0.00353019 -0.0884737,0.00353019 -0.0415388,0 -0.0797664,-0.00423097 -0.114683,-0.0127367 -0.0349252,-0.00847946 -0.0651114,-0.0219432 -0.0906023,-0.0403387 -0.0254734,-0.0184043 -0.0452968,-0.0427126 -0.0594525,-0.0729075 -0.0141645,-0.0302037 -0.0212424,-0.066548 -0.0212424,-0.109007 0,-0.0405928 0.00826046,-0.075518 0.0247726,-0.104767 0.0165297,-0.0292576 0.0389284,-0.0528477 0.0672487,-0.0707789 0.0283028,-0.0179312 0.0613447,-0.0311497 0.099108,-0.0396555 0.0377458,-0.00847946 0.0773838,-0.0127367 0.118905,-0.0127367 0.0132097,0 0.02691,0.000709541 0.041057,0.00212862 0.0141558,0.00141908 0.0276108,0.00331119 0.0403475,0.00565881 0.0127367,0.00236514 0.0238353,0.00449376 0.0332784,0.00637711 0.00942551,0.00188335 0.0160479,0.00331119 0.0198146,0.00424849l0 -0.0367998c0,-0.0217242 -0.00236514,-0.0431857 -0.00707789,-0.0644281 -0.00471276,-0.0212424 -0.0132185,-0.040111 -0.0254909,-0.0566231 -0.0122549,-0.0165209 -0.0290211,-0.0297219 -0.050246,-0.0396467 -0.0212424,-0.00991606 -0.0488445,-0.0148653 -0.0828148,-0.0148653 -0.0434222,0 -0.0814133,0.00306592 -0.113973,0.00920652 -0.0325688,0.00613184 -0.0568597,0.0125089 -0.0729075,0.0191138l-0.0155836 -0.109015c0.0169939,-0.00754216 0.0453143,-0.0148653 0.0849435,-0.0219432 0.0396555,-0.00707789 0.0825958,-0.0106081 0.12883,-0.0106081zm1.07594 0.0183955c-0.0368085,0.137791 -0.0799942,0.269932 -0.129531,0.396397 -0.0495628,0.126474 -0.0974612,0.23972 -0.143695,0.339765l-0.118923 0c-0.0462516,-0.100045 -0.09415,-0.213292 -0.143686,-0.339765 -0.0495628,-0.126465 -0.0927484,-0.258606 -0.129548,-0.396397l0.141584 0c0.0113089,0.0462516 0.0247639,0.0955691 0.04033,0.147944 0.0155836,0.0523834 0.0320958,0.104294 0.0495452,0.155722 0.017467,0.0514461 0.0351617,0.101228 0.053093,0.149372 0.0179312,0.0481174 0.0349164,0.0910578 0.0509643,0.128821 0.0160479,-0.0377634 0.0330331,-0.0807037 0.0509643,-0.128821 0.0179312,-0.0481437 0.0356435,-0.0979254 0.053093,-0.149372 0.017467,-0.0514286 0.0339791,-0.103339 0.0495452,-0.155722 0.0155836,-0.0523747 0.0290211,-0.101692 0.0403562,-0.147944l0.135908 0zm0.0948508 0.369496c0,-0.0651289 0.00942551,-0.121989 0.0283028,-0.170588 0.0188773,-0.0485992 0.0438864,-0.0889554 0.0750362,-0.121051 0.0311497,-0.0320695 0.0670122,-0.0561414 0.107587,-0.0721892 0.0405928,-0.0160391 0.0821141,-0.0240631 0.12459,-0.0240631 0.0990905,0 0.175064,0.0309045 0.22792,0.0927221 0.0528477,0.0618177 0.0792847,0.155968 0.0792847,0.282432 0,0.00565881 0,0.0129732 0,0.0219432 0,0.00896124 -0.000481787,0.0172305 -0.00141908,0.0247726l-0.503984 0c0.00565005,0.0764553 0.0278385,0.134497 0.0665304,0.174135 0.0387094,0.0396379 0.0990993,0.0594525 0.181213,0.0594525 0.0462516,0 0.0851887,-0.00401197 0.116794,-0.0120359 0.031614,-0.00802395 0.0554406,-0.0158026 0.0714885,-0.0233448l0.018413 0.110417c-0.0160479,0.00849697 -0.0441317,0.017467 -0.0842427,0.0268925 -0.0400935,0.00945179 -0.0856442,0.0141645 -0.136609,0.0141645 -0.0641828,0 -0.119623,-0.00967078 -0.166339,-0.0290211 -0.0467158,-0.0193591 -0.08518,-0.0460151 -0.115392,-0.0799942 -0.0301862,-0.0339791 -0.0526112,-0.0743091 -0.0672312,-0.121042 -0.0146376,-0.0467158 -0.0219432,-0.0979254 -0.0219432,-0.153603zm0.505386 -0.0721892c0.000963574,-0.0594701 -0.0139193,-0.108306 -0.0445872,-0.146533 -0.0306679,-0.0382189 -0.0729075,-0.0573327 -0.126701,-0.0573327 -0.0302037,0 -0.0568597,0.00590408 -0.0799854,0.0176947 -0.0231258,0.0117906 -0.0427039,0.0271378 -0.0587518,0.0460151 -0.0160479,0.0188685 -0.0285393,0.0405752 -0.0375093,0.0651201 -0.00896124,0.0245361 -0.0148828,0.0495452 -0.0177123,0.0750362l0.365247 0zm0.547871 0.45302c-0.0811505,-0.00188335 -0.138737,-0.0193591 -0.172708,-0.0523922 -0.0339791,-0.0330331 -0.0509731,-0.0844617 -0.0509731,-0.154303l0 -0.883388 0.131677 -0.0226615 0 0.884815c0,0.0216979 0.00188335,0.0396292 0.00565881,0.0537937 0.0037667,0.0141558 0.0099073,0.0254909 0.0183955,0.0339704 0.00849697,0.00850573 0.0198321,0.0148653 0.0339791,0.0191138 0.0141558,0.00425725 0.0316228,0.00778743 0.0523834,0.0106168l-0.018413 0.110434zm0.297315 -0.0141645l-0.131659 0 0 -0.736162 0.131659 0 0 0.736162zm-0.066548 -0.869232c-0.0235901,0 -0.0436499,-0.00779619 -0.0601621,-0.0233623 -0.0165209,-0.0155661 -0.0247814,-0.0365633 -0.0247814,-0.0630002 0,-0.0264195 0.00826046,-0.0474166 0.0247814,-0.0630002 0.0165122,-0.0155661 0.036572,-0.0233448 0.0601621,-0.0233448 0.0235988,0 0.0436587,0.00777867 0.0601708,0.0233448 0.0165209,0.0155836 0.0247726,0.0365808 0.0247726,0.0630002 0,0.026437 -0.0082517,0.0474341 -0.0247726,0.0630002 -0.0165122,0.0155661 -0.036572,0.0233623 -0.0601708,0.0233623zm0.464347 0.774381c0.0537937,0 0.0936682,-0.00707789 0.119623,-0.0212337 0.0259552,-0.0141645 0.0389284,-0.0368085 0.0389284,-0.0679583 0,-0.0320958 -0.0127367,-0.0575692 -0.0382276,-0.0764377 -0.0254734,-0.0188773 -0.0674765,-0.0401197 -0.125983,-0.0637098 -0.0283203,-0.0113264 -0.0554581,-0.0228805 -0.0814133,-0.0346887 -0.0259552,-0.0117994 -0.0483539,-0.0257187 -0.0672312,-0.0417666 -0.0188948,-0.0160479 -0.0339791,-0.0353807 -0.0453055,-0.0580422 -0.0113351,-0.022644 -0.0169939,-0.0504913 -0.0169939,-0.0835244 0,-0.0651201 0.0240718,-0.116794 0.0722068,-0.155022 0.0481174,-0.0382101 0.113728,-0.0573239 0.196788,-0.0573239 0.0207606,0 0.0415125,0.00118257 0.0622732,0.00353019 0.0207606,0.00236514 0.0401197,0.00519454 0.058051,0.00850573 0.0179312,0.00328491 0.0337339,0.00684138 0.0474166,0.0106081 0.0137003,0.00377546 0.0243084,0.00707789 0.031868,0.0099073l-0.0240718 0.113264c-0.0141558,-0.00755968 -0.0363443,-0.0153384 -0.066548,-0.0233623 -0.0301862,-0.00802395 -0.0665304,-0.0120359 -0.108989,-0.0120359 -0.0368261,0 -0.0689043,0.00732317 -0.0962786,0.0219432 -0.0273743,0.0146376 -0.041057,0.0375268 -0.041057,0.0686591 0,0.0160391 0.00306592,0.0302037 0.00920652,0.0424761 0.0061406,0.0122724 0.0155661,0.0233711 0.0283028,0.0332784 0.0127542,0.0099073 0.0285568,0.0190963 0.0474341,0.0275933 0.0188773,0.00848821 0.0415213,0.0174582 0.0679583,0.0269012 0.0349164,0.0132185 0.0660662,0.0261917 0.0934229,0.0389284 0.027383,0.0127367 0.0507453,0.027602 0.0700781,0.044596 0.0193591,0.0169852 0.0342244,0.0375181 0.044596,0.0615899 0.0103891,0.0240718 0.0155836,0.0535572 0.0155836,0.0884737 0,0.0679583 -0.0252544,0.119387 -0.075737,0.154303 -0.0505088,0.0349252 -0.12247,0.0523922 -0.215902,0.0523922 -0.0651289,0 -0.116093,-0.00543982 -0.152902,-0.0162844 -0.0367998,-0.0108534 -0.0618177,-0.0191138 -0.0750274,-0.0247726l0.0240631 -0.113246c0.0151018,0.00565881 0.0391737,0.0141383 0.0722068,0.0254734 0.0330331,0.0113264 0.0769195,0.0169852 0.131659,0.0169852zm0.583269 -0.641311l0.278902 0 0 0.110434 -0.278902 0 0 0.339756c0,0.0368173 0.0028294,0.0672487 0.00850573,0.0913206 0.00565881,0.0240631 0.0141558,0.0429404 0.0254734,0.0566231 0.0113351,0.0136915 0.0254909,0.0233623 0.0424761,0.0290211 0.0169939,0.00567633 0.0368085,0.00849697 0.0594525,0.00849697 0.0396379,0 0.0714885,-0.004485 0.0955603,-0.013455 0.0240631,-0.00896124 0.0408118,-0.0153208 0.0502635,-0.0191138l0.0254734 0.109015c-0.013201,0.00659611 -0.0363268,0.0148566 -0.0693598,0.0247726 -0.0330418,0.0099073 -0.0707877,0.0148566 -0.113264,0.0148566 -0.0500095,0 -0.0913031,-0.00635959 -0.123881,-0.0190963 -0.0325513,-0.0127542 -0.058743,-0.031868 -0.0785664,-0.0573414 -0.0198146,-0.0254909 -0.0337339,-0.0568597 -0.0417578,-0.09415 -0.00802395,-0.0372641 -0.0120359,-0.0804497 -0.0120359,-0.129531l0 -0.656877 0.131659 -0.0226528 0 0.22792zm0.57761 0.736162l-0.131651 0 0 -0.736162 0.131651 0 0 0.736162zm-0.066548 -0.869232c-0.0235813,0 -0.0436412,-0.00779619 -0.0601533,-0.0233623 -0.0165209,-0.0155661 -0.0247901,-0.0365633 -0.0247901,-0.0630002 0,-0.0264195 0.00826922,-0.0474166 0.0247901,-0.0630002 0.0165122,-0.0155661 0.036572,-0.0233448 0.0601533,-0.0233448 0.0236076,0 0.0436674,0.00777867 0.0601708,0.0233448 0.0165297,0.0155836 0.0247726,0.0365808 0.0247726,0.0630002 0,0.026437 -0.00824294,0.0474341 -0.0247726,0.0630002 -0.0165034,0.0155661 -0.0365633,0.0233623 -0.0601708,0.0233623zm0.613 0.886226c-0.0594525,0 -0.111599,-0.00945179 -0.156432,-0.0283203 -0.0448237,-0.0188773 -0.0825958,-0.0452968 -0.113264,-0.0792671 -0.0306679,-0.0339791 -0.0535485,-0.0743354 -0.0686503,-0.121051 -0.0151106,-0.0467158 -0.0226528,-0.098381 -0.0226528,-0.155022 0,-0.0566231 0.0082517,-0.108534 0.0247726,-0.155722 0.0165122,-0.0471801 0.0398745,-0.0880181 0.0700781,-0.122453 0.0301949,-0.0344609 0.06724,-0.0613534 0.111126,-0.080695 0.0438864,-0.0193503 0.0927221,-0.0290211 0.146533,-0.0290211 0.0330331,0 0.0660574,0.0028294 0.0990905,0.00848821 0.0330331,0.00566757 0.0646646,0.0146376 0.0948508,0.0268925l-0.0297307 0.111845c-0.0198146,-0.00943427 -0.0426951,-0.0169939 -0.0686503,-0.0226528 -0.0259552,-0.00565005 -0.0535572,-0.00847946 -0.0828236,-0.00847946 -0.0736083,0 -0.130012,0.0231083 -0.169177,0.0693598 -0.0391562,0.0462516 -0.0587518,0.113728 -0.0587518,0.202438 0,0.0396555 0.00449376,0.0759735 0.013455,0.109015 0.00897,0.0330331 0.0231258,0.0613534 0.0424674,0.0849435 0.0193503,0.0235813 0.044123,0.0417578 0.0743266,0.0544945 0.0301949,0.0127542 0.0670122,0.0191138 0.110417,0.0191138 0.0349252,0 0.0665392,-0.00329367 0.0948508,-0.0099073 0.0283203,-0.00660486 0.0504913,-0.0136828 0.0665392,-0.0212424l0.0184043 0.110434c-0.00754216,0.00471276 -0.0184043,0.00920652 -0.0325513,0.0134375 -0.0141558,0.00425725 -0.0302037,0.00802395 -0.0481349,0.0113351 -0.0179312,0.00331119 -0.0370451,0.0061406 -0.0573414,0.00850573 -0.0202876,0.00234762 -0.0398745,0.00353019 -0.0587518,0.00353019zm0.509661 -0.111845c0.0537937,0 0.0936682,-0.00707789 0.119623,-0.0212337 0.0259552,-0.0141645 0.0389284,-0.0368085 0.0389284,-0.0679583 0,-0.0320958 -0.0127367,-0.0575692 -0.0382276,-0.0764377 -0.0254734,-0.0188773 -0.0674765,-0.0401197 -0.125983,-0.0637098 -0.0283203,-0.0113264 -0.0554581,-0.0228805 -0.0814133,-0.0346887 -0.0259552,-0.0117994 -0.0483627,-0.0257187 -0.0672312,-0.0417666 -0.0188948,-0.0160479 -0.0339791,-0.0353807 -0.0453143,-0.0580422 -0.0113264,-0.022644 -0.0169852,-0.0504913 -0.0169852,-0.0835244 0,-0.0651201 0.0240718,-0.116794 0.0722068,-0.155022 0.0481174,-0.0382101 0.113728,-0.0573239 0.196779,-0.0573239 0.0207606,0 0.0415213,0.00118257 0.0622819,0.00353019 0.0207606,0.00236514 0.0401197,0.00519454 0.058051,0.00850573 0.0179312,0.00328491 0.0337339,0.00684138 0.0474166,0.0106081 0.0136915,0.00377546 0.0243084,0.00707789 0.031868,0.0099073l-0.0240718 0.113264c-0.0141558,-0.00755968 -0.0363443,-0.0153384 -0.066548,-0.0233623 -0.0301862,-0.00802395 -0.0665304,-0.0120359 -0.108998,-0.0120359 -0.0368173,0 -0.0688956,0.00732317 -0.0962698,0.0219432 -0.027383,0.0146376 -0.041057,0.0375268 -0.041057,0.0686591 0,0.0160391 0.00306592,0.0302037 0.00920652,0.0424761 0.00613184,0.0122724 0.0155661,0.0233711 0.0283028,0.0332784 0.0127542,0.0099073 0.0285568,0.0190963 0.0474341,0.0275933 0.0188685,0.00848821 0.0415213,0.0174582 0.0679495,0.0269012 0.0349252,0.0132185 0.0660749,0.0261917 0.0934317,0.0389284 0.0273743,0.0127367 0.0507453,0.027602 0.0700781,0.044596 0.0193591,0.0169852 0.0342157,0.0375181 0.0445872,0.0615899 0.0103891,0.0240718 0.0155836,0.0535572 0.0155836,0.0884737 0,0.0679583 -0.0252457,0.119387 -0.075737,0.154303 -0.0505001,0.0349252 -0.12247,0.0523922 -0.215893,0.0523922 -0.0651289,0 -0.116093,-0.00543982 -0.152902,-0.0162844 -0.0367998,-0.0108534 -0.0618177,-0.0191138 -0.0750362,-0.0247726l0.0240718 -0.113246c0.0151018,0.00565881 0.0391737,0.0141383 0.0722068,0.0254734 0.0330331,0.0113264 0.0769195,0.0169852 0.131659,0.0169852zm0.615838 0.018413c0,0.0254734 -0.00849697,0.0476619 -0.0254909,0.0665304 -0.0169852,0.0188773 -0.040111,0.0283203 -0.0693598,0.0283203 -0.0292664,0 -0.0523922,-0.00944303 -0.0693774,-0.0283203 -0.0169852,-0.0188685 -0.0254734,-0.041057 -0.0254734,-0.0665304 0,-0.0254909 0.00848821,-0.0476707 0.0254734,-0.066548 0.0169852,-0.0188773 0.040111,-0.0283028 0.0693774,-0.0283028 0.0292489,0 0.0523747,0.00942551 0.0693598,0.0283028 0.0169939,0.0188773 0.0254909,0.041057 0.0254909,0.066548zm0.192531 -0.638491c0.0301949,-0.00754216 0.0703059,-0.0155661 0.120333,-0.0240631 0.0500183,-0.00848821 0.107587,-0.0127367 0.172708,-0.0127367 0.0585152,0 0.107132,0.00826046 0.145824,0.0247726 0.0386919,0.0165209 0.0695964,0.0396292 0.0927221,0.0693774 0.0231258,0.0297219 0.0394102,0.0653479 0.0488445,0.106887 0.00944303,0.0415125 0.0141558,0.0872911 0.0141558,0.137309l0 0.413382 -0.131659 0 0 -0.385062c0,-0.0453055 -0.00306592,-0.0839974 -0.00920652,-0.116093 -0.00613184,-0.032087 -0.0162844,-0.0580422 -0.0304227,-0.0778568 -0.0141645,-0.0198234 -0.0330331,-0.0342244 -0.0566407,-0.0431857 -0.0235901,-0.00897 -0.0528564,-0.0134375 -0.0877729,-0.0134375 -0.0141645,0 -0.0287846,0.000455508 -0.0438864,0.00140156 -0.0151018,0.000946055 -0.0294854,0.00212862 -0.0431857,0.00354771 -0.013674,0.00141032 -0.0259552,0.00306592 -0.0367998,0.00495803 -0.0108534,0.00188335 -0.0186408,0.00329367 -0.0233535,0.00424849l0 0.621479 -0.131659 0 0 -0.714928zm1.46242 0.346861c0,0.0585065 -0.00850573,0.111354 -0.0254909,0.158552 -0.0169939,0.0471976 -0.0408205,0.0877729 -0.0714885,0.121752 -0.0306679,0.0339704 -0.0672575,0.0601708 -0.109716,0.0785576 -0.0424761,0.018413 -0.0887189,0.0276195 -0.138737,0.0276195 -0.050027,0 -0.0962786,-0.00920652 -0.138737,-0.0276195 -0.0424849,-0.0183868 -0.0790481,-0.0445872 -0.109716,-0.0785576 -0.0306855,-0.0339791 -0.054512,-0.0745544 -0.071506,-0.121752 -0.0169852,-0.0471976 -0.0254734,-0.100045 -0.0254734,-0.158552 0,-0.0575867 0.00848821,-0.110198 0.0254734,-0.15786 0.0169939,-0.0476531 0.0408205,-0.0884912 0.071506,-0.122462 0.0306679,-0.0339791 0.0672312,-0.0601621 0.109716,-0.0785664 0.0424586,-0.0183955 0.0887102,-0.027602 0.138737,-0.027602 0.0500183,0 0.0962611,0.00920652 0.138737,0.027602 0.0424586,0.0184043 0.0790481,0.0445872 0.109716,0.0785664 0.0306679,0.0339704 0.0544945,0.0748084 0.0714885,0.122462 0.0169852,0.0476619 0.0254909,0.100273 0.0254909,0.15786zm-0.137336 0c0,-0.0830601 -0.018632,-0.14889 -0.0559224,-0.197506 -0.0372641,-0.0485992 -0.0880094,-0.07289 -0.152175,-0.07289 -0.0641828,0 -0.114911,0.0242908 -0.152192,0.07289 -0.0372903,0.0486167 -0.0559224,0.114446 -0.0559224,0.197506 0,0.0830338 0.018632,0.148881 0.0559224,0.19748 0.0372816,0.0485992 0.0880094,0.0729075 0.152192,0.0729075 0.0641653,0 0.114911,-0.0243084 0.152175,-0.0729075 0.0372903,-0.0485992 0.0559224,-0.114446 0.0559224,-0.19748z"/>
    <g>
     <path id="_483339616" class="fil9" d="M6.65021 15.2509c0.0433784,-0.00170815 0.0512096,-0.0217768 0.0745982,-0.0576042l0.152437 -0.224241 -0.0868181 0.512324c-0.00447624,0.0249391 -0.104784,0.217067 -0.119606,0.245939 -0.0524009,0.102086 0.0351617,0.143765 0.0867042,0.123898 0.0309045,-0.011922 0.0429053,-0.0416439 0.0566932,-0.0694912l0.121962 -0.24403c0.0212424,-0.0440354 0.0393489,-0.169817 0.0533295,-0.193941 0.0309833,0.0131659 0.175099,0.0740113 0.180407,0.0931163 0.00867217,0.0311848 0.017029,0.0647785 0.025526,0.0967078 0.0128769,0.0484065 0.0338915,0.15878 0.0613972,0.185418 0.0488532,0.0473027 0.132229,0.00944303 0.127157,-0.0616162 -0.00357399,-0.0225652 -0.0491073,-0.192294 -0.0585152,-0.228288 -0.0154873,-0.0592423 -0.0109234,-0.0668896 -0.0420118,-0.0986788 -0.0352405,-0.0360377 -0.217093,-0.124529 -0.218328,-0.129101 -0.00341631,-0.0126841 0.0292927,-0.191874 0.032052,-0.224294l0.0189561 0.0290124c0.00626323,0.0105993 0.0114578,0.0193065 0.0172743,0.0291788 0.0171429,0.0290649 0.0171341,0.0291613 0.0437463,0.0442631 0.0367998,0.0209008 0.0724871,0.0433346 0.108735,0.0640164 0.0304928,0.0174057 0.0882722,0.0654179 0.119036,0.0097759 0.0126316,-0.0228542 0.00541354,-0.0486955 -0.0120972,-0.0630966 -0.0198321,-0.0163107 -0.150878,-0.0863188 -0.164158,-0.0982408 -0.0156011,-0.0139981 -0.105494,-0.185453 -0.137292,-0.224014 -0.026691,-0.0323673 -0.0675028,-0.0468122 -0.129075,-0.0424148 -0.030081,0.00214614 -0.0509556,0.0208833 -0.0848471,0.0648135l-0.1729 0.251581c-0.019324,0.0284955 -0.0374918,0.0547748 -0.057175,0.0842339 -0.0355909,0.0532594 -0.0459975,0.0550551 -0.0333397,0.0979254 0.00407329,0.0137791 -0.0136127,0.0321045 -0.0212337,0.0433521 -0.0244135,0.0368699 -0.119851,0.190464 -0.147304,0.222726l-0.097102 -0.0626937c-0.0716286,-0.0474867 -0.0774977,0.0180889 -0.0944478,0.0265596l-0.0583313 0.00566757c-0.00767356,0.0066399 -0.0236163,0.0339704 -0.0316666,0.0455683 -0.0209884,0.0302387 -0.0406804,0.0593299 -0.0607227,0.0902957 -0.0203489,0.0314388 -0.0414337,0.0603022 -0.0621681,0.0920739 -0.0166085,0.0254559 -0.0532243,0.0693248 -0.00942551,0.0985036l0.0339879 0.0799416c0.00260165,0.00318856 0.0693423,0.04485 0.0779094,0.0530492 0.0120096,-0.0514724 0.0841113,-0.0776466 0.126666,-0.0196131l0.189465 -0.280926c0.0342595,-0.0516564 0.0519629,-0.0596102 0.019543,-0.104049l0.170982 -0.263608zm-0.484319 0.699739c0.00551865,0.0220746 0.03136,0.0401022 0.0588569,0.0328842 0.0224162,-0.0058778 0.0405227,-0.0298445 0.0335762,-0.0587167 -0.0139718,-0.0579809 -0.108954,-0.0402073 -0.0924331,0.0258326zm0.744204 -1.33706c0.0307643,0.143967 0.254568,0.0960421 0.21888,-0.0508242 -0.0131484,-0.054074 -0.0673363,-0.0984072 -0.133332,-0.0834105 -0.0554844,0.0126053 -0.0996599,0.0681948 -0.0855479,0.134235z"/>
     <path id="_483349576" class="fil10" d="M7.18248 15.7747l0.308484 0c0.0379911,0 0.0690182,0.0310446 0.0690182,0.0690007l0 0.719265c0,0.0379736 -0.0310271,0.0690007 -0.0690182,0.0690007l-0.308484 0c-0.0379911,0 -0.0690357,-0.0310271 -0.0690357,-0.0690007l0 -0.719265c0,-0.0379561 0.0310446,-0.0690007 0.0690357,-0.0690007z"/>
     <path id="_483338680" class="fil10" d="M6.62136 15.8869l0.308501 0c0.0379736,0 0.0690182,0.0310446 0.0690182,0.0690007l0 0.607026c0,0.0379911 -0.0310446,0.0690182 -0.0690182,0.0690182l-0.308501 0c-0.0379736,0 -0.0690182,-0.0310271 -0.0690182,-0.0690182l0 -0.607026c0,-0.0379561 0.0310446,-0.0690007 0.0690182,-0.0690007z"/>
     <path id="_483340576" class="fil10" d="M6.06625 16.015l0.30851 0c0.0379824,0 0.0690182,0.0310446 0.0690182,0.0690182l0 0.478949c0,0.0379736 -0.0310359,0.0690182 -0.0690182,0.0690182l-0.30851 0c-0.0379648,0 -0.0690182,-0.0310446 -0.0690182,-0.0690182l0 -0.478949c0,-0.0379736 0.0310534,-0.0690182 0.0690182,-0.0690182z"/>
    </g>
   </g>
   <g>
    <path id="_483351376" class="fil4" d="M20.4604 2.2643c0.037448,-0.00147164 0.0442018,-0.0187897 0.0643843,-0.0497117l0.131554 -0.193521 -0.0749223 0.442141c-0.00386306,0.0215227 -0.0904271,0.187328 -0.103225,0.21224 -0.0452179,0.0881057 0.0303438,0.124073 0.0748259,0.106922 0.0266735,-0.0102752 0.0370363,-0.0359326 0.0489233,-0.0599606l0.105257 -0.210602c0.0183342,-0.0379999 0.0339616,-0.146551 0.0460238,-0.167373 0.0267436,0.0113614 0.151115,0.0638762 0.155696,0.0803621 0.00748084,0.02691 0.0146989,0.0559048 0.0220308,0.0834543 0.0111161,0.0417753 0.0292489,0.137038 0.0529878,0.160023 0.0421608,0.0408205 0.114105,0.00814658 0.109734,-0.0531718 -0.00308344,-0.0194817 -0.0423798,-0.165954 -0.0505001,-0.197016 -0.0133674,-0.0511308 -0.00942551,-0.0577269 -0.0362567,-0.0851625 -0.0304139,-0.0310972 -0.187354,-0.107474 -0.188414,-0.111424 -0.00295204,-0.0109409 0.0252719,-0.165586 0.0276546,-0.193556l0.0163545 0.0250354c0.00540478,0.0091452 0.00989854,0.0166611 0.0149179,0.0251843 0.0147865,0.0250792 0.0147865,0.0251668 0.0377458,0.0382013 0.0317629,0.0180276 0.0625535,0.0373867 0.0938434,0.0552391 0.0263143,0.015023 0.0761837,0.0564567 0.102726,0.00843566 0.0109059,-0.0197182 0.00467772,-0.0420206 -0.0104329,-0.0544507 -0.0171166,-0.0140769 -0.130214,-0.0744931 -0.141672,-0.084777 -0.0134638,-0.0120797 -0.091049,-0.16005 -0.118485,-0.193337 -0.0230294,-0.0279261 -0.0582612,-0.0403913 -0.111398,-0.0365983 -0.0259552,0.00184831 -0.043974,0.0180276 -0.0732229,0.0559311l-0.149205 0.21712c-0.0166786,0.0245887 -0.0323586,0.0472677 -0.0493525,0.0726973 -0.030703,0.0459625 -0.0396905,0.047513 -0.0287671,0.0845055 0.00351267,0.011887 -0.0117468,0.0277071 -0.0183254,0.0374217 -0.0210672,0.0318155 -0.103427,0.16436 -0.127122,0.192207l-0.0837959 -0.0541091c-0.0618264,-0.0409782 -0.0668896,0.0156099 -0.0815096,0.0229243l-0.0503424 0.00489671c-0.00662238,0.00572889 -0.020384,0.0293102 -0.0273305,0.0393226 -0.0181152,0.0260866 -0.0351091,0.0512008 -0.0524009,0.0779181 -0.0175633,0.0271378 -0.0357574,0.0520418 -0.0536536,0.0794686 -0.0143397,0.0219695 -0.0459275,0.0598205 -0.00812906,0.0850048l0.0293277 0.0689919c0.0022425,0.00275057 0.059838,0.0387007 0.0672312,0.0457785 0.0103716,-0.0444208 0.0725922,-0.0670035 0.109322,-0.0169239l0.163501 -0.242435c0.0295642,-0.0445872 0.0448413,-0.0514549 0.0168626,-0.0898051l0.147558 -0.227491zm-0.417964 0.603881c0.00476531,0.0190525 0.0270677,0.0346011 0.0507891,0.0283816 0.0193503,-0.00508067 0.0349778,-0.0257625 0.0289773,-0.0506753 -0.0120534,-0.0500358 -0.0940273,-0.0346974 -0.0797664,0.0222936zm0.642257 -1.15389c0.0265421,0.124249 0.219686,0.0828849 0.188887,-0.0438602 -0.0113439,-0.0466633 -0.0581035,-0.0849259 -0.11506,-0.071979 -0.0478897,0.0108796 -0.0860122,0.0588481 -0.0738273,0.115839z"/>
    <path id="_483339712" class="fil5" d="M20.9197 2.7164l0.266244 0c0.0327791,0 0.0595577,0.0267961 0.0595577,0.0595489l0 0.620735c0,0.0327528 -0.0267786,0.0595489 -0.0595577,0.0595489l-0.266244 0c-0.032744,0 -0.0595577,-0.0267961 -0.0595577,-0.0595489l0 -0.620735c0,-0.0327528 0.0268136,-0.0595489 0.0595577,-0.0595489z"/>
    <path id="_483344848" class="fil6" d="M20.4355 2.81323l0.266244 0c0.0327615,0 0.0595577,0.0267961 0.0595577,0.0595577l0 0.523887c0,0.0327528 -0.0267961,0.0595489 -0.0595577,0.0595489l-0.266244 0c-0.0327615,0 -0.0595489,-0.0267961 -0.0595489,-0.0595489l0 -0.523887c0,-0.0327615 0.0267874,-0.0595577 0.0595489,-0.0595577z"/>
    <path id="_483349960" class="fil7" d="M19.9564 2.92377l0.266244 0c0.0327791,0 0.0595577,0.0267874 0.0595577,0.0595664l0 0.413338c0,0.0327703 -0.0267786,0.0595664 -0.0595577,0.0595664l-0.266244 0c-0.032744,0 -0.0595577,-0.0267961 -0.0595577,-0.0595664l0 -0.413338c0,-0.0327791 0.0268136,-0.0595664 0.0595577,-0.0595664z"/>
   </g>
  </g>
 </g>
</svg>
