<?xml version="1.0" encoding="UTF-8"?>
<!DOCTYPE svg PUBLIC "-//W3C//DTD SVG 1.1//EN" "http://www.w3.org/Graphics/SVG/1.1/DTD/svg11.dtd">
<!-- Creator: CorelDRAW -->
<svg xmlns="http://www.w3.org/2000/svg" xml:space="preserve" width="262.5mm" height="210mm" style="shape-rendering:geometricPrecision; text-rendering:geometricPrecision; image-rendering:optimizeQuality; fill-rule:evenodd; clip-rule:evenodd"
viewBox="0 0 29.5068 23.6055"
 xmlns:xlink="http://www.w3.org/1999/xlink">
 <defs>
  <style type="text/css">
   <![CDATA[
    .fil2 {fill:#C11F25}
    .fil4 {fill:#CB2026}
    .fil5 {fill:#F26722}
    .fil6 {fill:#F8981D}
    .fil1 {fill:#F9F9F9}
    .fil8 {fill:#FFCD05}
    .fil0 {fill:#2B2A29;fill-rule:nonzero}
    .fil3 {fill:#630D0D;fill-rule:nonzero}
    .fil7 {fill:white;fill-rule:nonzero}
   ]]>
  </style>
  <clipPath id="id0" style="clip-rule:nonzero">
   <path d="M147.803 -10.0971l0.925492 0.496097 -0.120388 -6.99818 -0.925492 -0.496108 0.120388 6.99819z"/>
  </clipPath>
  <clipPath id="id1" style="clip-rule:nonzero">
   <path d="M163.769 12.6545l16.0156 0 0 -31.412 -16.0156 0 -1.12407e-005 31.412z"/>
  </clipPath>
  <clipPath id="id2" style="clip-rule:nonzero">
   <rect x="167.688" y="-8.05403" width="5.58516" height="8.96014"/>
  </clipPath>
  <clipPath id="id3" style="clip-rule:nonzero">
   <path d="M160.518 11.3554l3.80685 0 0 -3.80685 -3.80685 0 0 3.80685z"/>
  </clipPath>
  <clipPath id="id4" style="clip-rule:nonzero">
   <rect x="138.578" y="-16.6147" width="6.46686" height="6.46685"/>
  </clipPath>
  <clipPath id="id5" style="clip-rule:nonzero">
   <path d="M132.661 11.6004l6.72442 0 0 -6.8365 -6.72442 0 0 6.8365z"/>
  </clipPath>
  <clipPath id="id6" style="clip-rule:nonzero">
   <path d="M140.286 11.6004l8.08097 0 0 -6.8365 -8.08097 0 0 6.8365z"/>
  </clipPath>
  <clipPath id="id7" style="clip-rule:nonzero">
   <path d="M148.989 11.6004l7.17115 0 0 -6.8365 -7.17115 0 0 6.8365z"/>
  </clipPath>
  <clipPath id="id8" style="clip-rule:nonzero">
   <rect x="155.359" y="-8.31255" width="8.4517" height="10.8956"/>
  </clipPath>
  <clipPath id="id9" style="clip-rule:nonzero">
   <rect x="133.255" y="-16.6147" width="5.80581" height="5.90923"/>
  </clipPath>
  <clipPath id="id10" style="clip-rule:nonzero">
   <rect x="143.937" y="-8.31255" width="10.8956" height="10.8956"/>
  </clipPath>
  <clipPath id="id11" style="clip-rule:nonzero">
   <path d="M164.592 1.01769c0,0 -0.334636,0.657603 -0.938497,0.699059l0 0 -0.405081 0.587877 -0.085553 0.0979852c0,0 0.364839,0.463533 0.322057,1.13621l0 0c0,0 -0.193733,1.24549 0.729668,1.75047l0 0c0,0 1.02152,0.644418 1.20519,0.923289l0 0c0,0 0.11071,-0.209156 1.09197,-0.881833l0 0c0,0 0.981268,-0.378733 0.910823,-1.66757l0 0c0,0 -0.0981313,-0.727318 0.26419,-1.21722l0 0 -0.460442 -0.729207c0,0 -0.659211,-0.111182 -0.895726,-0.699059l0 0c0,0 -0.367346,-0.0942196 -0.883137,-0.0942196l0 0c-0.256636,0 -0.551019,0.0226163 -0.855462,0.0942196l0 0z"/>
  </clipPath>
  <clipPath id="id12" style="clip-rule:nonzero">
   <path d="M144.639 -9.8271l2.56598 0 0 -6.78763 -2.56598 0 0 6.78763z"/>
  </clipPath>
  <clipPath id="id13" style="clip-rule:nonzero">
   <path d="M148.966 -10.4688l8.91336 0 0 -6.19994 -8.91336 0 0 6.19994z"/>
  </clipPath>
  <clipPath id="id14" style="clip-rule:nonzero">
   <path d="M131.251 2.58303l12.2357 0 0 -10.9268 -12.2357 0 0 10.9268z"/>
  </clipPath>
  <clipPath id="id15" style="clip-rule:nonzero">
   <rect x="157.898" y="-18.7537" width="11.4999" height="18.5584"/>
  </clipPath>
  <clipPath id="id16" style="clip-rule:nonzero">
   <rect x="156.78" y="0.713065" width="4.81567" height="5.71028"/>
  </clipPath>
 </defs>
<symbol id="Fm1-7-0" viewBox="131.25 -18.7575 48.5373 31.412">
 <g style="clip-path:url(#id0)">
  <image transform="matrix(72.8023 -135.815 120.196 64.43 -10927 17001)" x="131.25" y="12.6132" width="0.0396572" height="0.0396572" xlink:href="Travelistics_logo_1_Images\Travelistics_logo_1_ImgID1.png"/>
 </g>
 <polygon class="fil0" points="131.25,2.90104 179.787,2.90104 179.787,-8.63062 131.25,-8.63062 "/>
 <g style="clip-path:url(#id1)">
  <image transform="matrix(-3.04981E-005 817.82 -545.895 -3.04981E-005 7070.89 -107358)" x="131.25" y="12.6132" width="0.0396572" height="0.0396572" xlink:href="Travelistics_logo_1_Images\Travelistics_logo_1_ImgID2.png"/>
 </g>
 <g style="clip-path:url(#id2)">
  <image transform="matrix(140.836 0 0 225.94 -18317 -2857.88)" x="131.25" y="12.6132" width="0.0396572" height="0.0396572" xlink:href="Travelistics_logo_1_Images\Travelistics_logo_1_ImgID3.png"/>
 </g>
 <g style="clip-path:url(#id3)">
  <image transform="matrix(95.994 0 0 95.994 -12438.7 -1203.24)" x="131.25" y="12.6132" width="0.0396572" height="0.0396572" xlink:href="Travelistics_logo_1_Images\Travelistics_logo_1_ImgID4.png"/>
 </g>
 <g style="clip-path:url(#id4)">
  <image transform="matrix(163.069 0 0 163.069 -21264.2 -2073.44)" x="131.25" y="12.6132" width="0.0396572" height="0.0396572" xlink:href="Travelistics_logo_1_Images\Travelistics_logo_1_ImgID5.png"/>
 </g>
 <g style="clip-path:url(#id5)">
  <image transform="matrix(1 0 0 1 1.41154 -1.05242)" x="131.25" y="5.81442" width="6.72632" height="6.83843" xlink:href="Travelistics_logo_1_Images\Travelistics_logo_1_ImgID6.png"/>
 </g>
 <g style="clip-path:url(#id6)">
  <image transform="matrix(203.771 0 0 172.39 -26604.6 -2169.62)" x="131.25" y="12.6132" width="0.0396572" height="0.0396572" xlink:href="Travelistics_logo_1_Images\Travelistics_logo_1_ImgID7.png"/>
 </g>
 <g style="clip-path:url(#id7)">
  <image transform="matrix(1 0 0 1 17.7393 -1.05242)" x="131.25" y="5.81442" width="7.17317" height="6.83843" xlink:href="Travelistics_logo_1_Images\Travelistics_logo_1_ImgID8.png"/>
 </g>
 <g style="clip-path:url(#id8)">
  <image transform="matrix(213.119 0 0 274.744 -27816.5 -3473.72)" x="131.25" y="12.6132" width="0.0396572" height="0.0396572" xlink:href="Travelistics_logo_1_Images\Travelistics_logo_1_ImgID9.png"/>
 </g>
 <g style="clip-path:url(#id9)">
  <image transform="matrix(146.4 0 0 149.008 -19081.7 -1896.08)" x="131.25" y="12.6132" width="0.0396572" height="0.0396572" xlink:href="Travelistics_logo_1_Images\Travelistics_logo_1_ImgID10.png"/>
 </g>
 <g style="clip-path:url(#id10)">
  <image transform="matrix(274.744 0 0 274.744 -35916.3 -3473.72)" x="131.25" y="12.6132" width="0.0396572" height="0.0396572" xlink:href="Travelistics_logo_1_Images\Travelistics_logo_1_ImgID11.png"/>
 </g>
 <g style="clip-path:url(#id11)">
  <image transform="matrix(223.836 0 0 167.628 -29217.6 -2114.38)" x="131.25" y="12.6132" width="0.0396572" height="0.0396572" xlink:href="Travelistics_logo_1_Images\Travelistics_logo_1_ImgID12.png"/>
 </g>
 <g style="clip-path:url(#id12)">
  <image transform="matrix(176.821 0 0 176.821 -23065.4 -2246.89)" x="131.25" y="12.6132" width="0.0396572" height="0.0396572" xlink:href="Travelistics_logo_1_Images\Travelistics_logo_1_ImgID13.png"/>
 </g>
 <g style="clip-path:url(#id13)">
  <image transform="matrix(224.76 0 0 224.76 -29350.8 -2852.82)" x="131.25" y="12.6132" width="0.0396572" height="0.0396572" xlink:href="Travelistics_logo_1_Images\Travelistics_logo_1_ImgID14.png"/>
 </g>
 <g style="clip-path:url(#id14)">
  <image transform="matrix(452.042 0 0 275.531 -59205 -3483.66)" x="131.25" y="12.6132" width="0.0396572" height="0.0396572" xlink:href="Travelistics_logo_1_Images\Travelistics_logo_1_ImgID15.png"/>
 </g>
 <g style="clip-path:url(#id15)">
  <image transform="matrix(1 0 0 1 26.648 -12.8481)" x="131.25" y="-5.9108" width="11.5031" height="18.5636" xlink:href="Travelistics_logo_1_Images\Travelistics_logo_1_ImgID16.png"/>
 </g>
 <g style="clip-path:url(#id16)">
  <image transform="matrix(121.432 0 0 143.991 -15781.2 -1815.47)" x="131.25" y="12.6132" width="0.0396572" height="0.0396572" xlink:href="Travelistics_logo_1_Images\Travelistics_logo_1_ImgID17.png"/>
 </g>
</symbol>
 <g id="Layer_x0020_1">
  <metadata id="CorelCorpID_0Corel-Layer"/>
  <g id="_483348544">
   <rect id="_483336496" class="fil1" width="29.5068" height="23.6055"/>
   <rect id="_483348712" class="fil2" y="16.3134" width="29.5068" height="7.29207"/>
   <path id="_483346816" class="fil3" d="M9.66602 10.2332l0.446031 0 0 0.176603 -0.446031 0 0 0.543398c0,0.0588675 0.00453,0.107529 0.01359,0.146017 0.00904876,0.0384994 0.0226388,0.0686807 0.0407475,0.0905663 0.01812,0.0218969 0.0407588,0.0373528 0.0679276,0.0464241 0.0271688,0.00906 0.0588675,0.0135675 0.0950963,0.0135675 0.0633976,0 0.114329,-0.00714909 0.152829,-0.0214922 0.0384882,-0.0143431 0.065286,-0.0245272 0.080371,-0.0305747l0.0407475 0.174332c-0.0211213,0.0105775 -0.0581032,0.0237853 -0.110934,0.0396235 -0.0528201,0.0158606 -0.113205,0.0237741 -0.181133,0.0237741 -0.0799888,0 -0.146028,-0.0101841 -0.198095,-0.0305522 -0.0520894,-0.0203906 -0.0939835,-0.0509429 -0.125682,-0.0917129 -0.0316988,-0.0407363 -0.0539554,-0.0909373 -0.066781,-0.150558 -0.0128256,-0.0596094 -0.0192441,-0.128684 -0.0192441,-0.207177l0 -1.05053 0.210561 -0.03624 0 0.364536zm1.14791 -0.0248982c0.0180975,0 0.0388703,0.00111283 0.062251,0.00338345 0.0234031,0.00227062 0.0464129,0.00528313 0.0690741,0.00906 0.0226388,0.00378812 0.0433779,0.00755375 0.062251,0.0113306 0.0188731,0.00376563 0.0328228,0.00714909 0.0418829,0.0101841l-0.0362288 0.183381c-0.01658,-0.00602502 -0.0441535,-0.0131966 -0.0826191,-0.0214922 -0.0384994,-0.00831812 -0.087936,-0.0124547 -0.148321,-0.0124547 -0.0392413,0 -0.0781116,0.00413658 -0.116589,0.0124547 -0.0384882,0.00829564 -0.0637685,0.0139497 -0.075841,0.0169847l0 0.989406 -0.210572 0 0 -1.12753c0.0498075,-0.0181088 0.111688,-0.0350935 0.185663,-0.0509316 0.0739638,-0.0158606 0.156976,-0.0237741 0.249049,-0.0237741zm0.837702 1.05053c0.04983,0 0.0939835,-0.00111283 0.132449,-0.00338345 0.0384994,-0.00227062 0.0705691,-0.00641844 0.0962429,-0.0124547l0 -0.350935c-0.0151075,-0.00754251 -0.0396347,-0.013961 -0.0735816,-0.0192441 -0.0339694,-0.00528313 -0.0750991,-0.00792469 -0.123412,-0.00792469 -0.0316988,0 -0.0652635,0.00224814 -0.10075,0.00677814 -0.0354644,0.00453 -0.0679276,0.0139722 -0.0973669,0.0283153 -0.0294282,0.0143431 -0.0539554,0.0339582 -0.0735816,0.0588675 -0.019615,0.0248982 -0.0294282,0.057721 -0.0294282,0.0984798 0,0.0754813 0.0241563,0.127919 0.0724576,0.157359 0.0483125,0.0294282 0.113947,0.0441422 0.196971,0.0441422zm-0.0180975 -1.05506c0.0845076,0 0.15583,0.0109484 0.213944,0.0328116 0.0581257,0.0218969 0.104909,0.0528425 0.140374,0.0928369 0.0354869,0.0400169 0.060756,0.0875538 0.0758522,0.142633 0.015085,0.0551019 0.0226613,0.115869 0.0226613,0.182279l0 0.735839c-0.0181313,0.00301251 -0.0434116,0.00717157 -0.0758522,0.0124435 -0.0324744,0.00528313 -0.0690741,0.0101841 -0.109822,0.0147253 -0.0407588,0.00453 -0.0849123,0.00866658 -0.132449,0.0124435 -0.0475594,0.00376563 -0.0947254,0.00565407 -0.141509,0.00565407 -0.0664101,0 -0.127548,-0.00678938 -0.183403,-0.0203681 -0.0558326,-0.01359 -0.104134,-0.0350822 -0.144893,-0.0645216 -0.0407475,-0.0294282 -0.0724463,-0.0682985 -0.0950851,-0.116611 -0.02265,-0.0483125 -0.0339582,-0.106404 -0.0339582,-0.174332 0,-0.064915 0.0131966,-0.120748 0.0396122,-0.167543 0.0264269,-0.0467838 0.0622622,-0.0845413 0.107551,-0.113216 0.0452775,-0.0286638 0.0981088,-0.0498075 0.158471,-0.0633863 0.060385,-0.01359 0.123783,-0.0203906 0.190204,-0.0203906 0.02111,0 0.0430069,0.00114655 0.0656569,0.00341717 0.0226388,0.00225938 0.0441535,0.00527189 0.0645216,0.00903752 0.0203681,0.00378812 0.038106,0.00717157 0.0532135,0.0102066 0.0150963,0.00301251 0.0256513,0.00528313 0.0316988,0.00677814l0 -0.0588675c0,-0.0347113 -0.00377688,-0.0690516 -0.0113306,-0.103021 -0.00754251,-0.0339582 -0.0211325,-0.0641394 -0.0407588,-0.0905663 -0.0196263,-0.0263932 -0.0464129,-0.0475369 -0.0803598,-0.0633751 -0.0339582,-0.0158606 -0.0781116,-0.0237853 -0.132449,-0.0237853 -0.069445,0 -0.130212,0.00491219 -0.182279,0.0147253 -0.0520669,0.00981313 -0.0909373,0.0199972 -0.116589,0.0305522l-0.0248982 -0.174332c0.0271688,-0.0120838 0.0724351,-0.0237628 0.135833,-0.0350935 0.0633976,-0.0113306 0.132078,-0.0169735 0.206042,-0.0169735zm1.72073 0.0294282c-0.0588563,0.220374 -0.12793,0.431688 -0.207177,0.633942 -0.0792357,0.202276 -0.15583,0.383409 -0.229805,0.543398l-0.190181 0c-0.0739526,-0.159989 -0.150547,-0.341122 -0.229816,-0.543398 -0.0792357,-0.202254 -0.148287,-0.413568 -0.207155,-0.633942l0.22641 0c0.0180975,0.0739526 0.0396122,0.152817 0.0645216,0.236594 0.0249206,0.0837882 0.0513138,0.16679 0.0792582,0.24906 0.0279107,0.0822707 0.056226,0.161877 0.0848898,0.238854 0.0286863,0.0769876 0.055855,0.145668 0.0815288,0.206031 0.02564,-0.0603626 0.0528088,-0.129043 0.0814951,-0.206031 0.0286638,-0.0769763 0.0569791,-0.156583 0.0848898,-0.238854 0.0279444,-0.0822707 0.05436,-0.165272 0.0792582,-0.24906 0.0249094,-0.0837769 0.0464241,-0.162642 0.0645216,-0.236594l0.217361 0zm0.151682 0.590935c0,-0.104156 0.0150963,-0.195105 0.0453,-0.272823 0.0301813,-0.0777407 0.0701645,-0.142262 0.119972,-0.193576 0.04983,-0.051325 0.10718,-0.0898244 0.172095,-0.115476 0.0648926,-0.0256738 0.131303,-0.0384882 0.19923,-0.0384882 0.158483,0 0.279995,0.0494254 0.364513,0.148287 0.0845413,0.0988732 0.126795,0.249431 0.126795,0.451708 0,0.00903752 0,0.0207391 0,0.0350822 0,0.0143431 -0.000753127,0.0275397 -0.00227062,0.0396235l-0.806003 0c0.00903752,0.122265 0.0445244,0.215091 0.106404,0.2785 0.0618801,0.0633751 0.158494,0.0950738 0.289797,0.0950738 0.0739638,0 0.136237,-0.0064072 0.186787,-0.0192328 0.0505719,-0.0128481 0.0886779,-0.0252916 0.114352,-0.0373753l0.0294282 0.176603c-0.0256738,0.0136012 -0.0705691,0.0279444 -0.134709,0.0430294 -0.0641507,0.0150963 -0.13699,0.0226388 -0.218485,0.0226388 -0.10265,0 -0.191317,-0.0154672 -0.266045,-0.0464129 -0.0747057,-0.0309344 -0.136215,-0.0735929 -0.184527,-0.127919 -0.0482788,-0.0543375 -0.0841366,-0.118859 -0.107551,-0.193587 -0.0233807,-0.0747057 -0.0350822,-0.156605 -0.0350822,-0.245654zm0.808296 -0.115464c0.00149501,-0.0950963 -0.0222566,-0.173219 -0.071311,-0.234346 -0.0490544,-0.0611382 -0.116611,-0.0916904 -0.202647,-0.0916904 -0.0483125,0 -0.0909485,0.00943095 -0.127919,0.0282928 -0.0369819,0.0188731 -0.0683097,0.0434003 -0.0939835,0.0735816 -0.02564,0.0302038 -0.0456372,0.064915 -0.0599804,0.104156 -0.0143431,0.0392525 -0.0237853,0.0792357 -0.0283153,0.120006l0.584157 0zm0.876213 0.724508c-0.129819,-0.00301251 -0.221903,-0.0309344 -0.276229,-0.0837769 -0.0543375,-0.0528088 -0.0815063,-0.135091 -0.0815063,-0.24679l0 -1.41279 0.210561 -0.0362288 0 1.41507c0,0.0347113 0.00301251,0.0633751 0.00907125,0.0860363 0.00602502,0.0226388 0.0158381,0.0407363 0.0294282,0.0543375 0.0135788,0.0135675 0.0316763,0.0237741 0.0543375,0.0305522 0.0226388,0.00680062 0.0505494,0.0124547 0.0837657,0.0169847l-0.0294282 0.176603zm0.475459 -0.0226388l-0.210561 0 0 -1.17734 0.210561 0 0 1.17734zm-0.106427 -1.39017c-0.0377238,0 -0.0697935,-0.0124547 -0.0962092,-0.0373528 -0.0264269,-0.0248982 -0.0396235,-0.0584966 -0.0396235,-0.10075 0,-0.042265 0.0131966,-0.0758522 0.0396235,-0.10075 0.0264156,-0.0249094 0.0584854,-0.0373528 0.0962092,-0.0373528 0.0377575,0 0.0698272,0.0124435 0.0962429,0.0373528 0.0264044,0.0248982 0.0396235,0.0584854 0.0396235,0.10075 0,0.0422538 -0.0132191,0.0758522 -0.0396235,0.10075 -0.0264156,0.0248982 -0.0584854,0.0373528 -0.0962429,0.0373528zm0.742662 1.23847c0.0860363,0 0.149805,-0.0112969 0.191317,-0.0339582 0.0414894,-0.0226388 0.062251,-0.0588675 0.062251,-0.108675 0,-0.051325 -0.0203681,-0.0920838 -0.0611269,-0.122265 -0.0407588,-0.0301813 -0.107922,-0.0641394 -0.201501,-0.101874 -0.0453,-0.01812 -0.0886779,-0.0365997 -0.13019,-0.0554729 -0.0415119,-0.0188731 -0.0773697,-0.041141 -0.107551,-0.0667922 -0.0301813,-0.0256738 -0.0543263,-0.0565969 -0.0724576,-0.0928257 -0.0181088,-0.03624 -0.0271688,-0.0807644 -0.0271688,-0.133596 0,-0.104145 0.0384994,-0.186787 0.115464,-0.247925 0.0769988,-0.0611044 0.181908,-0.0916792 0.314728,-0.0916792 0.0331938,0 0.0664101,0.00188844 0.0996151,0.00564283 0.0332163,0.00378812 0.0641394,0.00831812 0.0928257,0.0136012 0.0286863,0.00528313 0.0539666,0.0109372 0.0758522,0.0169847 0.0218856,0.00602502 0.0388703,0.0113081 0.0509429,0.0158381l-0.0384882 0.181133c-0.0226388,-0.0120838 -0.0581257,-0.0245272 -0.106416,-0.0373528 -0.0483013,-0.0128256 -0.106416,-0.0192553 -0.174332,-0.0192553 -0.0588675,0 -0.110181,0.0117016 -0.153964,0.0350935 -0.0437713,0.0234031 -0.0656682,0.0600029 -0.0656682,0.10981 0,0.0256738 0.00491219,0.0483125 0.0147253,0.0679276 0.00981313,0.0196263 0.0248982,0.0373528 0.0452888,0.053191 0.0203681,0.0158606 0.0456485,0.0305859 0.0758522,0.0441535 0.0301813,0.0136012 0.0664101,0.0279444 0.108675,0.0430294 0.0558438,0.0211438 0.105651,0.0418829 0.149423,0.062251 0.0437825,0.0204019 0.0811354,0.0441535 0.112059,0.0713222 0.0309569,0.0271913 0.0547422,0.0600141 0.0713447,0.0985023 0.0165913,0.0384769 0.0248982,0.0856654 0.0248982,0.141498 0,0.108686 -0.0403878,0.190946 -0.121141,0.246801 -0.0807532,0.0558438 -0.195847,0.0837657 -0.345258,0.0837657 -0.104156,0 -0.185663,-0.00866658 -0.24453,-0.0260447 -0.0588675,-0.0173556 -0.098862,-0.0305635 -0.120006,-0.0396235l0.0384994 -0.181133c0.0241338,0.00906 0.0626332,0.0226613 0.115464,0.04077 0.0528201,0.0180975 0.123018,0.0271575 0.210572,0.0271575zm0.93281 -1.02564l0.446031 0 0 0.176603 -0.446031 0 0 0.543398c0,0.0588675 0.00453,0.107529 0.01359,0.146017 0.00904876,0.0384994 0.0226388,0.0686807 0.0407475,0.0905663 0.01812,0.0218969 0.0407588,0.0373528 0.0679276,0.0464241 0.0271688,0.00906 0.0588675,0.0135675 0.0950963,0.0135675 0.0633976,0 0.114329,-0.00714909 0.152817,-0.0214922 0.0384994,-0.0143431 0.0652972,-0.0245272 0.0803823,-0.0305747l0.0407475 0.174332c-0.0211213,0.0105775 -0.0581032,0.0237853 -0.110946,0.0396235 -0.0528088,0.0158606 -0.113194,0.0237741 -0.181133,0.0237741 -0.0799776,0 -0.146017,-0.0101841 -0.198084,-0.0305522 -0.0521006,-0.0203906 -0.0939835,-0.0509429 -0.125682,-0.0917129 -0.0316988,-0.0407363 -0.0539554,-0.0909373 -0.066781,-0.150558 -0.0128256,-0.0596094 -0.0192553,-0.128684 -0.0192553,-0.207177l0 -1.05053 0.210572 -0.03624 0 0.364536zm0.923761 1.17734l-0.210561 0 0 -1.17734 0.210561 0 0 1.17734zm-0.106427 -1.39017c-0.0377238,0 -0.0697935,-0.0124547 -0.0962204,-0.0373528 -0.0264156,-0.0248982 -0.0396122,-0.0584966 -0.0396122,-0.10075 0,-0.042265 0.0131966,-0.0758522 0.0396122,-0.10075 0.0264269,-0.0249094 0.0584966,-0.0373528 0.0962204,-0.0373528 0.0377575,0 0.0698272,0.0124435 0.0962429,0.0373528 0.0264044,0.0248982 0.0396235,0.0584854 0.0396235,0.10075 0,0.0422538 -0.0132191,0.0758522 -0.0396235,0.10075 -0.0264156,0.0248982 -0.0584854,0.0373528 -0.0962429,0.0373528zm0.980369 1.41734c-0.0950738,0 -0.178469,-0.0150963 -0.250184,-0.0452775 -0.0716932,-0.0302038 -0.132056,-0.0724576 -0.18111,-0.126795 -0.0490544,-0.0543375 -0.0856541,-0.118882 -0.10981,-0.193587 -0.0241563,-0.0747057 -0.0362288,-0.157347 -0.0362288,-0.247914 0,-0.0905663 0.0131966,-0.17359 0.0396122,-0.24906 0.0264269,-0.0754588 0.0637797,-0.140745 0.112081,-0.195824 0.0483125,-0.0551132 0.107551,-0.0981201 0.177727,-0.129066 0.0701982,-0.0309569 0.14831,-0.0464129 0.234346,-0.0464129 0.0528201,0 0.105651,0.00453 0.158494,0.01359 0.0528201,0.00903752 0.103392,0.0233807 0.151682,0.0430069l-0.0475482 0.178862c-0.0316988,-0.015085 -0.0682985,-0.0271688 -0.10981,-0.0362288 -0.0415119,-0.00903752 -0.0856541,-0.0135675 -0.132449,-0.0135675 -0.117735,0 -0.20793,0.0369707 -0.270552,0.110934 -0.0626557,0.0739526 -0.093961,0.181875 -0.093961,0.323766 0,0.0633976 0.00717157,0.121501 0.0214922,0.174332 0.0143431,0.0528425 0.0369819,0.0981201 0.0679388,0.135844 0.0309456,0.0377463 0.0705691,0.0668035 0.11887,0.0871716 0.04829,0.0203794 0.107158,0.0305635 0.176603,0.0305635 0.0558326,0 0.106404,-0.00528313 0.151682,-0.0158381 0.0452888,-0.0105663 0.0807532,-0.0218969 0.106427,-0.0339694l0.0294282 0.176603c-0.0120725,0.00754251 -0.0294282,0.0147141 -0.0520669,0.0215147 -0.0226613,0.00680062 -0.0483125,0.0128256 -0.0769988,0.0180975 -0.0286863,0.00528313 -0.0592385,0.00981313 -0.0916792,0.0136012 -0.0324519,0.00376563 -0.0637797,0.00565407 -0.0939835,0.00565407zm0.815097 -0.178873c0.0860363,0 0.149805,-0.0112969 0.191317,-0.0339582 0.0414894,-0.0226388 0.0622622,-0.0588675 0.0622622,-0.108675 0,-0.051325 -0.0203794,-0.0920838 -0.0611382,-0.122265 -0.0407588,-0.0301813 -0.107922,-0.0641394 -0.201501,-0.101874 -0.0453,-0.01812 -0.0886779,-0.0365997 -0.13019,-0.0554729 -0.0415119,-0.0188731 -0.0773585,-0.041141 -0.10754,-0.0667922 -0.0301813,-0.0256738 -0.0543375,-0.0565969 -0.0724688,-0.0928257 -0.0180975,-0.03624 -0.0271688,-0.0807644 -0.0271688,-0.133596 0,-0.104145 0.0384994,-0.186787 0.115476,-0.247925 0.0769876,-0.0611044 0.181897,-0.0916792 0.314717,-0.0916792 0.033205,0 0.0664213,0.00188844 0.0996151,0.00564283 0.0332163,0.00378812 0.0641394,0.00831812 0.0928257,0.0136012 0.0286863,0.00528313 0.0539666,0.0109372 0.0758522,0.0169847 0.0218856,0.00602502 0.0388703,0.0113081 0.0509429,0.0158381l-0.0384882 0.181133c-0.0226388,-0.0120838 -0.0581257,-0.0245272 -0.106404,-0.0373528 -0.0483125,-0.0128256 -0.106427,-0.0192553 -0.174343,-0.0192553 -0.0588675,0 -0.110181,0.0117016 -0.153964,0.0350935 -0.0437713,0.0234031 -0.0656569,0.0600029 -0.0656569,0.10981 0,0.0256738 0.00490095,0.0483125 0.0147141,0.0679276 0.00981313,0.0196263 0.0248982,0.0373528 0.0452888,0.053191 0.0203794,0.0158606 0.0456485,0.0305859 0.0758522,0.0441535 0.0301813,0.0136012 0.0664101,0.0279444 0.108675,0.0430294 0.055855,0.0211438 0.105651,0.0418829 0.149434,0.062251 0.0437713,0.0204019 0.0811241,0.0441535 0.112059,0.0713222 0.0309456,0.0271913 0.054731,0.0600141 0.0713335,0.0985023 0.0165913,0.0384769 0.0249094,0.0856654 0.0249094,0.141498 0,0.108686 -0.0403878,0.190946 -0.121152,0.246801 -0.0807532,0.0558438 -0.195847,0.0837657 -0.345258,0.0837657 -0.104156,0 -0.185663,-0.00866658 -0.24453,-0.0260447 -0.0588675,-0.0173556 -0.098862,-0.0305635 -0.119994,-0.0396235l0.0384882 -0.181133c0.0241338,0.00906 0.0626332,0.0226613 0.115476,0.04077 0.0528088,0.0180975 0.123007,0.0271575 0.210561,0.0271575zm0.984876 0.0294394c0,0.0407588 -0.0135675,0.0762232 -0.0407363,0.106427 -0.0271688,0.0301813 -0.0641507,0.0452663 -0.110934,0.0452663 -0.0468175,0 -0.0837994,-0.015085 -0.110957,-0.0452663 -0.0271688,-0.0302038 -0.0407475,-0.0656682 -0.0407475,-0.106427 0,-0.0407363 0.0135788,-0.0762232 0.0407475,-0.106404 0.0271575,-0.0302038 0.0641394,-0.0453 0.110957,-0.0453 0.0467838,0 0.0837657,0.0150963 0.110934,0.0453 0.0271688,0.0301813 0.0407363,0.0656682 0.0407363,0.106404zm0.307928 -1.02111c0.0483125,-0.0120838 0.112463,-0.0249094 0.192441,-0.0384994 0.0800113,-0.0135788 0.172073,-0.0203681 0.276229,-0.0203681 0.0935901,0 0.171331,0.0131966 0.233211,0.0396122 0.0618801,0.0264269 0.111305,0.0633976 0.148287,0.110934 0.0369931,0.0475594 0.0630266,0.104539 0.0781116,0.170949 0.0150963,0.0664101 0.0226613,0.139621 0.0226613,0.21961l0 0.661133 -0.210572 0 0 -0.615833c0,-0.0724688 -0.00490095,-0.134349 -0.0147141,-0.185674 -0.00981313,-0.0513138 -0.0260447,-0.0928257 -0.0486835,-0.124524 -0.0226275,-0.0316763 -0.0528313,-0.0547085 -0.0905663,-0.0690516 -0.0377238,-0.0143431 -0.0845301,-0.0214922 -0.140363,-0.0214922 -0.0226613,0 -0.0460419,0.000741886 -0.0701982,0.0022369 -0.0241563,0.00151749 -0.047166,0.00341717 -0.0690516,0.00567655 -0.0218856,0.00227062 -0.0415119,0.00491219 -0.0588675,0.00792469 -0.0173556,0.00301251 -0.0298103,0.00528313 -0.0373528,0.00680062l0 0.993936 -0.210572 0 0 -1.14337zm2.33882 0.554695c0,0.0935901 -0.0135675,0.17812 -0.0407363,0.253579 -0.0271688,0.0754701 -0.0652972,0.140385 -0.114352,0.194723 -0.0490544,0.0543375 -0.10754,0.0962204 -0.175456,0.12566 -0.0679276,0.0294282 -0.14188,0.0441422 -0.221891,0.0441422 -0.0799888,0 -0.153941,-0.0147141 -0.221869,-0.0441422 -0.0679388,-0.0294394 -0.126424,-0.0713222 -0.175479,-0.12566 -0.0490657,-0.0543375 -0.0871604,-0.119253 -0.114329,-0.194723 -0.0271688,-0.0754588 -0.0407588,-0.159989 -0.0407588,-0.253579 0,-0.0920838 0.01359,-0.17622 0.0407588,-0.252444 0.0271688,-0.0762232 0.0652635,-0.14152 0.114329,-0.195847 0.0490544,-0.0543375 0.10754,-0.0962204 0.175479,-0.12566 0.0679276,-0.0294282 0.14188,-0.0441422 0.221869,-0.0441422 0.0800113,0 0.153964,0.0147141 0.221891,0.0441422 0.0679163,0.0294394 0.126402,0.0713222 0.175456,0.12566 0.0490544,0.0543263 0.0871829,0.119624 0.114352,0.195847 0.0271688,0.0762232 0.0407363,0.16036 0.0407363,0.252444zm-0.21961 0c0,-0.13282 -0.0297991,-0.238101 -0.0894198,-0.315841 -0.0596319,-0.0777182 -0.140767,-0.116589 -0.243406,-0.116589 -0.102639,0 -0.183774,0.0388703 -0.243384,0.116589 -0.0596207,0.0777407 -0.089431,0.183021 -0.089431,0.315841 0,0.132831 0.0298103,0.238112 0.089431,0.315852 0.0596094,0.0777182 0.140745,0.116589 0.243384,0.116589 0.102639,0 0.183774,-0.0388703 0.243406,-0.116589 0.0596207,-0.0777407 0.0894198,-0.183021 0.0894198,-0.315852z"/>
   <g>
    <path id="_483339040" class="fil4" d="M7.92285 9.87119l0.493422 0c0.060711,0 0.110361,0.0496502 0.110361,0.110361l0 1.34809c0,0.060711 -0.0496502,0.110361 -0.110361,0.110361l-0.493422 0c-0.060711,0 -0.110339,-0.0496502 -0.110339,-0.110361l0 -1.34809c0,-0.060711 0.0496277,-0.110361 0.110339,-0.110361z"/>
    <path id="_483338896" class="fil5" d="M7.02551 10.1813l0.493399 0c0.060711,0 0.110361,0.0496502 0.110361,0.110372l0 1.03796c0,0.060711 -0.0496502,0.110361 -0.110361,0.110361l-0.493399 0c-0.060711,0 -0.110361,-0.0496502 -0.110361,-0.110361l0 -1.03796c0,-0.0607223 0.0496502,-0.110372 0.110361,-0.110372z"/>
    <path id="_483343936" class="fil6" d="M6.13775 10.4533l0.493422 0c0.060711,0 0.110361,0.0496502 0.110361,0.110361l0 0.765975c0,0.060711 -0.0496502,0.110361 -0.110361,0.110361l-0.493422 0c-0.060711,0 -0.110339,-0.0496502 -0.110339,-0.110361l0 -0.765975c0,-0.060711 0.0496277,-0.110361 0.110339,-0.110361z"/>
   </g>
   <g>
    <path id="_483337336" class="fil7" d="M10.6713 19.7078l0.357893 0 0 0.141689 -0.357893 0 0 0.436027c0,0.0472334 0.00363075,0.0862949 0.0108922,0.117184 0.00728397,0.0308894 0.018165,0.0551019 0.0327104,0.0726599 0.014523,0.017558 0.032688,0.0299789 0.0544837,0.0372404 0.021807,0.00726149 0.0472334,0.0108922 0.0763131,0.0108922 0.0508642,0 0.0917354,-0.005744 0.122625,-0.0172432 0.0308782,-0.0115105 0.0523929,-0.0196937 0.0644991,-0.0245272l0.0327104 0.139879c-0.0169622,0.00847549 -0.0466377,0.0190755 -0.0890263,0.0317887 -0.0423887,0.0127132 -0.0908361,0.0190755 -0.145342,0.0190755 -0.0641956,0 -0.117184,-0.00816075 -0.158966,-0.0245047 -0.0417704,-0.0163665 -0.0753801,-0.0408937 -0.100818,-0.0735816 -0.0254489,-0.0327217 -0.0433104,-0.0729746 -0.0536069,-0.120815 -0.0102965,-0.0478517 -0.0154447,-0.103268 -0.0154447,-0.166239l0 -0.842951 0.16897 -0.0290572 0 0.292483zm0.921063 -0.0199972c0.0145455,0 0.0311929,0.000921737 0.0499537,0.00273149 0.0187945,0.00182099 0.0372517,0.00424898 0.0554167,0.00728397 0.0181762,0.00301251 0.0348237,0.0060475 0.0499537,0.00908249 0.0151412,0.00301251 0.0263594,0.005744 0.0336209,0.00816075l-0.0290572 0.147163c-0.0133315,-0.00485598 -0.0354419,-0.0106 -0.0663314,-0.0172657 -0.0308782,-0.00666574 -0.0705466,-0.00998174 -0.118983,-0.00998174 -0.0315077,0 -0.0626781,0.00331601 -0.0935564,0.00998174 -0.0308894,0.00666574 -0.0511677,0.0111957 -0.0608684,0.0136237l0 0.793908 -0.168948 0 0 -0.904719c0.0399719,-0.0145342 0.0896221,-0.028158 0.148973,-0.0408712 0.0593509,-0.0127357 0.125952,-0.019098 0.199826,-0.019098zm0.672194 0.842974c0.0399719,0 0.0753914,-0.000910497 0.106281,-0.00273149 0.0308782,-0.00182099 0.0566194,-0.00514824 0.0772124,-0.00998174l0 -0.281602c-0.0121287,-0.0060475 -0.0317887,-0.0111957 -0.0590474,-0.0154447 -0.0272587,-0.00424898 -0.0602502,-0.006351 -0.0990081,-0.006351 -0.0254377,0 -0.0523817,0.00182099 -0.0808431,0.00545174 -0.0284727,0.00363075 -0.0545174,0.0111957 -0.0781229,0.0227062 -0.023628,0.0114992 -0.0433104,0.0272475 -0.0590362,0.0472222 -0.0157595,0.0199972 -0.023628,0.0463342 -0.023628,0.0790446 0,0.0605537 0.019379,0.102639 0.0581369,0.126244 0.0387579,0.023628 0.0914431,0.0354419 0.158055,0.0354419zm-0.0145342 -0.846605c0.0678151,0 0.125053,0.00877899 0.171668,0.0263594 0.0466377,0.017558 0.0841928,0.0423887 0.112654,0.0744809 0.028439,0.0321034 0.0487509,0.0702431 0.0608459,0.114464 0.0121175,0.0441872 0.0181762,0.0929381 0.0181762,0.146242l0 0.590429c-0.0145455,0.00241675 -0.0348237,0.005744 -0.0608796,0.00998174 -0.0260222,0.00424898 -0.0553829,0.00818323 -0.0880934,0.011814 -0.032688,0.00363075 -0.0681299,0.00695799 -0.106281,0.00999298 -0.0381397,0.00303499 -0.0759984,0.00453 -0.113554,0.00453 -0.0532809,0 -0.102335,-0.0054405 -0.147141,-0.016344 -0.0448167,-0.0108922 -0.0835746,-0.028158 -0.116285,-0.0517859 -0.032688,-0.0236055 -0.0581144,-0.0547984 -0.0762906,-0.0935564 -0.018165,-0.0387355 -0.0272475,-0.0853731 -0.0272475,-0.139891 0,-0.0520669 0.0106,-0.0968724 0.0317775,-0.134428 0.0212112,-0.0375552 0.0499649,-0.0678151 0.0863061,-0.0908361 0.0363412,-0.0230097 0.0787299,-0.0399607 0.127166,-0.0508754 0.0484474,-0.0108922 0.0993228,-0.016344 0.152604,-0.016344 0.0169622,0 0.034509,0.000899256 0.0526852,0.00273149 0.018165,0.00182099 0.0354419,0.00423774 0.0517859,0.00725025 0.016344,0.00303499 0.0305747,0.00576648 0.0426922,0.00818323 0.0121062,0.00242799 0.020593,0.00424898 0.0254377,0.00546298l0 -0.0472334c0,-0.0278769 -0.00303499,-0.0554167 -0.00909373,-0.0826641 -0.0060475,-0.0272587 -0.016951,-0.0514824 -0.0327104,-0.0726599 -0.0157257,-0.0212112 -0.0372404,-0.0381734 -0.0644767,-0.0508867 -0.0272475,-0.0127132 -0.0626894,-0.0190755 -0.106292,-0.0190755 -0.0556977,0 -0.104449,0.00394549 -0.146242,0.011814 -0.0417704,0.00787973 -0.0729634,0.0160405 -0.0935564,0.0245272l-0.0199747 -0.139879c0.0217957,-0.00970072 0.0581144,-0.0190755 0.109001,-0.028158 0.0508529,-0.00909373 0.105966,-0.0136462 0.165317,-0.0136462zm1.38068 0.023628c-0.0472334,0.176827 -0.102639,0.346382 -0.166216,0.508687 -0.0635999,0.162282 -0.125064,0.307624 -0.184415,0.436004l-0.152593 0c-0.0593509,-0.12838 -0.120815,-0.273722 -0.184392,-0.436004 -0.0635999,-0.162304 -0.118983,-0.331859 -0.166239,-0.508687l0.181683 0c0.0145342,0.0593509 0.0317887,0.122625 0.0517859,0.189844 0.0199747,0.0672306 0.0411522,0.133843 0.0635662,0.199837 0.0224252,0.0660166 0.0451202,0.129898 0.0681299,0.191665 0.0230097,0.0617676 0.0448167,0.116881 0.0653984,0.165317 0.020593,-0.0484362 0.0423999,-0.103549 0.0654096,-0.165317 0.0230097,-0.0617676 0.0457047,-0.125649 0.0681186,-0.191665 0.0224252,-0.0659942 0.0436027,-0.132607 0.0635774,-0.199837 0.0199972,-0.0672194 0.0372404,-0.130493 0.0517859,-0.189844l0.174399 0zm0.121737 0.474155c0,-0.0835521 0.0121062,-0.156549 0.0363412,-0.218913 0.0242237,-0.0623634 0.0563159,-0.114149 0.0962878,-0.155324 0.0399494,-0.0411859 0.0859914,-0.0720641 0.138058,-0.0926571 0.0520669,-0.020593 0.10537,-0.0308894 0.159865,-0.0308894 0.127166,0 0.224668,0.0396684 0.292506,0.119017 0.0678151,0.0793256 0.101717,0.200141 0.101717,0.362411 0,0.00728397 0,0.0166587 0,0.028158 0,0.0115105 -0.000595757,0.0221105 -0.00179851,0.0318112l-0.646745 0c0.00726149,0.0980976 0.0357229,0.172578 0.0853731,0.223443 0.0496502,0.0508754 0.127166,0.0763019 0.232536,0.0763019 0.0593509,0 0.109316,-0.00514824 0.149872,-0.0154335 0.0405902,-0.0102965 0.0711649,-0.0202895 0.0917578,-0.0299902l0.0236055 0.141712c-0.020593,0.0109147 -0.0566194,0.022414 -0.108079,0.0345202 -0.0514712,0.0121175 -0.109923,0.018165 -0.175321,0.018165 -0.0823606,0 -0.153503,-0.0124097 -0.213472,-0.0372404 -0.0599467,-0.0248307 -0.109282,-0.0590474 -0.148051,-0.102639 -0.0387579,-0.0436027 -0.0675341,-0.0953886 -0.0862949,-0.155335 -0.0187607,-0.0599467 -0.028158,-0.125649 -0.028158,-0.197117zm0.648577 -0.0926346c0.00120275,-0.0763131 -0.0178727,-0.138991 -0.0572489,-0.188046 -0.0393537,-0.0490544 -0.0935564,-0.0735816 -0.162585,-0.0735816 -0.0387579,0 -0.0729634,0.00758747 -0.102639,0.0227175 -0.0296754,0.0151412 -0.0547984,0.0348237 -0.0753914,0.0590474 -0.020593,0.0242237 -0.0366447,0.0520669 -0.0481552,0.0835746 -0.0114992,0.031474 -0.0190642,0.0635662 -0.022695,0.0962878l0.468715 0zm0.70305 0.581335c-0.104156,-0.00241675 -0.17803,-0.0248307 -0.221622,-0.0672194 -0.0436027,-0.0423887 -0.0654096,-0.108383 -0.0654096,-0.198027l0 -1.13364 0.168948 -0.0290572 0 1.13546c0,0.0278545 0.00242799,0.0508642 0.00726149,0.0690291 0.00486722,0.0181762 0.0127132,0.032688 0.023628,0.0436027 0.0108922,0.0108922 0.0254265,0.0190755 0.0436027,0.0245272 0.018165,0.00545174 0.0405564,0.00998174 0.0672194,0.0136125l-0.023628 0.141712zm0.381521 -0.018165l-0.168948 0 0 -0.944691 0.168948 0 0 0.944691zm-0.0853731 -1.11546c-0.0302937,0 -0.0560349,-0.00999298 -0.0772124,-0.0299789 -0.0212112,-0.0199747 -0.0317887,-0.0469299 -0.0317887,-0.0808431 0,-0.033902 0.0105775,-0.0608459 0.0317887,-0.0808431 0.0211775,-0.0199747 0.0469187,-0.0299902 0.0772124,-0.0299902 0.0302712,0 0.0560012,0.0100155 0.0772124,0.0299902 0.0211775,0.0199972 0.0317887,0.0469412 0.0317887,0.0808431 0,0.0339132 -0.0106112,0.0608684 -0.0317887,0.0808431 -0.0212112,0.019986 -0.0469412,0.0299789 -0.0772124,0.0299789zm0.595881 0.993745c0.0690291,0 0.120197,-0.00909373 0.153503,-0.0272587 0.0333062,-0.018165 0.0499537,-0.0472334 0.0499537,-0.0872054 0,-0.0411747 -0.016344,-0.0738851 -0.0490544,-0.0981088 -0.032688,-0.0242125 -0.0865871,-0.0514712 -0.161686,-0.0817424 -0.0363187,-0.0145455 -0.0711424,-0.029372 -0.104449,-0.0445019 -0.033295,-0.0151525 -0.0620711,-0.0330252 -0.0862949,-0.0536069 -0.0242237,-0.020593 -0.0436027,-0.0454124 -0.0581369,-0.0744921 -0.0145455,-0.0290572 -0.021807,-0.0647802 -0.021807,-0.107169 0,-0.0835746 0.0308894,-0.149872 0.0926571,-0.198927 0.0617789,-0.0490657 0.145938,-0.0735929 0.252522,-0.0735929 0.0266405,0 0.0533034,0.00151749 0.0799326,0.00455248 0.0266405,0.00302375 0.0514824,0.00664325 0.0744921,0.0108922 0.0230097,0.00424898 0.0432879,0.00877899 0.0608684,0.0136462 0.017558,0.0048335 0.0311705,0.00906 0.0408712,0.0127132l-0.0308894 0.14532c-0.018165,-0.00967824 -0.0466264,-0.0196712 -0.0853956,-0.0299677 -0.0387579,-0.0102965 -0.0853731,-0.0154447 -0.139879,-0.0154447 -0.0472334,0 -0.0884194,0.00939723 -0.123547,0.028158 -0.0351047,0.018772 -0.0526852,0.0481327 -0.0526852,0.0881046 0,0.020593 0.00393425,0.0387579 0.011814,0.0545174 0.00787973,0.0157482 0.0199972,0.0299565 0.0363412,0.0426922 0.016344,0.0127132 0.0366222,0.0245047 0.0608684,0.0354194 0.0242237,0.0108922 0.0532809,0.022414 0.0872054,0.0345202 0.0448054,0.016951 0.0847774,0.0336097 0.119882,0.0499537 0.0351384,0.016344 0.0651174,0.0354419 0.0899368,0.0572376 0.0248307,0.0217957 0.0439062,0.0481327 0.0572376,0.0790221 0.013309,0.0308782 0.0199747,0.0687369 0.0199747,0.113554 0,0.0871941 -0.0324069,0.153188 -0.0971871,0.198005 -0.0648139,0.0448054 -0.157156,0.0672194 -0.27705,0.0672194 -0.0835746,0 -0.148973,-0.00696923 -0.196218,-0.0208965 -0.0472334,-0.0139272 -0.0793256,-0.0245272 -0.0962878,-0.0317887l0.0308782 -0.145342c0.0193902,0.00728397 0.0502684,0.0181762 0.0926571,0.0327104 0.0423887,0.014523 0.0987046,0.021807 0.16897,0.021807zm0.748485 -0.822977l0.357893 0 0 0.141689 -0.357893 0 0 0.436027c0,0.0472334 0.00363075,0.0862949 0.0108922,0.117184 0.00728397,0.0308894 0.018165,0.0551019 0.0327104,0.0726599 0.014523,0.017558 0.032688,0.0299789 0.0544837,0.0372404 0.021807,0.00726149 0.0472334,0.0108922 0.0763131,0.0108922 0.0508642,0 0.0917354,-0.005744 0.122625,-0.0172432 0.0308782,-0.0115105 0.0523929,-0.0196937 0.0644991,-0.0245272l0.0327104 0.139879c-0.0169622,0.00847549 -0.0466377,0.0190755 -0.0890263,0.0317887 -0.0423999,0.0127132 -0.0908361,0.0190755 -0.145342,0.0190755 -0.0641956,0 -0.117184,-0.00816075 -0.158966,-0.0245047 -0.0417704,-0.0163665 -0.0753801,-0.0408937 -0.100818,-0.0735816 -0.0254489,-0.0327217 -0.0433104,-0.0729746 -0.0536069,-0.120815 -0.0102965,-0.0478517 -0.0154447,-0.103268 -0.0154447,-0.166239l0 -0.842951 0.16897 -0.0290572 0 0.292483zm0.741201 0.944691l-0.168936 0 0 -0.944691 0.168936 0 0 0.944691zm-0.0853731 -1.11546c-0.0302824,0 -0.0560237,-0.00999298 -0.0772124,-0.0299789 -0.0212,-0.0199747 -0.0317887,-0.0469299 -0.0317887,-0.0808431 0,-0.033902 0.0105887,-0.0608459 0.0317887,-0.0808431 0.0211887,-0.0199747 0.0469299,-0.0299902 0.0772124,-0.0299902 0.0302712,0 0.0560124,0.0100155 0.0772124,0.0299902 0.0211887,0.0199972 0.0317887,0.0469412 0.0317887,0.0808431 0,0.0339132 -0.0106,0.0608684 -0.0317887,0.0808431 -0.0212,0.019986 -0.0469412,0.0299789 -0.0772124,0.0299789zm0.786635 1.13726c-0.0763131,0 -0.143207,-0.0121175 -0.200759,-0.0363412 -0.0575187,-0.0242125 -0.105966,-0.0581144 -0.14532,-0.101717 -0.0393762,-0.0436027 -0.0687369,-0.0953886 -0.0881159,-0.155324 -0.0193902,-0.0599691 -0.0290685,-0.126278 -0.0290685,-0.198949 0,-0.0726599 0.0106112,-0.139272 0.0317887,-0.199837 0.0212112,-0.0605649 0.0511677,-0.112935 0.0899256,-0.157134 0.0387692,-0.0442097 0.0863061,-0.0787299 0.142622,-0.103561 0.0563159,-0.0248195 0.118983,-0.0372517 0.188012,-0.0372517 0.0423887,0 0.0847886,0.00363075 0.127177,0.0109147 0.0423887,0.00726149 0.0829789,0.0187607 0.121737,0.0345202l-0.0381734 0.14351c-0.0254265,-0.0121175 -0.0547984,-0.0217957 -0.0880934,-0.0290572 -0.0333062,-0.00728397 -0.0687256,-0.0109147 -0.106281,-0.0109147 -0.0944781,0 -0.166834,0.0296754 -0.217092,0.0890263 -0.0502684,0.0593509 -0.0753914,0.145938 -0.0753914,0.259784 0,0.0508754 0.005744,0.0975131 0.0172432,0.139902 0.0115105,0.0423887 0.0296754,0.0787074 0.0545174,0.109001 0.0248082,0.0302712 0.0566194,0.0535844 0.0953549,0.0699284 0.0387692,0.016344 0.0859914,0.0245272 0.141712,0.0245272 0.0448167,0 0.0853956,-0.00423774 0.121714,-0.0127132 0.0363412,-0.00846425 0.0648139,-0.0175467 0.0854068,-0.0272475l0.0235942 0.141712c-0.00967824,0.0060475 -0.0235942,0.0118027 -0.0417704,0.0172432 -0.018165,0.00545174 -0.0387579,0.0102965 -0.0617676,0.0145342 -0.0230097,0.00424898 -0.0475369,0.00787973 -0.0735816,0.0109147 -0.0260335,0.00301251 -0.0511677,0.00453 -0.0753914,0.00453zm0.654029 -0.14351c0.0690291,0 0.120197,-0.00909373 0.153503,-0.0272587 0.0333062,-0.018165 0.0499537,-0.0472334 0.0499537,-0.0872054 0,-0.0411747 -0.016344,-0.0738851 -0.0490544,-0.0981088 -0.032688,-0.0242125 -0.0865871,-0.0514712 -0.161686,-0.0817424 -0.0363187,-0.0145455 -0.0711424,-0.029372 -0.104449,-0.0445019 -0.0333062,-0.0151525 -0.0620824,-0.0330252 -0.0862949,-0.0536069 -0.0242237,-0.020593 -0.0436027,-0.0454124 -0.0581481,-0.0744921 -0.0145342,-0.0290572 -0.0217957,-0.0647802 -0.0217957,-0.107169 0,-0.0835746 0.0308894,-0.149872 0.0926571,-0.198927 0.0617676,-0.0490657 0.145938,-0.0735929 0.252511,-0.0735929 0.0266405,0 0.0533034,0.00151749 0.0799439,0.00455248 0.0266405,0.00302375 0.0514712,0.00664325 0.0744809,0.0108922 0.0230097,0.00424898 0.0432992,0.00877899 0.0608796,0.0136462 0.0175467,0.0048335 0.0311705,0.00906 0.0408712,0.0127132l-0.0308894 0.14532c-0.0181762,-0.00967824 -0.0466377,-0.0196712 -0.0853956,-0.0299677 -0.0387579,-0.0102965 -0.0853731,-0.0154447 -0.139891,-0.0154447 -0.0472222,0 -0.0884081,0.00939723 -0.123535,0.028158 -0.0351159,0.018772 -0.0526852,0.0481327 -0.0526852,0.0881046 0,0.020593 0.00393425,0.0387579 0.011814,0.0545174 0.00786849,0.0157482 0.0199972,0.0299565 0.0363412,0.0426922 0.016344,0.0127132 0.0366222,0.0245047 0.0608684,0.0354194 0.0242125,0.0108922 0.0532809,0.022414 0.0871941,0.0345202 0.0448167,0.016951 0.0847886,0.0336097 0.119893,0.0499537 0.0351272,0.016344 0.0651174,0.0354419 0.0899256,0.0572376 0.0248419,0.0217957 0.0439062,0.0481327 0.0572376,0.0790221 0.013309,0.0308782 0.0199747,0.0687369 0.0199747,0.113554 0,0.0871941 -0.0323957,0.153188 -0.0971871,0.198005 -0.0648026,0.0448054 -0.157156,0.0672194 -0.277038,0.0672194 -0.0835746,0 -0.148973,-0.00696923 -0.196229,-0.0208965 -0.0472334,-0.0139272 -0.0793256,-0.0245272 -0.0962878,-0.0317887l0.0308894 -0.145342c0.019379,0.00728397 0.0502684,0.0181762 0.0926571,0.0327104 0.0423887,0.014523 0.0987046,0.021807 0.16897,0.021807zm0.790255 0.0236055c0,0.0327104 -0.0108922,0.0611719 -0.032688,0.0853956 -0.0217957,0.0242125 -0.0514712,0.0363412 -0.0890263,0.0363412 -0.0375552,0 -0.0672306,-0.0121287 -0.0890263,-0.0363412 -0.0217957,-0.0242237 -0.032688,-0.0526852 -0.032688,-0.0853956 0,-0.0326992 0.0108922,-0.0611607 0.032688,-0.0853844 0.0217957,-0.0242125 0.0514712,-0.0363412 0.0890263,-0.0363412 0.0375552,0 0.0672306,0.0121287 0.0890263,0.0363412 0.0217957,0.0242237 0.032688,0.0526852 0.032688,0.0853844zm0.247082 -0.819323c0.0387579,-0.00970072 0.0902403,-0.0199972 0.154425,-0.0308894 0.0641956,-0.0109035 0.13807,-0.0163665 0.221633,-0.0163665 0.0750766,0 0.137474,0.0106112 0.187113,0.0318112 0.0496502,0.0211887 0.0893411,0.0508642 0.118994,0.0890039 0.0296754,0.0381734 0.0505719,0.0838781 0.0626894,0.137159 0.0121062,0.0533034 0.0181537,0.112036 0.0181537,0.176232l0 0.530482 -0.168948 0 0 -0.494141c0,-0.0581481 -0.00393425,-0.107798 -0.011814,-0.148973 -0.00786849,-0.0411859 -0.020874,-0.0744921 -0.039039,-0.0999186 -0.0181762,-0.0254265 -0.0423999,-0.0439062 -0.0726824,-0.0554167 -0.0302712,-0.0114992 -0.0678264,-0.0172657 -0.112632,-0.0172657 -0.0181762,0 -0.0369369,0.000618239 -0.0563159,0.00183223 -0.019379,0.00120275 -0.0378587,0.00272025 -0.0554167,0.00453 -0.017558,0.00182099 -0.0333062,0.00393425 -0.0472334,0.006351 -0.013916,0.00245047 -0.0239315,0.00424898 -0.0299789,0.00546298l0 0.797539 -0.168948 0 0 -0.917432zm1.87666 0.445087c0,0.0750766 -0.010881,0.142926 -0.032688,0.203457 -0.0217957,0.0605649 -0.0523704,0.112654 -0.0917466,0.156257 -0.0393649,0.0436027 -0.0863061,0.0772124 -0.14079,0.100818 -0.0545174,0.023628 -0.113846,0.0354419 -0.17803,0.0354419 -0.0641956,0 -0.123547,-0.011814 -0.178053,-0.0354419 -0.0544949,-0.0236055 -0.101436,-0.0572152 -0.14079,-0.100818 -0.0393537,-0.0436027 -0.0699509,-0.0956921 -0.0917578,-0.156257 -0.0217957,-0.0605312 -0.032688,-0.12838 -0.032688,-0.203457 0,-0.0738964 0.0108922,-0.141408 0.032688,-0.202557 0.021807,-0.0611831 0.0524041,-0.113554 0.0917578,-0.157156 0.0393537,-0.0436027 0.0862949,-0.0772124 0.14079,-0.100818 0.0545062,-0.023628 0.113857,-0.0354419 0.178053,-0.0354419 0.0641844,0 0.123513,0.011814 0.17803,0.0354419 0.0544837,0.0236055 0.101425,0.0572152 0.14079,0.100818 0.0393762,0.0436027 0.0699509,0.0959731 0.0917466,0.157156 0.021807,0.0611494 0.032688,0.128661 0.032688,0.202557zm-0.176198 0c0,-0.106584 -0.0239427,-0.191058 -0.0717831,-0.253444 -0.0478292,-0.0623634 -0.112935,-0.0935564 -0.195273,-0.0935564 -0.0823606,0 -0.147478,0.0311929 -0.195307,0.0935564 -0.0478404,0.0623859 -0.0717494,0.14686 -0.0717494,0.253444 0,0.106584 0.023909,0.191058 0.0717494,0.253444 0.0478292,0.0623634 0.112947,0.0935564 0.195307,0.0935564 0.0823381,0 0.147444,-0.0311929 0.195273,-0.0935564 0.0478404,-0.0623859 0.0717831,-0.14686 0.0717831,-0.253444z"/>
    <g>
     <path id="_483339904" class="fil8" d="M9.27263 19.4173l0.395897 0c0.048706,0 0.0885655,0.039837 0.0885655,0.0885655l0 1.08169c0,0.0487284 -0.0398595,0.088543 -0.0885655,0.088543l-0.395897 0c-0.0487509,0 -0.0885655,-0.0398146 -0.0885655,-0.088543l0 -1.08169c0,-0.0487284 0.0398146,-0.0885655 0.0885655,-0.0885655z"/>
     <path id="_483340984" class="fil8" d="M8.55259 19.6662l0.395897 0c0.048706,0 0.0885655,0.039837 0.0885655,0.0885655l0 0.832846c0,0.0487284 -0.0398595,0.0885655 -0.0885655,0.0885655l-0.395897 0c-0.0487509,0 -0.0885655,-0.039837 -0.0885655,-0.0885655l0 -0.832846c0,-0.0487284 0.0398146,-0.0885655 0.0885655,-0.0885655z"/>
     <path id="_483339304" class="fil8" d="M7.84024 19.8844l0.395909 0c0.0487172,0 0.0885655,0.039837 0.0885655,0.0885655l0 0.614608c0,0.0487284 -0.0398483,0.0885655 -0.0885655,0.0885655l-0.395909 0c-0.0487172,0 -0.0885542,-0.039837 -0.0885542,-0.0885655l0 -0.614608c0,-0.0487284 0.039837,-0.0885655 0.0885542,-0.0885655z"/>
    </g>
   </g>
   <g>
    <path id="_483337096" class="fil4" d="M27.2798 2.19604l0.371202 0c0.0456934,0 0.0830463,0.0373528 0.0830463,0.0830463l0 1.01423c0,0.0456934 -0.0373528,0.0830463 -0.0830463,0.0830463l-0.371202 0c-0.0457047,0 -0.0830351,-0.0373528 -0.0830351,-0.0830463l0 -1.01423c0,-0.0456934 0.0373304,-0.0830463 0.0830351,-0.0830463z"/>
    <path id="_483351328" class="fil5" d="M26.6047 2.42937l0.37119 0c0.0456934,0 0.0830463,0.0373528 0.0830463,0.0830463l0 0.780914c0,0.0456934 -0.0373528,0.0830351 -0.0830463,0.0830351l-0.37119 0c-0.0457159,0 -0.0830463,-0.0373416 -0.0830463,-0.0830351l0 -0.780914c0,-0.0456934 0.0373304,-0.0830463 0.0830463,-0.0830463z"/>
    <path id="_483340504" class="fil6" d="M25.9367 2.634l0.371224 0c0.0456934,0 0.0830463,0.0373528 0.0830463,0.0830463l0 0.576288c0,0.0456934 -0.0373528,0.0830351 -0.0830463,0.0830351l-0.371224 0c-0.0456822,0 -0.0830351,-0.0373416 -0.0830351,-0.0830351l0 -0.576288c0,-0.0456934 0.0373528,-0.0830463 0.0830351,-0.0830463z"/>
   </g>
  </g>
 </g>
</svg>
